g SeparateMesh_Avatar_Male_Size02_HugoVlad_Model_HugoVlad_Weapon_4_LOD2
v -0 0.8519813 2.4088266
v -0 1.1462522 2.1558454
v 0.0052526854 0.8050854 2.3187919
v 0.0052526854 0.62867844 2.406012
v -0 0.67691916 2.5111728
v 0.0052527618 0.2685489 2.5148919
v -0 0.2965863 2.6393394
v -0 0.16699378 2.6628947
v -0 0.2965863 2.6393394
v 0.0052527618 0.2685489 2.5148919
v 0.005252838 0.11360158 2.52496
v 0.005252838 -0.02421875 2.5509543
v -0 0.26326683 2.4877846
v -0 0.112736054 2.4975524
v 0.005252838 0.11360158 2.52496
v 0.0052527618 0.2685489 2.5148919
v 0.0052526854 0.62867844 2.406012
v 0.0052526854 0.8050854 2.3187919
v -0 0.7915074 2.2945158
v -0 0.61773586 2.3804793
v 0.0052527618 0.2685489 2.5148919
v -0 0.26326683 2.4877846
v -0 1.1462522 2.1558454
v 0.005252838 -0.02421875 2.5509543
v -0 1.1462522 2.1558454
v -0 0.8519813 2.4088266
v -0.0052526854 0.8050854 2.3187919
v -0 0.67691916 2.5111728
v -0.0052526854 0.62867844 2.406012
v -0 0.2965863 2.6393394
v -0.0052527618 0.2685489 2.5148919
v -0.0052527618 0.2685489 2.5148919
v -0 0.2965863 2.6393394
v -0 0.16699378 2.6628947
v -0.005252838 0.11360158 2.52496
v -0.0052527618 -0.02421875 2.5509543
v -0 0.26326683 2.4877846
v -0.0052527618 0.2685489 2.5148919
v -0.005252838 0.11360158 2.52496
v -0 0.112736054 2.4975524
v -0.0052526854 0.62867844 2.406012
v -0 0.61773586 2.3804793
v -0 0.7915074 2.2945158
v -0.0052526854 0.8050854 2.3187919
v -0.0052527618 0.2685489 2.5148919
v -0 0.26326683 2.4877846
v -0 1.1462522 2.1558454
v -0.0052527618 -0.02421875 2.5509543
v -0 0.16699378 2.6628947
v 0.005252838 -0.02421875 2.5509543
v -0.0052527618 -0.02421875 2.5509543
v -0 0.112736054 2.4975524
v -0.0052527618 -0.02421875 2.5509543
v 0.005252838 -0.02421875 2.5509543
vt 0.8935562 0.25372645
vt 0.9006874 0.24501826
vt 0.891763 0.251392
vt 0.88716376 0.2547713
vt 0.88907135 0.25753117
vt 0.88175666 0.25793132
vt 0.87885326 0.26310694
vt 0.87527037 0.26443267
vt 0.87885326 0.26310694
vt 0.8771738 0.25982195
vt 0.8730507 0.26076254
vt 0.869245 0.26219907
vt 0.8771384 0.25894588
vt 0.8728881 0.25998294
vt 0.8730507 0.26076254
vt 0.8771738 0.25982195
vt 0.88716376 0.2547713
vt 0.891763 0.251392
vt 0.891253 0.25076506
vt 0.88672286 0.25409594
vt 0.88175666 0.25793132
vt 0.8771384 0.25894588
vt 0.9006874 0.24501826
vt 0.869245 0.26219907
vt 0.9006874 0.24501826
vt 0.89355654 0.25372684
vt 0.89176244 0.25139162
vt 0.88907135 0.25753117
vt 0.88716376 0.2547713
vt 0.87886155 0.263103
vt 0.88175666 0.25793132
vt 0.8771738 0.25982183
vt 0.87886155 0.263103
vt 0.8752705 0.26443264
vt 0.8730507 0.26076254
vt 0.869245 0.26219907
vt 0.8771384 0.25894588
vt 0.8771738 0.25982183
vt 0.8730507 0.26076254
vt 0.8728881 0.25998294
vt 0.88716376 0.2547713
vt 0.88672286 0.25409594
vt 0.8912537 0.25076595
vt 0.89176244 0.25139162
vt 0.88175666 0.25793132
vt 0.8771384 0.25894588
vt 0.9006874 0.24501826
vt 0.869245 0.26219907
vt 0.8716968 0.25520182
vt 0.8723462 0.24326955
vt 0.87104744 0.24326955
vt 0.87457156 0.24222605
vt 0.87392217 0.25014237
vt 0.87522095 0.25014237
vn 0.99873906 0.028229801 0.0415135
vn 0.998591 0.0345937 0.040239792
vn 0.9987301 0.02867205 0.041425046
vn 0.9989599 0.017935198 0.04192208
vn 0.99895597 0.018103184 0.04194366
vn 0.9991642 0.008785093 0.03992133
vn 0.99916375 0.008804843 0.03992754
vn 0.9992747 0.0051486883 0.03773014
vn 0.99916375 0.008804843 0.03992754
vn 0.9991642 0.008785093 0.03992133
vn 0.9993067 0.005796845 0.036778428
vn 0.99934846 0.0066896644 0.035467364
vn 0.9824301 -0.033071563 -0.18367775
vn 0.9820077 -0.02221897 -0.18752934
vn 0.9819713 -0.02439369 -0.18744922
vn 0.9824315 -0.033418953 -0.18360694
vn 0.98254836 -0.06860899 -0.17289136
vn 0.98246425 -0.07505343 -0.17067824
vn 0.98247623 -0.07573358 -0.1703081
vn 0.98254365 -0.068107694 -0.17311662
vn 0.9824315 -0.033418953 -0.18360694
vn 0.9824301 -0.033071563 -0.18367775
vn 0.9823095 -0.06817832 -0.1744125
vn 0.9817197 -0.03527645 -0.18703495
vn -0.998591 0.034593705 0.04023979
vn -0.99873906 0.028229803 0.0415135
vn -0.9987301 0.02867205 0.04142505
vn -0.99895597 0.018103188 0.04194367
vn -0.9989599 0.017935198 0.04192209
vn -0.99916375 0.008804766 0.039927658
vn -0.9991642 0.008785017 0.03992145
vn -0.9991642 0.008785017 0.03992145
vn -0.99916375 0.008804766 0.039927658
vn -0.9992747 0.005148413 0.037730474
vn -0.9993067 0.0057964297 0.036778875
vn -0.99934846 0.0066890554 0.035467964
vn -0.98243 -0.033071674 -0.18367812
vn -0.9824315 -0.033419065 -0.18360732
vn -0.9819711 -0.024394333 -0.18745051
vn -0.98200744 -0.022219537 -0.18753052
vn -0.98254836 -0.06860899 -0.17289136
vn -0.98254365 -0.068107694 -0.17311658
vn -0.98247623 -0.07573358 -0.1703081
vn -0.98246425 -0.07505343 -0.17067824
vn -0.9824315 -0.033419065 -0.18360732
vn -0.98243 -0.033071674 -0.18367812
vn -0.9823095 -0.06817832 -0.1744125
vn -0.9817193 -0.035277475 -0.18703663
vn -0 -0.5052168 0.86299247
vn -0 -0.50521666 0.86299247
vn -0 -0.50521666 0.86299247
vn -0 -0.3632846 -0.93167824
vn -0 -0.36328462 -0.93167824
vn -0 -0.3632846 -0.93167824
g SeparateMesh_Avatar_Male_Size02_HugoVlad_Model_HugoVlad_Weapon_4_LOD2_0
f 3/3/3 2/2/2 1/1/1
f 4/4/4 3/3/3 1/1/1
f 5/5/5 4/4/4 1/1/1
f 6/6/6 4/4/4 5/5/5
f 7/7/7 6/6/6 5/5/5
f 10/10/10 9/9/9 8/8/8
f 11/11/11 10/10/10 8/8/8
f 11/11/11 8/8/8 12/12/12
f 15/15/15 14/14/14 13/13/13
f 16/16/16 15/15/15 13/13/13
f 19/19/19 18/18/18 17/17/17
f 20/20/20 19/19/19 17/17/17
f 20/20/20 17/17/17 21/21/21
f 22/22/22 20/20/20 21/21/21
f 18/18/18 19/19/19 23/23/23
f 14/14/14 15/15/15 24/24/24
f 27/27/27 26/26/26 25/25/25
f 29/29/29 28/28/28 26/26/26
f 27/27/27 29/29/29 26/26/26
f 31/31/31 30/30/30 28/28/28
f 29/29/29 31/31/31 28/28/28
f 34/34/34 33/33/33 32/32/32
f 35/35/35 34/34/34 32/32/32
f 34/34/34 35/35/35 36/36/36
f 39/39/39 38/38/38 37/37/37
f 40/40/40 39/39/39 37/37/37
f 43/43/43 42/42/42 41/41/41
f 44/44/44 43/43/43 41/41/41
f 42/42/42 46/46/46 45/45/45
f 41/41/41 42/42/42 45/45/45
f 43/43/43 44/44/44 47/47/47
f 39/39/39 40/40/40 48/48/48
f 51/51/51 50/50/50 49/49/49
f 54/54/54 53/53/53 52/52/52
