g SeparateMesh_Avatar_Male_Size02_HugoVlad_Model_HugoVlad_Weapon_4_LOD1
v -0 0.16699378 2.6628947
v -0 0.19841266 2.6593335
v 0.0052527618 0.19316661 2.6334403
v 0.005252838 0.12788463 2.6399994
v -0 0.3274049 2.6376922
v 0.0052527618 0.32330793 2.6118057
v -0 0.46211502 2.6009996
v 0.0052527618 0.45460638 2.5761652
v -0 0.6061655 2.5462964
v 0.0052527618 0.59694594 2.5228436
v -0 0.7035878 2.5000875
v 0.0052526854 0.69339126 2.4777398
v -0 0.7917578 2.4520113
v 0.0052526854 0.77981824 2.429712
v -0 0.9049101 2.377883
v 0.0052526854 0.8923243 2.3545773
v -0 1.0007143 2.3019316
v 0.0052526854 0.9877961 2.278325
v -0 1.0596566 2.2475219
v 0.005252609 1.0640038 2.20664
v -0 1.1113017 2.1949344
v -0 1.1462522 2.1558454
v 0.005252609 1.0640038 2.20664
v 0.0052526854 0.96474713 2.2420957
v 0.0052526854 0.9877961 2.278325
v 0.0052526854 0.85898024 2.292145
v 0.0052526854 0.8923243 2.3545773
v 0.0052526854 0.74041927 2.3555787
v 0.0052526854 0.77981824 2.429712
v 0.0052526854 0.6519615 2.3980298
v 0.0052526854 0.69339126 2.4777398
v 0.0052527618 0.5611664 2.43522
v 0.0052527618 0.59694594 2.5228436
v 0.0052527618 0.4261636 2.4809427
v 0.0052527618 0.45460638 2.5761652
v 0.0052527618 0.3045382 2.5148978
v 0.0052527618 0.32330793 2.6118057
v 0.0052527618 0.45460638 2.5761652
v 0.0052527618 0.4261636 2.4809427
v 0.0052527618 0.19316661 2.6334403
v 0.0052527618 0.1717469 2.5318637
v 0.005252838 0.12788463 2.6399994
v 0.005252838 0.11360158 2.52496
v 0.005252838 -0.02421875 2.5509543
v 0.005252838 0.07693275 2.5115128
v 0.005252838 0.11360158 2.52496
v -0 0.112736054 2.4975524
v 0.0052527618 0.1717469 2.5318637
v -0 0.16831292 2.5045002
v 0.0052527618 0.3045382 2.5148978
v 0.0052527618 0.4261636 2.4809427
v -0 0.4178616 2.4544034
v -0 0.29857975 2.4877353
v 0.0052526854 0.74041927 2.3555787
v 0.0052526854 0.85898024 2.292145
v -0 0.8453993 2.2678561
v -0 0.72780454 2.3308008
v 0.0052526854 0.6519615 2.3980298
v -0 0.6406706 2.3726165
v 0.0052527618 0.5611664 2.43522
v -0 0.55123425 2.40925
v 0.0052527618 0.4261636 2.4809427
v -0 0.4178616 2.4544034
v -0 1.1462522 2.1558454
v -0 1.0958347 2.1684415
v 0.005252609 1.0640038 2.20664
v -0 1.0241357 2.1906896
v 0.0052526854 0.96474713 2.2420957
v -0 0.9497315 2.2181947
v 0.005252838 0.07693275 2.5115128
v -0 0.16699378 2.6628947
v -0.0052527618 0.12788463 2.6399994
v -0.0052527618 0.19316661 2.6334403
v -0 0.19841266 2.6593335
v -0 0.3274049 2.6376922
v -0.0052527618 0.32330793 2.6118057
v -0.0052527618 0.45460638 2.5761652
v -0 0.46211502 2.6009996
v -0 0.6061655 2.5462964
v -0.0052527618 0.59694594 2.5228436
v -0 0.7035878 2.5000875
v -0.0052526854 0.69339126 2.4777398
v -0.0052526854 0.77981824 2.429712
v -0 0.7917578 2.4520113
v -0.0052526854 0.8923243 2.3545773
v -0 0.9049101 2.377883
v -0.0052526854 0.9877961 2.278325
v -0 1.0007143 2.3019316
v -0 1.0596566 2.2475219
v -0.005252609 1.0640038 2.20664
v -0 1.1113017 2.1949344
v -0 1.1462522 2.1558454
v -0.005252609 1.0640038 2.20664
v -0.0052526854 0.9877961 2.278325
v -0.0052526854 0.96474713 2.2420957
v -0.0052526854 0.85898024 2.292145
v -0.0052526854 0.8923243 2.3545773
v -0.0052526854 0.74041927 2.3555787
v -0.0052526854 0.77981824 2.429712
v -0.0052526854 0.6519615 2.3980298
v -0.0052526854 0.69339126 2.4777398
v -0.0052527618 0.5611664 2.43522
v -0.0052527618 0.59694594 2.5228436
v -0.0052527618 0.4261636 2.4809427
v -0.0052527618 0.45460638 2.5761652
v -0.0052527618 0.45460638 2.5761652
v -0.0052527618 0.32330793 2.6118057
v -0.0052527618 0.3045382 2.5148978
v -0.0052527618 0.4261636 2.4809427
v -0.0052527618 0.19316661 2.6334403
v -0.0052527618 0.1717469 2.5318637
v -0.0052527618 0.12788463 2.6399994
v -0.005252838 0.11360158 2.52496
v -0.0052527618 -0.02421875 2.5509543
v -0.0052527618 0.07693275 2.5115128
v -0 0.112736054 2.4975524
v -0.005252838 0.11360158 2.52496
v -0 0.16831292 2.5045002
v -0.0052527618 0.1717469 2.5318637
v -0 0.4178616 2.4544034
v -0.0052527618 0.4261636 2.4809427
v -0.0052527618 0.3045382 2.5148978
v -0 0.29857975 2.4877353
v -0 0.8453993 2.2678561
v -0.0052526854 0.85898024 2.292145
v -0.0052526854 0.74041927 2.3555787
v -0 0.72780454 2.3308008
v -0.0052526854 0.6519615 2.3980298
v -0 0.6406706 2.3726165
v -0.0052527618 0.5611664 2.43522
v -0 0.55123425 2.40925
v -0.0052527618 0.4261636 2.4809427
v -0 0.4178616 2.4544034
v -0 1.1462522 2.1558454
v -0.005252609 1.0640038 2.20664
v -0 1.0958347 2.1684415
v -0 1.0241357 2.1906896
v -0.0052526854 0.96474713 2.2420957
v -0 0.9497315 2.2181947
v -0.0052527618 0.07693275 2.5115128
v 0.005252838 0.12788463 2.6399994
v -0.0052527618 0.12788463 2.6399994
v -0 0.16699378 2.6628947
v 0.005252838 -0.02421875 2.5509543
v -0.0052527618 -0.02421875 2.5509543
v -0 0.112736054 2.4975524
v -0.0052527618 0.07693275 2.5115128
v 0.005252838 0.07693275 2.5115128
v -0.0052527618 -0.02421875 2.5509543
v 0.005252838 -0.02421875 2.5509543
vt 0.87527055 0.26443225
vt 0.8761501 0.2641723
vt 0.8758695 0.26346034
vt 0.8740379 0.26397642
vt 0.87972546 0.26290464
vt 0.879478 0.262187
vt 0.8833884 0.2611782
vt 0.88304865 0.26050782
vt 0.8872275 0.25889027
vt 0.8868457 0.25826806
vt 0.8897775 0.2570799
vt 0.8893735 0.2564941
vt 0.8920537 0.2552627
vt 0.89160013 0.25468707
vt 0.89491224 0.2525756
vt 0.8944352 0.2519745
vt 0.8972662 0.2499238
vt 0.89677817 0.24931575
vt 0.89867586 0.24807286
vt 0.8985939 0.24688451
vt 0.8998861 0.24631082
vt 0.9006874 0.24501826
vt 0.8985939 0.24688451
vt 0.8959373 0.24839705
vt 0.89677817 0.24931575
vt 0.8931684 0.25035918
vt 0.8944352 0.2519745
vt 0.89010143 0.25276807
vt 0.89160013 0.25468707
vt 0.8877886 0.25442606
vt 0.8893735 0.2564941
vt 0.88538253 0.25594553
vt 0.8868457 0.25826806
vt 0.88175666 0.25793132
vt 0.88304865 0.26050782
vt 0.8784538 0.25951356
vt 0.879478 0.262187
vt 0.88304865 0.26050782
vt 0.88074905 0.25843984
vt 0.8758695 0.26346034
vt 0.8747462 0.26066718
vt 0.8740379 0.26397642
vt 0.8730507 0.26076254
vt 0.869245 0.26219907
vt 0.8719355 0.26056314
vt 0.8730507 0.26076254
vt 0.8728881 0.25998294
vt 0.8747462 0.26066718
vt 0.8745104 0.25990146
vt 0.8784538 0.25951356
vt 0.88074905 0.25843984
vt 0.88138604 0.25721395
vt 0.87814677 0.25876665
vt 0.89010143 0.25276807
vt 0.8931684 0.25035918
vt 0.89265835 0.24973267
vt 0.8896165 0.25212273
vt 0.8877886 0.25442606
vt 0.88733834 0.25375587
vt 0.88538253 0.25594553
vt 0.8849683 0.2552526
vt 0.88175666 0.25793132
vt 0.88138604 0.25721395
vt 0.9006874 0.24501826
vt 0.8993109 0.24563196
vt 0.8985939 0.24688451
vt 0.897375 0.2466285
vt 0.8959373 0.24839705
vt 0.89538836 0.24778874
vt 0.8719355 0.26056314
vt 0.87527055 0.26443225
vt 0.8740379 0.26397642
vt 0.8758695 0.2634603
vt 0.8761501 0.2641723
vt 0.87972546 0.26290464
vt 0.879478 0.262187
vt 0.88304865 0.26050782
vt 0.8833884 0.2611782
vt 0.8872275 0.25889027
vt 0.8868457 0.25826806
vt 0.8897775 0.2570799
vt 0.8893735 0.2564941
vt 0.89160013 0.25468707
vt 0.8920537 0.2552627
vt 0.8944352 0.2519745
vt 0.89491224 0.2525756
vt 0.89677817 0.24931575
vt 0.8972662 0.2499238
vt 0.89867586 0.24807286
vt 0.8985939 0.24688451
vt 0.8998861 0.24631082
vt 0.9006874 0.24501826
vt 0.8985939 0.24688451
vt 0.89677817 0.24931575
vt 0.8959373 0.24839705
vt 0.8931684 0.25035918
vt 0.8944352 0.2519745
vt 0.89010143 0.25276807
vt 0.89160013 0.25468707
vt 0.8877886 0.25442606
vt 0.8893735 0.2564941
vt 0.88538253 0.25594553
vt 0.8868457 0.25826806
vt 0.88175666 0.25793132
vt 0.88304865 0.26050782
vt 0.88304865 0.26050782
vt 0.879478 0.262187
vt 0.8784538 0.25951356
vt 0.88074905 0.25843984
vt 0.8758695 0.2634603
vt 0.8747462 0.260667
vt 0.8740379 0.26397642
vt 0.8730507 0.26076254
vt 0.869245 0.26219907
vt 0.8719355 0.26056314
vt 0.8728881 0.25998294
vt 0.8730507 0.26076254
vt 0.8745104 0.25990146
vt 0.8747462 0.260667
vt 0.88138604 0.25721395
vt 0.88074905 0.25843984
vt 0.8784538 0.25951356
vt 0.87814677 0.25876665
vt 0.89265835 0.24973267
vt 0.8931684 0.25035918
vt 0.89010143 0.25276807
vt 0.8896165 0.25212273
vt 0.8877886 0.25442606
vt 0.88733834 0.25375587
vt 0.88538253 0.25594553
vt 0.8849683 0.2552526
vt 0.88175666 0.25793132
vt 0.88138604 0.25721395
vt 0.9006874 0.24501826
vt 0.8985939 0.24688451
vt 0.8993109 0.24563196
vt 0.897375 0.2466285
vt 0.8959373 0.24839705
vt 0.89538836 0.24778874
vt 0.8719355 0.26056314
vt 0.87234616 0.25276124
vt 0.87104744 0.25276124
vt 0.8716968 0.25520182
vt 0.8723462 0.24326955
vt 0.87104744 0.24326955
vt 0.87457156 0.24222605
vt 0.87392217 0.24429555
vt 0.87522095 0.24429555
vt 0.87392217 0.25014237
vt 0.87522095 0.25014237
vn 0.98101336 0.020187534 0.1928865
vn 0.98083764 0.026452992 0.19302244
vn 0.98085254 0.025972655 0.19301234
vn 0.98101336 0.020187534 0.19288652
vn 0.98047113 0.041739997 0.19218263
vn 0.9804546 0.042461094 0.19210899
vn 0.97989523 0.06140634 0.18982758
vn 0.9798869 0.06163956 0.18979523
vn 0.9789909 0.07944876 0.18778907
vn 0.97897285 0.07972395 0.18776628
vn 0.97844154 0.09367866 0.18405563
vn 0.9784434 0.09398901 0.18388772
vn 0.9791815 0.10468485 0.17390977
vn 0.9792276 0.10502842 0.17344266
vn 0.9802561 0.11556136 0.16044812
vn 0.9803187 0.116546646 0.15934935
vn 0.98077995 0.12660365 0.1484663
vn 0.98081815 0.12800466 0.14700557
vn 0.9806161 0.13507575 0.1419388
vn 0.9801618 0.14060718 0.13968685
vn 0.9817218 0.14073421 0.12812501
vn 0.9821884 0.14007264 0.12524243
vn 1 1.4647975E-07 0
vn 1 1.5401625E-07 0
vn 1 1.5389551E-07 0
vn 1 1.5826369E-07 0
vn 1 1.5813211E-07 0
vn 1 1.5695088E-07 0
vn 1 1.5696085E-07 0
vn 1 1.5939162E-07 0
vn 1 1.593061E-07 0
vn 1 1.6190515E-07 0
vn 1 1.6189816E-07 0
vn 1 1.5912332E-07 0
vn 1 1.5905651E-07 0
vn 1 1.5890684E-07 0
vn 1 1.5897248E-07 0
vn 1 1.5905651E-07 0
vn 1 1.5912332E-07 0
vn 1 1.6317364E-07 0
vn 1 1.6336212E-07 0
vn 1 1.6361467E-07 0
vn 1 1.6338566E-07 0
vn 1 1.6267367E-07 0
vn 0.97933257 0.0696372 -0.1898906
vn 0.9808656 0.04223279 -0.19004993
vn 0.98076254 0.04459836 -0.19004185
vn 0.9822645 -0.0022093414 -0.18748719
vn 0.9821947 0.0013746843 -0.18786053
vn 0.982592 -0.037007105 -0.18205348
vn 0.9826082 -0.054784697 -0.17742482
vn 0.9826082 -0.054762255 -0.17743194
vn 0.98259026 -0.036743864 -0.18211615
vn 0.9826266 -0.083956815 -0.16551787
vn 0.98269147 -0.083340816 -0.16544406
vn 0.98268867 -0.08356018 -0.16535018
vn 0.9826266 -0.08394999 -0.16552144
vn 0.98262423 -0.07536054 -0.16961828
vn 0.98262423 -0.07536057 -0.1696183
vn 0.9826231 -0.06500011 -0.1738591
vn 0.982623 -0.064948276 -0.17387864
vn 0.9826082 -0.054784697 -0.17742482
vn 0.9826082 -0.054762255 -0.17743194
vn 0.98435414 -0.042708874 -0.17094672
vn 0.9838694 -0.04531696 -0.1730534
vn 0.98231274 -0.056503113 -0.1785192
vn 0.98267853 -0.061280992 -0.17489313
vn 0.9828944 -0.07014528 -0.17028846
vn 0.9828713 -0.07186579 -0.16970354
vn 1 1.6392455E-07 0
vn -0.98101336 0.020186303 0.19288692
vn -0.98101336 0.020186301 0.19288692
vn -0.9808524 0.025971996 0.1930125
vn -0.98083764 0.026452389 0.19302262
vn -0.98047113 0.041739985 0.19218262
vn -0.9804546 0.042461082 0.19210899
vn -0.9798869 0.06163956 0.18979523
vn -0.97989523 0.06140634 0.18982758
vn -0.9789909 0.07944876 0.18778907
vn -0.97897285 0.07972395 0.18776628
vn -0.97844154 0.09367866 0.18405563
vn -0.9784434 0.09398901 0.18388769
vn -0.9792276 0.10502842 0.17344266
vn -0.9791815 0.10468487 0.17390978
vn -0.9803186 0.11654663 0.15934935
vn -0.9802561 0.115561366 0.16044816
vn -0.98081815 0.12800467 0.14700557
vn -0.98077995 0.12660366 0.1484663
vn -0.9806161 0.13507575 0.14193878
vn -0.9801618 0.14060718 0.13968685
vn -0.9817218 0.14073421 0.12812501
vn -0.9821884 0.14007264 0.12524243
vn -1 1.4647975E-07 0
vn -1 1.5389551E-07 0
vn -1 1.5401625E-07 0
vn -1 1.5826369E-07 0
vn -1 1.5813211E-07 0
vn -1 1.5695088E-07 0
vn -1 1.5696085E-07 0
vn -1 1.593916E-07 0
vn -1 1.593061E-07 0
vn -1 1.6190515E-07 0
vn -1 1.6189816E-07 0
vn -1 1.591233E-07 0
vn -1 1.5905648E-07 0
vn -1 1.5905648E-07 0
vn -1 1.5356999E-07 0
vn -1 1.5361383E-07 0
vn -1 1.591233E-07 0
vn -1 -1.3697252E-07 1.8810006E-07
vn -1 -1.8826307E-07 2.275351E-07
vn -1 -4.4063057E-07 5.338761E-07
vn -1 -5.3441033E-07 0
vn -1 -5.4875727E-07 0
vn -0.9793323 0.06963565 -0.18989229
vn -0.9807623 0.044597477 -0.19004306
vn -0.9808655 0.04223197 -0.19005115
vn -0.9821946 0.0013745081 -0.18786097
vn -0.98226446 -0.0022094946 -0.1874876
vn -0.9826082 -0.05476225 -0.17743194
vn -0.9826082 -0.054784697 -0.17742482
vn -0.982592 -0.037007105 -0.18205348
vn -0.98259026 -0.036743864 -0.18211615
vn -0.98268867 -0.08356018 -0.16535018
vn -0.98269147 -0.08334081 -0.16544408
vn -0.9826266 -0.0839568 -0.1655179
vn -0.9826266 -0.083950005 -0.16552144
vn -0.98262423 -0.07536054 -0.16961828
vn -0.98262423 -0.07536057 -0.1696183
vn -0.9826231 -0.06500011 -0.1738591
vn -0.982623 -0.06494827 -0.17387864
vn -0.9826082 -0.054784697 -0.17742482
vn -0.9826082 -0.05476225 -0.17743194
vn -0.98435414 -0.042708874 -0.17094672
vn -0.98231274 -0.056503113 -0.1785192
vn -0.9838694 -0.04531696 -0.1730534
vn -0.98267853 -0.061280992 -0.17489313
vn -0.9828944 -0.07014528 -0.17028846
vn -0.9828713 -0.07186579 -0.16970354
vn -1 -1.0638362E-06 -2.7283081E-06
vn -0 -0.50521713 0.8629923
vn -0 -0.50521713 0.8629923
vn -0 -0.50521773 0.8629919
vn -0 -0.5052165 0.86299264
vn -0 -0.5052165 0.86299264
vn -0 -0.363284 -0.93167853
vn -0 -0.36328438 -0.9316783
vn -0 -0.3632844 -0.9316783
vn -0 -0.3632848 -0.9316781
vn -0 -0.36328483 -0.9316781
g SeparateMesh_Avatar_Male_Size02_HugoVlad_Model_HugoVlad_Weapon_4_LOD1_0
f 3/3/3 2/2/2 1/1/1
f 4/4/4 3/3/3 1/1/1
f 5/5/5 2/2/2 3/3/3
f 6/6/6 5/5/5 3/3/3
f 8/8/8 7/7/7 5/5/5
f 6/6/6 8/8/8 5/5/5
f 9/9/9 7/7/7 8/8/8
f 10/10/10 9/9/9 8/8/8
f 11/11/11 9/9/9 10/10/10
f 12/12/12 11/11/11 10/10/10
f 14/14/14 13/13/13 11/11/11
f 12/12/12 14/14/14 11/11/11
f 16/16/16 15/15/15 13/13/13
f 14/14/14 16/16/16 13/13/13
f 18/18/18 17/17/17 15/15/15
f 16/16/16 18/18/18 15/15/15
f 19/19/19 17/17/17 18/18/18
f 20/20/20 19/19/19 18/18/18
f 20/20/20 21/21/21 19/19/19
f 22/22/22 21/21/21 20/20/20
f 25/25/25 24/24/24 23/23/23
f 26/26/26 24/24/24 25/25/25
f 27/27/27 26/26/26 25/25/25
f 28/28/28 26/26/26 27/27/27
f 29/29/29 28/28/28 27/27/27
f 30/30/30 28/28/28 29/29/29
f 31/31/31 30/30/30 29/29/29
f 32/32/32 30/30/30 31/31/31
f 33/33/33 32/32/32 31/31/31
f 34/34/34 32/32/32 33/33/33
f 35/35/35 34/34/34 33/33/33
f 38/38/38 37/37/37 36/36/36
f 39/39/39 38/38/38 36/36/36
f 36/36/36 37/37/37 40/40/40
f 41/41/41 36/36/36 40/40/40
f 41/41/41 40/40/40 42/42/42
f 43/43/43 41/41/41 42/42/42
f 43/43/43 42/42/42 44/44/44
f 47/47/47 46/46/46 45/45/45
f 49/49/49 48/48/48 46/46/46
f 47/47/47 49/49/49 46/46/46
f 52/52/52 51/51/51 50/50/50
f 53/53/53 52/52/52 50/50/50
f 49/49/49 53/53/53 50/50/50
f 48/48/48 49/49/49 50/50/50
f 56/56/56 55/55/55 54/54/54
f 57/57/57 56/56/56 54/54/54
f 57/57/57 54/54/54 58/58/58
f 59/59/59 57/57/57 58/58/58
f 59/59/59 58/58/58 60/60/60
f 61/61/61 59/59/59 60/60/60
f 61/61/61 60/60/60 62/62/62
f 63/63/63 61/61/61 62/62/62
f 66/66/66 65/65/65 64/64/64
f 66/66/66 67/67/67 65/65/65
f 67/67/67 66/66/66 68/68/68
f 69/69/69 67/67/67 68/68/68
f 69/69/69 68/68/68 55/55/55
f 56/56/56 69/69/69 55/55/55
f 70/70/70 43/43/43 44/44/44
f 73/73/73 72/72/72 71/71/71
f 74/74/74 73/73/73 71/71/71
f 73/73/73 74/74/74 75/75/75
f 76/76/76 73/73/73 75/75/75
f 77/77/77 76/76/76 75/75/75
f 78/78/78 77/77/77 75/75/75
f 77/77/77 78/78/78 79/79/79
f 80/80/80 77/77/77 79/79/79
f 80/80/80 79/79/79 81/81/81
f 82/82/82 80/80/80 81/81/81
f 83/83/83 82/82/82 81/81/81
f 84/84/84 83/83/83 81/81/81
f 85/85/85 83/83/83 84/84/84
f 86/86/86 85/85/85 84/84/84
f 87/87/87 85/85/85 86/86/86
f 88/88/88 87/87/87 86/86/86
f 87/87/87 88/88/88 89/89/89
f 90/90/90 87/87/87 89/89/89
f 91/91/91 90/90/90 89/89/89
f 91/91/91 92/92/92 90/90/90
f 95/95/95 94/94/94 93/93/93
f 94/94/94 95/95/95 96/96/96
f 97/97/97 94/94/94 96/96/96
f 97/97/97 96/96/96 98/98/98
f 99/99/99 97/97/97 98/98/98
f 99/99/99 98/98/98 100/100/100
f 101/101/101 99/99/99 100/100/100
f 101/101/101 100/100/100 102/102/102
f 103/103/103 101/101/101 102/102/102
f 103/103/103 102/102/102 104/104/104
f 105/105/105 103/103/103 104/104/104
f 108/108/108 107/107/107 106/106/106
f 109/109/109 108/108/108 106/106/106
f 110/110/110 107/107/107 108/108/108
f 111/111/111 110/110/110 108/108/108
f 112/112/112 110/110/110 111/111/111
f 113/113/113 112/112/112 111/111/111
f 112/112/112 113/113/113 114/114/114
f 117/117/117 116/116/116 115/115/115
f 118/118/118 116/116/116 117/117/117
f 119/119/119 118/118/118 117/117/117
f 122/122/122 121/121/121 120/120/120
f 123/123/123 122/122/122 120/120/120
f 122/122/122 123/123/123 118/118/118
f 119/119/119 122/122/122 118/118/118
f 126/126/126 125/125/125 124/124/124
f 127/127/127 126/126/126 124/124/124
f 128/128/128 126/126/126 127/127/127
f 129/129/129 128/128/128 127/127/127
f 130/130/130 128/128/128 129/129/129
f 131/131/131 130/130/130 129/129/129
f 132/132/132 130/130/130 131/131/131
f 133/133/133 132/132/132 131/131/131
f 136/136/136 135/135/135 134/134/134
f 137/137/137 135/135/135 136/136/136
f 138/138/138 135/135/135 137/137/137
f 139/139/139 138/138/138 137/137/137
f 125/125/125 138/138/138 139/139/139
f 124/124/124 125/125/125 139/139/139
f 113/113/113 140/140/140 114/114/114
f 143/143/143 142/142/142 141/141/141
f 145/145/145 144/144/144 141/141/141
f 142/142/142 145/145/145 141/141/141
f 148/148/148 147/147/147 146/146/146
f 150/150/150 149/149/149 147/147/147
f 148/148/148 150/150/150 147/147/147
