g SeparateMesh_Avatar_Male_Size02_HugoVlad_Model_HugoVlad_Weapon_3_LOD2
v -0.003010025 -0.07674728 3.052569
v -0.0030099486 -0.04937685 3.0267215
v -0.0030101775 -0.049417555 3.0632591
v -0.0030101775 -0.022068318 3.052647
v -0.003010025 -0.012844092 3.0267706
v -0.0030097198 -0.02200587 3.000888
v -0.0030095673 -0.04933625 2.9901965
v -0.0030097198 -0.07668383 3.0008097
v -0.003010025 -0.0859078 3.0266857
v -0.0030101775 -0.049417555 3.0632591
v 0.0030085754 -0.049417343 3.0632598
v 0.0030085754 -0.07674694 3.0525692
v -0.003010025 -0.07674728 3.052569
v -0.0030101775 -0.022068318 3.052647
v 0.0030086518 -0.022068163 3.0526478
v -0.003010025 -0.012844092 3.0267706
v 0.0030088807 -0.012843881 3.026771
v 0.0030086518 -0.022068163 3.0526478
v -0.0030101775 -0.022068318 3.052647
v -0.0030097198 -0.02200587 3.000888
v 0.0030090332 -0.02200568 3.0008886
v -0.0030095673 -0.04933625 2.9901965
v 0.0030091095 -0.04933625 2.9901972
v -0.0030097198 -0.07668383 3.0008097
v 0.0030093384 -0.076683864 3.0008101
v -0.003010025 -0.0859078 3.0266857
v 0.0030089568 -0.0859077 3.0266864
v 0.0030085754 -0.07674694 3.0525692
v 0.0030085754 -0.049417343 3.0632598
v 0.0030091095 -0.049374517 3.0267355
v 0.0030086518 -0.022068163 3.0526478
v 0.0030088807 -0.012843881 3.026771
v 0.0030090332 -0.02200568 3.0008886
v 0.0030091095 -0.04933625 2.9901972
v 0.0030093384 -0.076683864 3.0008101
v 0.0030089568 -0.0859077 3.0266864
v -0.00011917114 -0.08038191 3.0449355
v -0.001519165 -0.049815092 3.0496907
v -4.295349E-05 -0.06710862 3.06164
v 2.9754638E-05 -0.03026265 3.0647933
v 0.00028251647 -0.043219864 3.069223
v -0.0013409423 -0.044558268 3.0569725
v -4.295349E-05 -0.06710862 3.06164
v 0.001280899 -0.049815092 3.0496907
v -0.00011917114 -0.08038191 3.0449355
v 2.9754638E-05 -0.03026265 3.0647933
v 0.001302185 -0.044533763 3.0570297
v 0.00028251647 -0.043219864 3.069223
v -0.001519165 -0.049815092 3.0496907
v -0.00011917114 -0.08038191 3.0449355
v 0.001280899 -0.049815092 3.0496907
v -0.0013409423 -0.044558268 3.0569725
v 0.001302185 -0.044533763 3.0570297
v 2.9754638E-05 -0.03026265 3.0647933
v -0.001519165 -0.049815092 3.0496907
v 0.001280899 -0.049815092 3.0496907
v -0.00011917114 -0.018100433 3.0444655
v -0.001519165 -0.029265594 3.0156164
v -4.295349E-05 -0.010270461 3.0246184
v 2.9754638E-05 -0.025962677 2.991132
v 0.00028251647 -0.01564766 3.0001385
v -0.0013409423 -0.025587806 3.0074227
v -4.295349E-05 -0.010270461 3.0246184
v 0.001280899 -0.029265594 3.0156164
v -0.00011917114 -0.018100433 3.0444655
v 2.9754638E-05 -0.025962677 2.991132
v 0.001302185 -0.02555069 3.007373
v 0.00028251647 -0.01564766 3.0001385
v -0.001519165 -0.029265594 3.0156164
v -0.00011917114 -0.018100433 3.0444655
v 0.001280899 -0.029265594 3.0156164
v -0.0013409423 -0.025587806 3.0074227
v 0.001302185 -0.02555069 3.007373
v 2.9754638E-05 -0.025962677 2.991132
v -0.001519165 -0.029265594 3.0156164
v 0.001280899 -0.029265594 3.0156164
v -0.00011917114 -0.049648285 2.9907634
v -0.001519165 -0.069049835 3.014857
v -4.295349E-05 -0.07075138 2.9939058
v 2.9754638E-05 -0.09190506 3.0242388
v 0.00028251647 -0.08926277 3.0108025
v -0.0013409423 -0.07798431 3.015769
v -4.295349E-05 -0.07075138 2.9939058
v 0.001280899 -0.069049835 3.014857
v -0.00011917114 -0.049648285 2.9907634
v 2.9754638E-05 -0.09190506 3.0242388
v 0.001302185 -0.07804603 3.0157616
v 0.00028251647 -0.08926277 3.0108025
v -0.0013409423 -0.07798431 3.015769
v 0.001302185 -0.07804603 3.0157616
v 2.9754638E-05 -0.09190506 3.0242388
v -0.00011917114 -0.049648285 2.9907634
v 0.001280899 -0.069049835 3.014857
v -0.001519165 -0.069049835 3.014857
v -0.001519165 -0.069049835 3.014857
v 0.001280899 -0.069049835 3.014857
vt 0.98828363 0.3275817
vt 0.89519393 0.2990716
vt 0.9371902 0.38370773
vt 0.8616208 0.39047286
vt 0.81056005 0.34106869
vt 0.80210567 0.2705639
vt 0.8531972 0.21443659
vt 0.92876697 0.20767006
vt 0.97983265 0.25707552
vt 0.34760755 0.0883381
vt 0.34760755 0.08985611
vt 0.3562906 0.089856155
vt 0.3562906 0.08833813
vt 0.33871606 0.0883382
vt 0.33871618 0.08985624
vt 0.3976403 0.08833811
vt 0.3976403 0.08985612
vt 0.40315124 0.08985613
vt 0.40315115 0.08833826
vt 0.38965103 0.088338055
vt 0.38965103 0.08985605
vt 0.3809846 0.0883381
vt 0.3809846 0.08985611
vt 0.37231237 0.08833801
vt 0.37231237 0.08985606
vt 0.36430007 0.0883381
vt 0.36430007 0.08985611
vt 0.79547626 0.13679133
vt 0.74467933 0.19396321
vt 0.70133406 0.10919774
vt 0.6686213 0.20170186
vt 0.6165707 0.1525438
vt 0.6071931 0.08161007
vt 0.6579882 0.024433397
vt 0.73404866 0.016696434
vt 0.7861019 0.065852664
vt 0.97050834 0.37130284
vt 0.95192164 0.42761844
vt 0.9873717 0.40865314
vt 0.9608159 0.4744926
vt 0.97968423 0.45615727
vt 0.9595305 0.4432658
vt 0.8387586 0.44431895
vt 0.8788192 0.44177914
vt 0.83281493 0.40378213
vt 0.8967094 0.48546028
vt 0.8808468 0.4585228
vt 0.87090623 0.4800626
vt 0.012363587 0.436145
vt 0.00506603 0.36545023
vt 0.005955491 0.43651512
vt 0.022366531 0.3782258
vt 0.016319 0.3786222
vt 0.021009259 0.4160446
vt 0.021878056 0.3572355
vt 0.015465312 0.35750464
vt 0.97050834 0.37130284
vt 0.9518781 0.4275952
vt 0.9873717 0.40865314
vt 0.9608159 0.4744926
vt 0.97968423 0.45615727
vt 0.95953053 0.44326591
vt 0.8387586 0.44431895
vt 0.87885463 0.4414308
vt 0.83281493 0.40378213
vt 0.8967094 0.48546028
vt 0.88084686 0.45852274
vt 0.87090623 0.4800626
vt 0.012358002 0.43604803
vt 0.00506603 0.36545023
vt 0.005949881 0.43641818
vt 0.022366531 0.3782258
vt 0.016319 0.3786222
vt 0.021009259 0.4160446
vt 0.021878056 0.3572355
vt 0.015465312 0.35750464
vt 0.97050834 0.37130284
vt 0.9518287 0.42767084
vt 0.9873717 0.40865314
vt 0.9608159 0.4744926
vt 0.97968423 0.45615727
vt 0.95953065 0.44326562
vt 0.8387586 0.44431895
vt 0.8789227 0.4416128
vt 0.83230853 0.40457255
vt 0.8967094 0.48546028
vt 0.88084674 0.45852274
vt 0.87090623 0.4800626
vt 0.022366531 0.3782258
vt 0.016319 0.3786222
vt 0.021009259 0.4160446
vt 0.0050703394 0.36552644
vt 0.0059606363 0.43660358
vt 0.012368672 0.4362335
vt 0.021878056 0.3572355
vt 0.015465312 0.35750464
vn -1 -2.693498E-07 -4.1247345E-06
vn -1 -6.189002E-07 -7.6155034E-06
vn -1 -2.159071E-06 -6.97628E-06
vn -1 -1.820625E-06 -6.485343E-06
vn -1 -2.2733643E-06 -8.023833E-06
vn -1 -1.9255797E-06 -9.677242E-06
vn -1 -3.2419098E-07 -9.302121E-06
vn -1 1.6580381E-06 -1.0074336E-05
vn -1 2.3717937E-06 -6.0815555E-06
vn -9.8324075E-05 -0.0013740438 0.99999905
vn -9.8325756E-05 -0.0013577739 0.99999905
vn -2.4314886E-05 -0.7185608 0.6954642
vn -2.4312007E-05 -0.71858704 0.6954371
vn -0.00011027633 0.7168512 0.6972262
vn -0.00011027955 0.71681905 0.6972592
vn -3.6607216E-05 0.9999994 0.0010880467
vn -3.6611604E-05 0.9999994 0.0011279681
vn -0.00011027955 0.71681905 0.6972592
vn -0.00011027633 0.7168512 0.6972262
vn 5.0007344E-05 0.7185502 -0.6954751
vn 5.0002483E-05 0.71858275 -0.6954415
vn 9.7766686E-05 0.0013512752 -0.99999917
vn 9.776669E-05 0.0013498695 -0.99999917
vn 7.322063E-05 -0.7168434 -0.6972342
vn 7.321821E-05 -0.7168695 -0.6972074
vn 2.6198511E-05 -0.9999994 -0.0011475071
vn 2.6196769E-05 -0.9999994 -0.0011086754
vn 1 -5.1004595E-06 1.4368799E-05
vn 1 -9.2365315E-07 1.3951791E-05
vn 1 1.8392955E-06 8.9012665E-06
vn 1 5.304906E-06 1.2213511E-05
vn 1 6.927275E-06 7.3370425E-06
vn 1 4.985026E-06 2.1077208E-06
vn 1 5.969323E-06 0
vn 1 2.0424673E-06 7.274773E-06
vn 1 -4.710238E-06 1.4584806E-05
vn -0.9975091 -0.05294053 0.046614397
vn -0.99739814 -0.047935326 0.053844497
vn -0.9967063 -0.047012188 0.06607972
vn -0.99137855 0.024652917 0.12868908
vn -0.9913298 -0.00019132934 0.13139696
vn -0.9939287 -0.020077871 0.10817943
vn 0.99769753 -0.04953095 0.046328187
vn 0.9980223 -0.052038033 0.035262078
vn 0.9980223 -0.05135248 0.036254257
vn 0.9958587 0.04619785 0.07830264
vn 0.99743587 -0.021425663 0.06828389
vn 0.9965564 0.0057613174 0.08271825
vn -0 0.15371998 -0.9881144
vn -0 0.15371999 -0.9881144
vn -0 0.15371998 -0.9881144
vn 0.008421287 0.66946435 -0.7427964
vn 0.008642936 0.6633911 -0.7482229
vn 0.014512968 0.47882387 -0.877791
vn 0.0024784813 0.8112191 -0.584737
vn 0.0024784815 0.8112191 -0.58473706
vn -0.9975091 0.06683894 0.02254111
vn -0.99739814 0.07059812 0.014590736
vn -0.9967063 0.08073218 0.007674256
vn -0.99137866 0.099119045 -0.08569546
vn -0.99133 0.1138868 -0.06553234
vn -0.9939287 0.10372367 -0.036702026
vn 0.99769753 0.06488627 0.019731175
vn 0.9980223 0.05655686 0.027434602
vn 0.9980223 0.05707284 0.026345853
vn 0.9958587 0.044711683 -0.079160355
vn 0.997436 0.069847174 -0.01558738
vn 0.9965565 0.06875416 -0.04634788
vn -0 -0.9325927 0.3609304
vn -0 -0.9325927 0.36093047
vn -0 -0.9325927 0.3609304
vn 0.008407294 -0.9780147 -0.2083663
vn 0.00862865 -0.9796769 -0.20039608
vn 0.014492858 -0.99960154 0.024221726
vn 0.0024706856 -0.9120128 -0.4101544
vn 0.0024706856 -0.9120127 -0.41015437
vn -0.9975091 -0.013897656 -0.06915505
vn -0.99739814 -0.022664052 -0.068435274
vn -0.9967063 -0.03372009 -0.07375316
vn -0.9913788 -0.123772845 -0.04299219
vn -0.99133015 -0.1136951 -0.065862186
vn -0.9939288 -0.083646566 -0.07147552
vn 0.99769753 -0.015355276 -0.06605889
vn 0.9980223 -0.004519459 -0.062697195
vn 0.9980223 -0.005719675 -0.06259972
vn 0.9958587 -0.09091082 0.0008582336
vn 0.997436 -0.048422735 -0.052695513
vn 0.9965565 -0.0745154 -0.03636915
vn 0.008429366 0.30855614 0.95116884
vn 0.008651314 0.31629592 0.9486211
vn 0.01452602 0.52077216 0.85357213
vn -0 0.77886766 0.6271884
vn -0 0.77886766 0.62718827
vn -0 0.77886766 0.6271884
vn 0.0024818208 0.100812815 0.9949024
vn 0.0024818205 0.10081281 0.9949024
g SeparateMesh_Avatar_Male_Size02_HugoVlad_Model_HugoVlad_Weapon_3_LOD2_0
f 3/3/3 2/2/2 1/1/1
f 4/4/4 2/2/2 3/3/3
f 5/5/5 2/2/2 4/4/4
f 6/6/6 2/2/2 5/5/5
f 7/7/7 2/2/2 6/6/6
f 8/8/8 2/2/2 7/7/7
f 9/9/9 2/2/2 8/8/8
f 1/1/1 2/2/2 9/9/9
f 12/12/12 11/11/11 10/10/10
f 13/13/13 12/12/12 10/10/10
f 11/11/11 15/15/15 14/14/14
f 10/10/10 11/11/11 14/14/14
f 18/18/18 17/17/17 16/16/16
f 19/19/19 18/18/18 16/16/16
f 17/17/17 21/21/21 20/20/20
f 16/16/16 17/17/17 20/20/20
f 21/21/21 23/23/23 22/22/22
f 20/20/20 21/21/21 22/22/22
f 23/23/23 25/25/25 24/24/24
f 22/22/22 23/23/23 24/24/24
f 25/25/25 27/27/27 26/26/26
f 24/24/24 25/25/25 26/26/26
f 27/27/27 12/12/12 13/13/13
f 26/26/26 27/27/27 13/13/13
f 30/30/30 29/29/29 28/28/28
f 30/30/30 31/31/31 29/29/29
f 30/30/30 32/32/32 31/31/31
f 30/30/30 33/33/33 32/32/32
f 30/30/30 34/34/34 33/33/33
f 30/30/30 35/35/35 34/34/34
f 30/30/30 36/36/36 35/35/35
f 30/30/30 28/28/28 36/36/36
f 39/39/39 38/38/38 37/37/37
f 42/42/42 41/41/41 40/40/40
f 42/42/42 39/39/39 41/41/41
f 42/42/42 38/38/38 39/39/39
f 45/45/45 44/44/44 43/43/43
f 48/48/48 47/47/47 46/46/46
f 48/48/48 43/43/43 47/47/47
f 43/43/43 44/44/44 47/47/47
f 51/51/51 50/50/50 49/49/49
f 54/54/54 53/53/53 52/52/52
f 55/55/55 52/52/52 53/53/53
f 56/56/56 55/55/55 53/53/53
f 59/59/59 58/58/58 57/57/57
f 62/62/62 61/61/61 60/60/60
f 62/62/62 59/59/59 61/61/61
f 62/62/62 58/58/58 59/59/59
f 65/65/65 64/64/64 63/63/63
f 68/68/68 67/67/67 66/66/66
f 68/68/68 63/63/63 67/67/67
f 63/63/63 64/64/64 67/67/67
f 71/71/71 70/70/70 69/69/69
f 74/74/74 73/73/73 72/72/72
f 75/75/75 72/72/72 73/73/73
f 76/76/76 75/75/75 73/73/73
f 79/79/79 78/78/78 77/77/77
f 82/82/82 81/81/81 80/80/80
f 82/82/82 79/79/79 81/81/81
f 82/82/82 78/78/78 79/79/79
f 85/85/85 84/84/84 83/83/83
f 88/88/88 87/87/87 86/86/86
f 88/88/88 83/83/83 87/87/87
f 83/83/83 84/84/84 87/87/87
f 91/91/91 90/90/90 89/89/89
f 94/94/94 93/93/93 92/92/92
f 95/95/95 89/89/89 90/90/90
f 96/96/96 95/95/95 90/90/90
