g SeparateMesh_NPC_A_Model_A_Headwear
v -0.048748568 -0.052442044 1.525731
v -0.0511693 -0.07539684 1.5089365
v -0.05400777 -0.06542549 1.499967
v -0.0511693 -0.07539684 1.5089365
v -0.04280857 -0.08774964 1.4845985
v -0.05400777 -0.06542549 1.499967
v -0.037549343 -0.074766494 1.510362
v -0.0511693 -0.07539684 1.5089365
v -0.048748568 -0.052442044 1.525731
v -0.037549343 -0.074766494 1.510362
v -0.04280857 -0.08774964 1.4845985
v -0.0511693 -0.07539684 1.5089365
v -0.05400777 -0.06542549 1.499967
v -0.037549343 -0.074766494 1.510362
v -0.048748568 -0.052442044 1.525731
v -0.04280857 -0.08774964 1.4845985
v 0.04134693 -0.04796446 1.5256528
v 0.05027295 -0.0616917 1.5013248
v 0.048531845 -0.071331196 1.5109152
v 0.048531845 -0.071331196 1.5109152
v 0.05027295 -0.0616917 1.5013248
v 0.043854225 -0.08661334 1.4872634
v 0.034928203 -0.07288595 1.5115919
v 0.04134693 -0.04796446 1.5256528
v 0.048531845 -0.071331196 1.5109152
v 0.034928203 -0.07288595 1.5115919
v 0.048531845 -0.071331196 1.5109152
v 0.043854225 -0.08661334 1.4872634
v 0.05027295 -0.0616917 1.5013248
v 0.04134693 -0.04796446 1.5256528
v 0.034928203 -0.07288595 1.5115919
v 0.043854225 -0.08661334 1.4872634
v -0.058956485 -0.06494524 1.4855031
v -0.054990616 -0.054269057 1.5045629
v -0.042865466 -0.05933028 1.5112704
v -0.044682574 -0.072137885 1.4930928
v -0.029077688 -0.06347511 1.5162222
v -0.0302928 -0.0765198 1.4984906
v -0.014632418 -0.06580495 1.5192801
v -0.014632022 -0.07876556 1.5018103
v 0.0004961681 -0.06633314 1.5201612
v 0.0006889534 -0.07890139 1.5026307
v 0.014918021 -0.06537048 1.518979
v 0.015488438 -0.07802963 1.5014559
v 0.02770409 -0.06286388 1.5158888
v 0.030001406 -0.075545125 1.4982183
v 0.039075058 -0.05830312 1.5109098
v 0.042069044 -0.07075052 1.493344
v 0.0483815 -0.051043432 1.5029032
v 0.05430501 -0.06165374 1.4855195
v 0.037135683 -0.0772882 1.4997319
v 0.038550213 -0.0781914 1.5009314
v 0.048336115 -0.071295165 1.4935745
v 0.046815317 -0.07046329 1.4924552
v 0.039416797 -0.05678825 1.5092283
v 0.04092615 -0.057628427 1.510356
v 0.03313834 -0.06367337 1.5168077
v 0.03172574 -0.06276869 1.515607
v 0.05635827 -0.063619986 1.485168
v 0.05479163 -0.06271501 1.4841809
v 0.04631361 -0.05054357 1.5022455
v 0.0478203 -0.051413845 1.5031952
v 0.063044615 -0.05534559 1.4763501
v 0.06147024 -0.054355647 1.4754497
v 0.050978795 -0.045561373 1.4967412
v 0.052553166 -0.04655132 1.4976416
v 0.038550213 -0.0781914 1.5009314
v 0.03313834 -0.06367337 1.5168077
v 0.04092615 -0.057628427 1.510356
v 0.048336115 -0.071295165 1.4935745
v 0.0478203 -0.051413845 1.5031952
v 0.05635827 -0.063619986 1.485168
v 0.052553166 -0.04655132 1.4976416
v 0.063044615 -0.05534559 1.4763501
v 0.046815317 -0.07046329 1.4924552
v 0.039416797 -0.05678825 1.5092283
v 0.03172574 -0.06276869 1.515607
v 0.037135683 -0.0772882 1.4997319
v 0.05479163 -0.06271501 1.4841809
v 0.04631361 -0.05054357 1.5022455
v 0.06147024 -0.054355647 1.4754497
v 0.050978795 -0.045561373 1.4967412
v 0.0255059 -0.08463539 1.5071507
v 0.02152101 -0.06972321 1.5226307
v 0.022850856 -0.07069491 1.5238786
v 0.026835741 -0.08560678 1.5083987
v 0.022850856 -0.07069491 1.5238786
v 0.026835741 -0.08560678 1.5083987
v 0.0255059 -0.08463539 1.5071507
v 0.026835741 -0.08560678 1.5083987
v 0.0255059 -0.08463539 1.5071507
v 0.02152101 -0.06972321 1.5226307
v 0.02152101 -0.06972321 1.5226307
v 0.022850856 -0.07069491 1.5238786
v -0.070895836 -0.055437014 1.47627
v -0.05992033 -0.066154055 1.486339
v -0.058421094 -0.06535303 1.4854399
v -0.06961745 -0.0548381 1.4757425
v -0.059653606 -0.0504202 1.5005051
v -0.054796457 -0.0540189 1.5046895
v -0.056394365 -0.05498037 1.5055443
v -0.061055172 -0.051076796 1.5010831
v -0.049783487 -0.0736038 1.4937469
v -0.04843337 -0.0724334 1.4927218
v -0.045889318 -0.05992742 1.5113907
v -0.047239542 -0.061097678 1.5124155
v -0.038168065 -0.08015187 1.5006052
v -0.036995105 -0.078855865 1.4995118
v -0.03548976 -0.065431274 1.5172585
v -0.03667064 -0.06672193 1.5183495
v -0.03667064 -0.06672193 1.5183495
v -0.038168065 -0.08015187 1.5006052
v -0.049783487 -0.0736038 1.4937469
v -0.047239542 -0.061097678 1.5124155
v -0.023628918 -0.07082125 1.5226895
v -0.024858763 -0.084154055 1.5052071
v -0.025937565 -0.08551308 1.506329
v -0.02470772 -0.07218027 1.5238113
v -0.024858763 -0.084154055 1.5052071
v -0.025937565 -0.08551308 1.506329
v -0.02470772 -0.07218027 1.5238113
v -0.023628918 -0.07082125 1.5226895
v -0.05992033 -0.066154055 1.486339
v -0.056394365 -0.05498037 1.5055443
v -0.070895836 -0.055437014 1.47627
v -0.061055172 -0.051076796 1.5010831
v -0.058421094 -0.06535303 1.4854399
v -0.054796457 -0.0540189 1.5046895
v -0.059653606 -0.0504202 1.5005051
v -0.06961745 -0.0548381 1.4757425
v -0.04843337 -0.0724334 1.4927218
v -0.045889318 -0.05992742 1.5113907
v -0.036995105 -0.078855865 1.4995118
v -0.03548976 -0.065431274 1.5172585
v -0.023628918 -0.07082125 1.5226895
v -0.024858763 -0.084154055 1.5052071
v -0.02470772 -0.07218027 1.5238113
v -0.025937565 -0.08551308 1.506329
vt 0.029667765 0.09432794
vt 0.029667765 0.053656247
vt 0.049203485 0.053656247
vt 0.029667765 0.050427172
vt 0.029667765 0.009755494
vt 0.049203485 0.050427172
vt 0.0069428384 0.053656247
vt 0.026478559 0.053656247
vt 0.026478559 0.09432794
vt 0.0069428384 0.050427172
vt 0.026478559 0.009755494
vt 0.026478559 0.050427172
vt 0.0468773 0.028172027
vt 0.06532584 0.028172027
vt 0.05610157 0.051469304
vt 0.05610157 0.0048747715
vt 0.029667765 0.09432794
vt 0.049203485 0.053656247
vt 0.029667765 0.053656247
vt 0.029667765 0.050427172
vt 0.049203485 0.050427172
vt 0.029667765 0.009755494
vt 0.0069428384 0.053656247
vt 0.026478559 0.09432794
vt 0.026478559 0.053656247
vt 0.0069428384 0.050427172
vt 0.026478559 0.050427172
vt 0.026478559 0.009755494
vt 0.0468773 0.028172027
vt 0.05610157 0.051469304
vt 0.06532584 0.028172027
vt 0.05610157 0.0048747715
vt 0.06944753 0.0053522196
vt 0.07634623 0.029677674
vt 0.094001405 0.029677674
vt 0.08964387 0.0053522196
vt 0.11127169 0.029677674
vt 0.10815851 0.0053522196
vt 0.12780154 0.029677674
vt 0.12669504 0.0053522196
vt 0.14459969 0.029677674
vt 0.14475147 0.0053522196
vt 0.16041012 0.029677674
vt 0.16194549 0.0053522196
vt 0.17509301 0.029677674
vt 0.17915455 0.0053522196
vt 0.1898478 0.029677674
vt 0.19514915 0.0053522196
vt 0.20378207 0.029677674
vt 0.21173061 0.0053522196
vt 0.16345406 0.035516642
vt 0.16345406 0.03797184
vt 0.17617537 0.03797184
vt 0.17617537 0.035516642
vt 0.17754675 0.06377334
vt 0.17754675 0.061200146
vt 0.16590007 0.061200146
vt 0.16590007 0.06377334
vt 0.18876494 0.03797184
vt 0.18876494 0.035516642
vt 0.1897309 0.06377334
vt 0.1897309 0.061200146
vt 0.20154591 0.03797184
vt 0.20154591 0.035516642
vt 0.19970237 0.06377334
vt 0.19970237 0.061200146
vt 0.074420765 0.06914689
vt 0.07372789 0.09270388
vt 0.08794674 0.09270388
vt 0.08968021 0.06914689
vt 0.10216841 0.09270388
vt 0.10509364 0.06914689
vt 0.11564341 0.09270388
vt 0.12386055 0.06914689
vt 0.17850904 0.042006064
vt 0.17915593 0.05722511
vt 0.18779604 0.05722511
vt 0.18761964 0.042006064
vt 0.16953008 0.042006064
vt 0.17205884 0.05722511
vt 0.15786025 0.042006064
vt 0.16646709 0.05722511
vt 0.04955022 0.06903906
vt 0.04955022 0.09259605
vt 0.052303955 0.09259605
vt 0.052303955 0.06903906
vt 0.057206184 0.09270388
vt 0.057206184 0.06914689
vt 0.14925656 0.035516642
vt 0.14925656 0.03797184
vt 0.19786926 0.042006064
vt 0.19786926 0.05722511
vt 0.15175138 0.06377334
vt 0.15175138 0.061200146
vt 0.080439195 0.06377334
vt 0.096924886 0.06377334
vt 0.096924886 0.061200146
vt 0.080439195 0.061200146
vt 0.08320333 0.03797184
vt 0.09180437 0.03797184
vt 0.09180437 0.035516642
vt 0.08320333 0.035516642
vt 0.11016123 0.06377334
vt 0.11016123 0.061200146
vt 0.10486422 0.03797184
vt 0.10486422 0.035516642
vt 0.12374939 0.06377334
vt 0.12374939 0.061200146
vt 0.11836369 0.03797184
vt 0.11836369 0.035516642
vt 0.18513665 0.09270388
vt 0.18513665 0.06954046
vt 0.17059614 0.06954046
vt 0.17059614 0.09270388
vt 0.20434955 0.06928247
vt 0.20434955 0.09283946
vt 0.2072303 0.09283946
vt 0.2072303 0.06928247
vt 0.13663442 0.061200146
vt 0.13663442 0.06377334
vt 0.13270086 0.035516642
vt 0.13270086 0.03797184
vt 0.15284273 0.06954046
vt 0.15544346 0.09270388
vt 0.12971017 0.06954046
vt 0.14564323 0.09270388
vt 0.11646338 0.042006064
vt 0.11162187 0.05722511
vt 0.11779793 0.05722511
vt 0.12964384 0.042006064
vt 0.10604991 0.042006064
vt 0.10230438 0.05722511
vt 0.09516774 0.042006064
vt 0.092617884 0.05722511
vt 0.08222176 0.05722511
vt 0.08454795 0.042006064
vt 0.20042138 0.09270388
vt 0.20042138 0.06954046
vn -0.9703554 -0.067463845 0.23207568
vn -0.9703554 -0.06746384 0.23207566
vn -0.9703554 -0.06746383 0.23207566
vn -0.9187083 -0.37445116 -0.12554437
vn -0.9187083 -0.37445113 -0.12554437
vn -0.9187083 -0.37445116 -0.12554438
vn -0.05751669 -0.5855335 0.80860513
vn -0.057516698 -0.5855335 0.8086052
vn -0.057516698 -0.5855335 0.80860513
vn -0.005885298 -0.892518 0.4509733
vn -0.0058852984 -0.892518 0.45097336
vn -0.005885299 -0.892518 0.45097336
vn 0.6380294 0.62740195 -0.44641373
vn 0.63802934 0.627402 -0.44641376
vn 0.63802695 0.627404 -0.4464143
vn 0.6380318 0.62740004 -0.44641328
vn 0.9516888 0.11240299 0.2857517
vn 0.9516888 0.11240299 0.28575167
vn 0.9516888 0.112403 0.28575167
vn 0.9734904 -0.22362666 -0.04803655
vn 0.9734904 -0.22362667 -0.048036557
vn 0.9734904 -0.2236267 -0.04803656
vn 0.10065282 -0.50843114 0.85519993
vn 0.10065282 -0.5084311 0.85519993
vn 0.10065284 -0.50843114 0.85519993
vn 0.12245759 -0.84446746 0.5214201
vn 0.12245759 -0.84446746 0.5214201
vn 0.12245759 -0.84446746 0.5214201
vn -0.7020025 0.47844252 -0.5275274
vn -0.7020026 0.47844023 -0.5275294
vn -0.7020025 0.47844255 -0.52752745
vn -0.70200247 0.47844487 -0.52752537
vn -0.57233346 -0.65058374 0.49917454
vn -0.5723334 -0.65058374 0.4991745
vn -0.48844874 -0.6918833 0.5317098
vn -0.5080868 -0.6830222 0.5247175
vn -0.324823 -0.75364846 0.5714053
vn -0.3412713 -0.7483656 0.5687555
vn -0.14477539 -0.7958008 0.58799756
vn -0.15139458 -0.79473555 0.58777124
vn 0.021669328 -0.8091226 0.58724016
vn 0.022334319 -0.8091224 0.5872156
vn 0.18076533 -0.79268634 0.58221334
vn 0.18967433 -0.7908266 0.581908
vn 0.3727742 -0.7320538 0.57020754
vn 0.39917785 -0.72025734 0.5673503
vn 0.60784465 -0.587948 0.5337059
vn 0.6392415 -0.56083953 0.52614564
vn 0.72602767 -0.47414967 0.49806207
vn 0.72602767 -0.47414967 0.49806207
vn 0.059857424 -0.76026857 -0.64684534
vn 0.059890766 -0.7602357 -0.64688087
vn 0.043802477 -0.7567953 -0.6521827
vn 0.04305655 -0.75632143 -0.6527818
vn -0.037509553 0.760773 0.6479332
vn -0.039328083 0.7609343 0.647636
vn -0.06266413 0.7582018 0.6490018
vn -0.06241246 0.7584451 0.6487418
vn 0.009669121 -0.73583364 -0.6770933
vn 0.005184176 -0.7330846 -0.6801177
vn 0.0058214013 0.74693006 0.6648771
vn 0.0023386108 0.74872136 0.6628808
vn -0.01663855 -0.71932524 -0.69447416
vn -0.01663855 -0.71932524 -0.69447416
vn 0.033564765 0.73214364 0.68032277
vn 0.03356477 0.73214364 0.6803229
vn 0.7029269 -0.3877828 0.59625345
vn 0.6962118 -0.39747125 0.5977506
vn 0.75631124 -0.31175694 0.575153
vn 0.7715364 -0.28940406 0.5665482
vn 0.8154347 -0.22322278 0.5340768
vn 0.82663375 -0.20717517 0.5232162
vn 0.8438796 -0.18098585 0.5050854
vn 0.8438796 -0.18098587 0.5050854
vn -0.7703221 0.2922676 -0.5667306
vn -0.7558393 0.3131257 -0.57502985
vn -0.6962404 0.39745936 -0.5977252
vn -0.70299596 0.38772807 -0.5962078
vn -0.82641566 0.20935434 -0.522693
vn -0.81480205 0.22623205 -0.5337758
vn -0.8447841 0.18095782 -0.5035813
vn -0.8447841 0.18095782 -0.5035813
vn -0.7449607 -0.56585705 0.35332602
vn -0.7449607 -0.56585705 0.35332596
vn -0.7449608 -0.56585705 0.35332596
vn -0.7449607 -0.56585705 0.35332602
vn 0.6763704 -0.42499614 0.6015824
vn 0.6763705 -0.42499617 0.60158235
vn 0.06353043 -0.75663596 -0.6507426
vn 0.06353043 -0.756636 -0.65074253
vn -0.6763346 0.4250273 -0.6016005
vn -0.6763346 0.4250273 -0.6016006
vn -0.06605558 0.75490856 0.6524951
vn -0.06605558 0.75490856 0.6524951
vn -0.020965965 -0.69287866 -0.7207493
vn -0.0070548146 -0.698611 -0.7154669
vn -0.0063556526 -0.6988943 -0.71519667
vn -0.020965964 -0.6928787 -0.72074926
vn -0.059015922 0.7208967 0.6905252
vn -0.059953503 0.710734 0.7009013
vn -0.05990271 0.7112921 0.70033944
vn -0.059015922 0.7208967 0.6905252
vn 0.030733095 -0.6920285 -0.72121567
vn 0.030057736 -0.6924323 -0.72085637
vn -0.05530268 0.6930373 0.7187774
vn -0.05527139 0.6929578 0.71885633
vn 0.053320985 -0.6736639 -0.73711175
vn 0.053252097 -0.6738187 -0.73697525
vn -0.04579549 0.6704926 0.7405015
vn -0.045776073 0.6704502 0.7405411
vn -0.5760589 -0.63059 0.5201079
vn -0.58369625 -0.62633324 0.5167256
vn -0.67285377 -0.5686862 0.4731425
vn -0.6591622 -0.5785532 0.48039696
vn 0.8509272 -0.44482392 0.27938262
vn 0.8509271 -0.44482395 0.2793826
vn 0.8509272 -0.44482392 0.27938256
vn 0.8509272 -0.44482392 0.27938262
vn 0.056139436 -0.6673014 -0.7426689
vn 0.056139436 -0.6673014 -0.7426689
vn -0.041505735 0.66106796 0.74917716
vn -0.041505735 0.661068 0.74917716
vn -0.76153964 -0.490546 0.42358232
vn -0.74459726 -0.507681 0.4333992
vn -0.7962438 -0.45255214 0.4014877
vn -0.7962438 -0.45255214 0.4014877
vn 0.7479364 0.5055138 -0.43017077
vn 0.73419315 0.5179132 -0.43900606
vn 0.776004 0.47855085 -0.4108612
vn 0.776004 0.4785508 -0.41086116
vn 0.6703896 0.56970525 -0.4754089
vn 0.6570352 0.57948315 -0.48218668
vn 0.583447 0.6264836 -0.5168247
vn 0.5756282 0.6308404 -0.5202812
vn 0.5381954 0.6505259 -0.53587484
vn 0.53819543 0.6505259 -0.5358747
vn -0.53853726 -0.6503296 0.5357696
vn -0.53853726 -0.6503296 0.5357696
g SeparateMesh_NPC_A_Model_A_Headwear_0
f 3/3/3 2/2/2 1/1/1
f 6/6/6 5/5/5 4/4/4
f 9/9/9 8/8/8 7/7/7
f 12/12/12 11/11/11 10/10/10
f 15/15/15 14/14/14 13/13/13
f 13/13/13 14/14/14 16/16/16
f 19/19/19 18/18/18 17/17/17
f 22/22/22 21/21/21 20/20/20
f 25/25/25 24/24/24 23/23/23
f 28/28/28 27/27/27 26/26/26
f 31/31/31 30/30/30 29/29/29
f 31/31/31 29/29/29 32/32/32
f 35/35/35 34/34/34 33/33/33
f 36/36/36 35/35/35 33/33/33
f 37/37/37 35/35/35 36/36/36
f 38/38/38 37/37/37 36/36/36
f 39/39/39 37/37/37 38/38/38
f 40/40/40 39/39/39 38/38/38
f 41/41/41 39/39/39 40/40/40
f 42/42/42 41/41/41 40/40/40
f 43/43/43 41/41/41 42/42/42
f 44/44/44 43/43/43 42/42/42
f 45/45/45 43/43/43 44/44/44
f 46/46/46 45/45/45 44/44/44
f 47/47/47 45/45/45 46/46/46
f 48/48/48 47/47/47 46/46/46
f 49/49/49 47/47/47 48/48/48
f 50/50/50 49/49/49 48/48/48
f 53/53/53 52/52/52 51/51/51
f 54/54/54 53/53/53 51/51/51
f 57/57/57 56/56/56 55/55/55
f 58/58/58 57/57/57 55/55/55
f 59/59/59 53/53/53 54/54/54
f 60/60/60 59/59/59 54/54/54
f 56/56/56 62/62/62 61/61/61
f 55/55/55 56/56/56 61/61/61
f 64/64/64 63/63/63 59/59/59
f 60/60/60 64/64/64 59/59/59
f 66/66/66 65/65/65 61/61/61
f 62/62/62 66/66/66 61/61/61
f 69/69/69 68/68/68 67/67/67
f 70/70/70 69/69/69 67/67/67
f 71/71/71 69/69/69 70/70/70
f 72/72/72 71/71/71 70/70/70
f 72/72/72 74/74/74 73/73/73
f 71/71/71 72/72/72 73/73/73
f 77/77/77 76/76/76 75/75/75
f 78/78/78 77/77/77 75/75/75
f 76/76/76 80/80/80 79/79/79
f 75/75/75 76/76/76 79/79/79
f 82/82/82 81/81/81 79/79/79
f 80/80/80 82/82/82 79/79/79
f 85/85/85 84/84/84 83/83/83
f 86/86/86 85/85/85 83/83/83
f 67/67/67 68/68/68 87/87/87
f 88/88/88 67/67/67 87/87/87
f 89/89/89 51/51/51 52/52/52
f 90/90/90 89/89/89 52/52/52
f 77/77/77 78/78/78 91/91/91
f 92/92/92 77/77/77 91/91/91
f 57/57/57 58/58/58 93/93/93
f 94/94/94 57/57/57 93/93/93
f 97/97/97 96/96/96 95/95/95
f 98/98/98 97/97/97 95/95/95
f 101/101/101 100/100/100 99/99/99
f 102/102/102 101/101/101 99/99/99
f 103/103/103 96/96/96 97/97/97
f 104/104/104 103/103/103 97/97/97
f 101/101/101 106/106/106 105/105/105
f 100/100/100 101/101/101 105/105/105
f 107/107/107 103/103/103 104/104/104
f 108/108/108 107/107/107 104/104/104
f 106/106/106 110/110/110 109/109/109
f 105/105/105 106/106/106 109/109/109
f 113/113/113 112/112/112 111/111/111
f 114/114/114 113/113/113 111/111/111
f 117/117/117 116/116/116 115/115/115
f 118/118/118 117/117/117 115/115/115
f 107/107/107 108/108/108 119/119/119
f 120/120/120 107/107/107 119/119/119
f 109/109/109 110/110/110 121/121/121
f 122/122/122 109/109/109 121/121/121
f 123/123/123 113/113/113 114/114/114
f 124/124/124 123/123/123 114/114/114
f 125/125/125 123/123/123 124/124/124
f 126/126/126 125/125/125 124/124/124
f 129/129/129 128/128/128 127/127/127
f 130/130/130 129/129/129 127/127/127
f 131/131/131 127/127/127 128/128/128
f 132/132/132 131/131/131 128/128/128
f 133/133/133 131/131/131 132/132/132
f 134/134/134 133/133/133 132/132/132
f 133/133/133 134/134/134 135/135/135
f 136/136/136 133/133/133 135/135/135
f 137/137/137 111/111/111 112/112/112
f 138/138/138 137/137/137 112/112/112
