g SeparateMesh_NPC_Twiggy_Model_Twiggy_Mask_LOD2
v 0.070040174 -0.026530933 1.4100097
v 0.07098761 -0.0061650085 1.4111034
v 0.06932705 -0.005953369 1.4051361
v 0.067646846 -0.02202299 1.4026546
v 0.07454136 -0.007344607 1.4255798
v 0.0753569 0.007991913 1.4266238
v 0.07332277 0.008670807 1.4193716
v 0.07297304 -0.006679153 1.4185737
v 5.356682E-07 -0.07078552 1.443385
v 1.2009106E-06 -0.069982454 1.4563681
v 0.014320921 -0.06870918 1.4546272
v 0.013492312 -0.06934143 1.444292
v 0.07197179 -0.026420662 1.4173265
v 0.07351105 -0.02659455 1.4251411
v 0.07111196 0.00904602 1.4119284
v 0.029149937 -0.065645054 1.4358438
v 0.030830268 -0.06548609 1.4463696
v 0.04588088 -0.060048226 1.4448019
v 0.044628773 -0.060864218 1.4346673
v 0.0012394089 -0.06325958 1.4082676
v 0.00030035587 -0.06501132 1.4138767
v 0.009493118 -0.062797666 1.4130032
v 0.008499301 -0.06104587 1.4051777
v 0.05467541 -0.043593906 1.383319
v 0.052503593 -0.04507916 1.3772578
v 0.044234183 -0.051810246 1.3797348
v 0.033758383 -0.056016512 1.3845869
v 0.034508605 -0.054503843 1.3896493
v 0.045632772 -0.050328445 1.3860773
v 0.025930285 -0.05624661 1.3930743
v 0.027723238 -0.057600927 1.3876778
v 0.011954465 -0.06905967 1.4334134
v 0.024093758 -0.058991913 1.4118432
v 0.0219661 -0.057340745 1.401031
v 5.362784E-07 -0.070467524 1.4327861
v 0.016335864 -0.05840435 1.3963484
v 0.020761583 -0.058571342 1.3907123
v 0.05718008 -0.05293998 1.4206314
v 0.04236077 -0.059021473 1.4231576
v 0.05988699 -0.052395105 1.4328718
v 0.026685325 -0.062806524 1.4235948
v 0.010369632 -0.066749185 1.4226973
v 2.4313356E-06 -0.06794994 1.4225576
v 0.07006984 -0.04125207 1.4286082
v 0.06866991 -0.041902836 1.4179153
v 0.064675495 -0.042873863 1.4062814
v 0.067674905 -0.030236615 1.4035869
v 0.0632494 -0.03306395 1.3923806
v 0.058894593 -0.043066423 1.3937168
v 0.047820076 -0.050367787 1.3959997
v 0.035853934 -0.05402302 1.3981768
v 0.052302938 -0.051337536 1.4079736
v 0.038240876 -0.05573552 1.4096578
v 0.008063727 -0.060405478 1.4007007
v 0.016127052 -0.058836974 1.393588
v -0.07388372 -0.027626267 1.4552809
v -0.07237803 -0.027433747 1.4652678
v -0.07020285 -0.033754118 1.4650599
v -0.07038176 -0.037144773 1.4540645
v -0.028505746 -0.06557846 1.4577616
v -0.014560185 -0.06856361 1.4570265
v -0.013493512 -0.069510035 1.4447708
v -0.026940366 -0.06670959 1.4463384
v -0.04528324 -0.059022825 1.4600227
v -0.04445277 -0.06045967 1.448753
v -0.0623163 -0.046216965 1.4630182
v -0.06216753 -0.048891142 1.4521435
v -0.07004526 -0.028563537 1.4739143
v -0.06221951 -0.043093566 1.472259
v -0.07769879 0.0053797914 1.4425291
v -0.07768547 0.0029417418 1.4538336
v -0.07687889 -0.009791489 1.4483694
v -0.076886736 -0.009021683 1.4427804
v -0.07501136 -0.014342727 1.4657018
v -0.076208726 -0.011410293 1.4567114
v -0.07649871 -0.0011224365 1.4657469
v -0.07431777 -0.0051867673 1.4747192
v -0.07283718 -0.017476294 1.474683
v -0.07458533 -0.02752922 1.446388
v -0.07449649 -0.027389603 1.4410597
v -0.0700086 -0.039246824 1.4446261
v -0.003426485 -0.06449982 1.4138595
v -0.012412119 -0.069278255 1.4343414
v -0.024684949 -0.066821285 1.4361366
v -0.012778917 -0.06551605 1.4215826
v -0.022408439 -0.06449081 1.4273951
v -0.042111423 -0.060396954 1.4337164
v -0.043229464 -0.06102352 1.4386147
v -0.06949515 -0.03992279 1.4394908
v 0.024966564 -0.059404343 1.3861364
v 0.020907983 -0.05998929 1.3879844
v 0.021203538 -0.060726937 1.3862578
v 0.023094526 -0.06041819 1.3854669
v -0.045811787 -0.057366025 1.468858
v -0.029307963 -0.064306185 1.4651606
v -0.014751589 -0.06784561 1.4616396
v 1.6823318E-06 -0.0696814 1.458293
v 0.031262208 -0.0651905 1.4495097
v 0.060670327 -0.05092185 1.439226
v 0.0694595 -0.040503375 1.4352554
v 0.07381634 -0.02674856 1.4325006
v 0.075488605 -0.0078521725 1.4308543
v 0.076048814 0.007496643 1.4302862
v 0.06889497 0.008969574 1.4052598
v 0.058885846 -0.035757 1.3815569
v 0.0599555 -0.03185417 1.3807681
v 0.05703914 -0.03733898 1.377368
v 0.06379897 -0.027200308 1.3912234
v -0.06131495 -0.05044464 1.4424403
v -0.060470637 -0.050831754 1.4378393
v 0.06581056 -0.020765964 1.4020593
v 0.06803439 -0.00570137 1.4041357
v 0.04293756 -0.05008243 1.3787315
v 0.050395504 -0.0438984 1.3766809
v 0.032747198 -0.05425183 1.3833209
v 0.0068773767 -0.058341395 1.3994348
v 0.015064521 -0.057041463 1.3923897
v -0.060489967 -0.041338272 1.4726629
v -0.068354346 -0.027834777 1.4741061
v -0.07580356 -0.008436127 1.4412752
v -0.071848564 -0.016450847 1.4747537
v -0.07250288 -0.02669258 1.4393919
v -0.00470364 -0.061248627 1.4128151
v 5.272409E-07 -0.060814388 1.4070903
v -0.022605963 -0.061864316 1.4262973
v -0.013925288 -0.062182233 1.4207255
v -0.041037187 -0.058086585 1.4322734
v -0.067302875 -0.039007414 1.4377891
v 0.020953195 -0.059008937 1.3842163
v 0.021860471 -0.06081073 1.3855667
v 0.022468075 -0.058543216 1.3842032
v 0.024597187 -0.057388406 1.3849045
v 0.026895497 -0.05591488 1.3861163
v 0.01951009 -0.056855433 1.3894715
v 0.019665873 -0.05811419 1.3871223
v 0.020222818 -0.058879618 1.3852056
v -0.044674825 -0.055206373 1.4695172
v -0.02879849 -0.06192047 1.4658037
v -0.01445659 -0.065415874 1.4623169
v 5.3595437E-07 -0.067250825 1.4588058
v 0.014042736 -0.06637726 1.455155
v 0.03077536 -0.06286741 1.4502118
v 0.044993296 -0.057891496 1.4454303
v 0.059210107 -0.049133796 1.4398489
v 0.0674825 -0.03926276 1.4361403
v 0.07226312 -0.026259448 1.4336517
v 0.074792504 -0.007647476 1.4317394
v 0.054744966 -0.036355186 1.3768945
v 0.05787886 -0.030384673 1.3805591
v 0.061759192 -0.025481114 1.3913369
v -0.058598205 -0.049291227 1.4362392
vt 0.7403945 0.40204388
vt 0.7351735 0.3753515
vt 0.7432713 0.37411958
vt 0.7498609 0.39524895
vt 0.7165179 0.37918305
vt 0.7129057 0.35887775
vt 0.72176164 0.35692784
vt 0.7251332 0.37723544
vt 0.7299164 0.5286059
vt 0.7126183 0.53338563
vt 0.7099828 0.5142417
vt 0.7235887 0.5115535
vt 0.7303629 0.4029565
vt 0.7198603 0.40447348
vt 0.73211163 0.3551856
vt 0.7282999 0.4877425
vt 0.7142071 0.4895667
vt 0.7099828 0.4685081
vt 0.7232921 0.46662903
vt 0.77722317 0.5105845
vt 0.77036595 0.5148092
vt 0.7676033 0.5013298
vt 0.7782075 0.4988354
vt 0.78200024 0.42291006
vt 0.7907575 0.4232289
vt 0.79318094 0.4371
vt 0.79380333 0.4535189
vt 0.7861147 0.4549343
vt 0.7840502 0.4380522
vt 0.7864141 0.4682612
vt 0.7939027 0.46333542
vt 0.7385286 0.5091914
vt 0.7628417 0.48010364
vt 0.77771276 0.47741365
vt 0.7444168 0.5243105
vt 0.7863353 0.4832523
vt 0.7931339 0.47502896
vt 0.7354362 0.4425424
vt 0.7397617 0.4643899
vt 0.7185569 0.44408768
vt 0.7456819 0.48438224
vt 0.75374705 0.50617886
vt 0.75865716 0.51963776
vt 0.7189584 0.42458263
vt 0.7329732 0.42327046
vt 0.7491793 0.42283973
vt 0.75003326 0.40647152
vt 0.7659504 0.40932336
vt 0.7673161 0.4231316
vt 0.77055573 0.4400548
vt 0.77447283 0.45718104
vt 0.7535957 0.4406814
vt 0.75884485 0.45994878
vt 0.78421026 0.49730957
vt 0.790574 0.48277146
vt 0.7348115 0.65433204
vt 0.7215109 0.6546389
vt 0.72125643 0.64542
vt 0.7356482 0.64033455
vt 0.71967596 0.5714609
vt 0.71632993 0.5525834
vt 0.73290336 0.54670906
vt 0.73482436 0.5653736
vt 0.7215005 0.5959562
vt 0.7361071 0.5910331
vt 0.722064 0.6253074
vt 0.7361574 0.62056404
vt 0.7099828 0.65270907
vt 0.7099828 0.62999994
vt 0.75197834 0.69915026
vt 0.7365299 0.6960538
vt 0.7442107 0.678785
vt 0.75174886 0.67961127
vt 0.7208766 0.6727764
vt 0.7329428 0.6767897
vt 0.7197909 0.69044524
vt 0.7065007 0.6841387
vt 0.70957595 0.6676653
vt 0.74666876 0.65404296
vt 0.7537696 0.65367013
vt 0.74794406 0.6363613
vt 0.7723095 0.5198642
vt 0.7472073 0.5412883
vt 0.7487419 0.55881333
vt 0.7655524 0.5366082
vt 0.7611409 0.5529105
vt 0.7560518 0.5838237
vt 0.7494006 0.586419
vt 0.7546645 0.6344281
vt 0.7971309 0.46697327
vt 0.796765 0.47275826
vt 0.7985584 0.47132853
vt 0.79865783 0.46912125
vt 0.7099828 0.5999711
vt 0.7099828 0.5752519
vt 0.7099828 0.55451804
vt 0.7099828 0.53408766
vt 0.7099828 0.49007455
vt 0.7099828 0.4443208
vt 0.7099828 0.42573443
vt 0.7099828 0.40614912
vt 0.70924544 0.38097268
vt 0.7065007 0.3604897
vt 0.7415319 0.35426483
vt 0.7810405 0.4113008
vt 0.7810989 0.40591124
vt 0.78720987 0.4124083
vt 0.7663568 0.40129793
vt 0.74860376 0.6164096
vt 0.75451 0.6142949
vt 0.7524817 0.3927086
vt 0.7464741 0.37331533
vt 0.7962743 0.43643633
vt 0.79400235 0.42279312
vt 0.7969404 0.45301542
vt 0.7878054 0.49836612
vt 0.7934766 0.48401302
vt 0.7065007 0.6305567
vt 0.7065007 0.65254384
vt 0.75493395 0.6801916
vt 0.70683444 0.66831875
vt 0.75763476 0.6535854
vt 0.77683455 0.52177006
vt 0.78100485 0.51180226
vt 0.76547676 0.55393606
vt 0.77012545 0.5388742
vt 0.7600763 0.58319914
vt 0.758509 0.63367313
vt 0.80180377 0.47079185
vt 0.7990548 0.47042146
vt 0.80153805 0.46827838
vt 0.7996214 0.46517286
vt 0.79710037 0.46208337
vt 0.79594284 0.47708938
vt 0.7988133 0.4749293
vt 0.8010816 0.4726492
vt 0.7065007 0.6002572
vt 0.7065007 0.5757965
vt 0.7065007 0.5549586
vt 0.7065007 0.5344174
vt 0.7065007 0.5144291
vt 0.7065007 0.4901208
vt 0.7065007 0.4685756
vt 0.7065007 0.44429445
vt 0.7065007 0.4258323
vt 0.7065007 0.40646806
vt 0.7065007 0.3810569
vt 0.7902443 0.41109297
vt 0.78291404 0.4030733
vt 0.76725775 0.3978338
vt 0.7582968 0.6134117
vn 0.95313966 -0.12134517 -0.2771285
vn 0.9595894 -0.012844357 -0.28111067
vn 0.8100328 0.01756561 -0.5861214
vn 0.86382675 0.12235158 -0.48870587
vn 0.98145884 -0.04445246 -0.18644743
vn 0.97576493 -0.0313799 -0.21655962
vn 0.96581286 -0.011172577 -0.25899923
vn 0.9690672 -0.024077497 -0.24561965
vn 0.005898971 -0.9999175 0.011414287
vn 0.0064846766 -0.9940923 0.108344436
vn 0.27210802 -0.74216604 0.61249226
vn 0.159829 -0.9871163 0.0074874507
vn 0.9641373 -0.13584734 -0.22800168
vn 0.9772329 -0.15666255 -0.14308283
vn 0.959436 0.008998358 -0.28178266
vn 0.2512529 -0.9598817 -0.12449562
vn 0.27188092 -0.96219826 0.015979843
vn 0.49162018 -0.65234935 0.5768449
vn 0.3777541 -0.9225981 -0.07819568
vn -0.23079397 -0.8448193 -0.48271576
vn 0.009186142 -0.94890076 -0.31544104
vn 0.19726664 -0.9351488 -0.29424936
vn 0.21497338 -0.96011233 -0.17880389
vn 0.7373803 -0.65589654 -0.16146222
vn 0.53243726 -0.55750823 -0.63694197
vn 0.2988302 -0.83017105 -0.47065535
vn 0.14277975 -0.92826056 -0.34343302
vn 0.32601368 -0.93997043 0.1008507
vn 0.47881502 -0.87789905 0.0054310383
vn 0.25491244 -0.95551485 0.1483614
vn 0.34356737 -0.9316418 -0.11834234
vn 0.1703663 -0.9749416 -0.1430532
vn 0.20706819 -0.94013643 -0.27067763
vn 0.20981123 -0.97062546 -0.11775237
vn -0.0026614724 -0.9892285 -0.14635572
vn 0.24095623 -0.96945894 0.04571012
vn -0.10805177 -0.98589027 0.12784809
vn 0.5116882 -0.83919036 -0.18421377
vn 0.29102835 -0.9269376 -0.23683177
vn 0.61174166 -0.7909522 -0.012917337
vn 0.22818676 -0.9270823 -0.29740417
vn 0.17967635 -0.93682224 -0.300134
vn -0.0072139436 -0.95689243 -0.29035288
vn 0.8786642 -0.4771814 -0.015720272
vn 0.84699637 -0.4963086 -0.19045952
vn 0.7722575 -0.5703611 -0.27983317
vn 0.9381881 -0.19244613 -0.28769353
vn 0.9113552 -0.27349818 -0.3076206
vn 0.7223513 -0.6399728 -0.2619989
vn 0.40852746 -0.89939356 -0.15555198
vn 0.24875782 -0.96317023 -0.10209132
vn 0.41982532 -0.87550855 -0.2392309
vn 0.23025121 -0.9451384 -0.23172794
vn -0.14696291 -0.89247924 -0.42647702
vn -0.13774195 -0.94128036 -0.30825052
vn -0.9620754 -0.2563756 0.09317914
vn -0.95065564 -0.25801232 0.17228888
vn -0.8755542 -0.44395474 0.19054894
vn -0.8749769 -0.47274265 0.10454559
vn -0.27386716 -0.95615315 0.10376857
vn -0.1461496 -0.9835744 0.10593282
vn -0.14908628 -0.9887213 0.01426893
vn -0.26735994 -0.96342456 0.018215602
vn -0.46228513 -0.876692 0.13305524
vn -0.4366424 -0.89807475 0.052963194
vn -0.70645916 -0.68402684 0.1817214
vn -0.68360466 -0.723267 0.09782387
vn -0.62208045 -0.28570378 0.7289645
vn -0.49672452 -0.5114721 0.7011854
vn -0.9962405 -0.058423936 -0.0639648
vn -0.9966987 -0.07473207 0.031732082
vn -0.99455583 -0.10197987 0.021422079
vn -0.9355209 -0.07417174 -0.34539726
vn -0.97685176 -0.15276352 0.1497465
vn -0.988831 -0.12501428 0.08114667
vn -0.9872636 -0.10389142 0.12048772
vn -0.966461 -0.11710721 0.22855876
vn -0.658036 -0.16354197 0.735012
vn -0.9681943 -0.2495799 0.017597688
vn -0.8909572 -0.19109203 -0.41192135
vn -0.8702532 -0.49246496 0.011733736
vn -0.3822212 -0.7681723 -0.5136324
vn -0.1717634 -0.9729134 -0.15471542
vn -0.2660184 -0.95140314 -0.15513343
vn -0.37840098 -0.7493502 -0.54340327
vn -0.37328354 -0.72655255 -0.57687145
vn -0.40994585 -0.71872014 -0.56159216
vn -0.4153323 -0.90482676 -0.09374187
vn -0.78853846 -0.41150162 -0.4570268
vn 0.56880087 -0.7889656 -0.23237665
vn -0.36793378 -0.8645191 0.34239075
vn -0.37995195 -0.9218656 0.07616017
vn 0.40957186 -0.85106593 -0.32853866
vn -0.2932734 -0.6915632 0.66009945
vn -0.10569695 -0.7561379 0.64582014
vn 0.009161201 -0.7587249 0.6513466
vn 0.12987748 -0.74393046 0.65551454
vn 0.37854195 -0.7136775 0.58938134
vn 0.6426246 -0.5021274 0.5787068
vn 0.7831248 -0.302825 0.5431506
vn 0.9075832 -0.103726484 0.40685815
vn 0.95486873 -0.0361257 0.2948231
vn 0.98729646 -0.040249523 -0.15370643
vn 0.94404477 0.019559331 -0.32923678
vn 0.89180136 -0.36755803 -0.26380205
vn 0.76809126 0.22196929 -0.6006375
vn 0.66561246 -0.15176584 -0.73070323
vn 0.84136766 0.29719144 -0.45141742
vn -0.66472447 -0.74697536 -0.013004317
vn -0.6036384 -0.6316742 -0.48642397
vn 0.557585 0.37850493 -0.73880506
vn 0.5491761 0.04624865 -0.8344259
vn -0.021737525 -0.50533354 -0.8626503
vn 0.1279507 -0.26762497 -0.95498973
vn -0.1446411 -0.6359856 -0.7580246
vn -0.45140475 -0.62941694 -0.6325093
vn -0.39989853 -0.6665806 -0.62908775
vn -0.04466887 -0.19383924 0.9800158
vn -0.056831103 -0.1110795 0.9921853
vn -0.760284 -0.048957065 -0.6477434
vn -0.056438252 -0.03201149 0.9978928
vn -0.6498931 -0.09154703 -0.7544919
vn -0.595464 -0.46271175 -0.65674996
vn -0.54637444 -0.5618976 -0.6210847
vn -0.43353346 -0.3750932 -0.81936187
vn -0.5343926 -0.39078632 -0.7494735
vn -0.366231 -0.3765515 -0.85093117
vn -0.5369079 -0.22329582 -0.8135533
vn -0.27862155 -0.644699 -0.71185195
vn -0.029349545 -0.95592415 -0.29214302
vn 0.3102707 -0.4695162 -0.8266116
vn 0.5505756 -0.36257276 -0.7519359
vn 0.24825515 -0.5605949 -0.79000175
vn -0.70053 -0.6671721 -0.25325677
vn -0.86210275 -0.49454007 0.11049468
vn -0.77496 -0.5884642 -0.23053585
vn 0.030673215 -0.2747145 0.9610365
vn 0.12088986 -0.29594243 0.9475251
vn 0.17484993 -0.26667 0.9477946
vn 0.22324587 -0.21959989 0.94970375
vn 0.28658658 -0.19256814 0.93850183
vn 0.33836952 -0.1781152 0.92400277
vn 0.3749858 -0.11211596 0.92022586
vn 0.39771515 -0.028114978 0.91707814
vn 0.45172867 0.0022416909 0.89215255
vn 0.5865516 -0.0026906438 0.80990744
vn 0.7317309 -0.005253244 0.68157333
vn 0.26449272 0.118106015 -0.9571283
vn 0.45260483 0.53652894 -0.71223986
vn 0.5525298 0.6680675 -0.4983939
vn -0.43008277 -0.3390893 -0.8366883
g SeparateMesh_NPC_Twiggy_Model_Twiggy_Mask_LOD2_0
f 3/3/3 2/2/2 1/1/1
f 4/4/4 3/3/3 1/1/1
f 7/7/7 6/6/6 5/5/5
f 8/8/8 7/7/7 5/5/5
f 11/11/11 10/10/10 9/9/9
f 12/12/12 11/11/11 9/9/9
f 8/8/8 13/13/13 1/1/1
f 2/2/2 8/8/8 1/1/1
f 5/5/5 14/14/14 13/13/13
f 8/8/8 5/5/5 13/13/13
f 7/7/7 8/8/8 2/2/2
f 15/15/15 7/7/7 2/2/2
f 18/18/18 17/17/17 16/16/16
f 19/19/19 18/18/18 16/16/16
f 22/22/22 21/21/21 20/20/20
f 23/23/23 22/22/22 20/20/20
f 26/26/26 25/25/25 24/24/24
f 29/29/29 28/28/28 27/27/27
f 26/26/26 29/29/29 27/27/27
f 31/31/31 28/28/28 30/30/30
f 16/16/16 17/17/17 12/12/12
f 32/32/32 16/16/16 12/12/12
f 33/33/33 22/22/22 23/23/23
f 34/34/34 33/33/33 23/23/23
f 32/32/32 12/12/12 9/9/9
f 35/35/35 32/32/32 9/9/9
f 37/37/37 30/30/30 36/36/36
f 19/19/19 39/39/39 38/38/38
f 40/40/40 19/19/19 38/38/38
f 22/22/22 33/33/33 41/41/41
f 42/42/42 22/22/22 41/41/41
f 42/42/42 32/32/32 35/35/35
f 43/43/43 42/42/42 35/35/35
f 44/44/44 40/40/40 38/38/38
f 45/45/45 44/44/44 38/38/38
f 48/48/48 47/47/47 46/46/46
f 49/49/49 48/48/48 46/46/46
f 43/43/43 21/21/21 22/22/22
f 42/42/42 43/43/43 22/22/22
f 1/1/1 46/46/46 47/47/47
f 30/30/30 34/34/34 36/36/36
f 42/42/42 41/41/41 16/16/16
f 32/32/32 42/42/42 16/16/16
f 41/41/41 39/39/39 19/19/19
f 16/16/16 41/41/41 19/19/19
f 28/28/28 29/29/29 50/50/50
f 51/51/51 28/28/28 50/50/50
f 53/53/53 52/52/52 38/38/38
f 39/39/39 53/53/53 38/38/38
f 52/52/52 50/50/50 49/49/49
f 46/46/46 52/52/52 49/49/49
f 55/55/55 36/36/36 54/54/54
f 45/45/45 13/13/13 44/44/44
f 58/58/58 57/57/57 56/56/56
f 59/59/59 58/58/58 56/56/56
f 62/62/62 61/61/61 60/60/60
f 63/63/63 62/62/62 60/60/60
f 63/63/63 60/60/60 64/64/64
f 65/65/65 63/63/63 64/64/64
f 66/66/66 58/58/58 59/59/59
f 67/67/67 66/66/66 59/59/59
f 69/69/69 68/68/68 58/58/58
f 66/66/66 69/69/69 58/58/58
f 72/72/72 71/71/71 70/70/70
f 73/73/73 72/72/72 70/70/70
f 76/76/76 75/75/75 74/74/74
f 78/78/78 77/77/77 76/76/76
f 56/56/56 57/57/57 74/74/74
f 75/75/75 56/56/56 74/74/74
f 72/72/72 79/79/79 56/56/56
f 75/75/75 72/72/72 56/56/56
f 80/80/80 79/79/79 72/72/72
f 73/73/73 80/80/80 72/72/72
f 56/56/56 79/79/79 81/81/81
f 59/59/59 56/56/56 81/81/81
f 20/20/20 21/21/21 82/82/82
f 84/84/84 83/83/83 62/62/62
f 63/63/63 84/84/84 62/62/62
f 83/83/83 35/35/35 9/9/9
f 62/62/62 83/83/83 9/9/9
f 35/35/35 83/83/83 85/85/85
f 43/43/43 35/35/35 85/85/85
f 43/43/43 85/85/85 82/82/82
f 21/21/21 43/43/43 82/82/82
f 85/85/85 83/83/83 84/84/84
f 86/86/86 85/85/85 84/84/84
f 84/84/84 88/88/88 87/87/87
f 86/86/86 84/84/84 87/87/87
f 80/80/80 89/89/89 81/81/81
f 79/79/79 80/80/80 81/81/81
f 29/29/29 26/26/26 24/24/24
f 53/53/53 51/51/51 50/50/50
f 52/52/52 53/53/53 50/50/50
f 37/37/37 91/91/91 90/90/90
f 31/31/31 37/37/37 90/90/90
f 90/90/90 91/91/91 92/92/92
f 93/93/93 90/90/90 92/92/92
f 78/78/78 74/74/74 68/68/68
f 57/57/57 68/68/68 74/74/74
f 66/66/66 64/64/64 94/94/94
f 69/69/69 66/66/66 94/94/94
f 64/64/64 60/60/60 95/95/95
f 94/94/94 64/64/64 95/95/95
f 96/96/96 95/95/95 60/60/60
f 61/61/61 96/96/96 60/60/60
f 96/96/96 61/61/61 10/10/10
f 97/97/97 96/96/96 10/10/10
f 11/11/11 97/97/97 10/10/10
f 12/12/12 17/17/17 98/98/98
f 11/11/11 12/12/12 98/98/98
f 98/98/98 17/17/17 18/18/18
f 99/99/99 18/18/18 19/19/19
f 40/40/40 99/99/99 19/19/19
f 99/99/99 40/40/40 44/44/44
f 100/100/100 99/99/99 44/44/44
f 101/101/101 100/100/100 44/44/44
f 14/14/14 5/5/5 102/102/102
f 101/101/101 14/14/14 102/102/102
f 5/5/5 6/6/6 103/103/103
f 102/102/102 5/5/5 103/103/103
f 2/2/2 3/3/3 104/104/104
f 15/15/15 2/2/2 104/104/104
f 101/101/101 44/44/44 14/14/14
f 36/36/36 55/55/55 37/37/37
f 31/31/31 27/27/27 28/28/28
f 37/37/37 31/31/31 30/30/30
f 107/107/107 106/106/106 105/105/105
f 47/47/47 48/48/48 108/108/108
f 4/4/4 47/47/47 108/108/108
f 50/50/50 29/29/29 24/24/24
f 49/49/49 50/50/50 24/24/24
f 49/49/49 24/24/24 105/105/105
f 48/48/48 49/49/49 105/105/105
f 48/48/48 105/105/105 106/106/106
f 108/108/108 48/48/48 106/106/106
f 62/62/62 9/9/9 10/10/10
f 61/61/61 62/62/62 10/10/10
f 33/33/33 39/39/39 41/41/41
f 53/53/53 39/39/39 33/33/33
f 53/53/53 33/33/33 34/34/34
f 51/51/51 53/53/53 34/34/34
f 34/34/34 30/30/30 28/28/28
f 51/51/51 34/34/34 28/28/28
f 23/23/23 54/54/54 36/36/36
f 34/34/34 23/23/23 36/36/36
f 54/54/54 23/23/23 20/20/20
f 57/57/57 58/58/58 68/68/68
f 72/72/72 75/75/75 71/71/71
f 109/109/109 81/81/81 89/89/89
f 110/110/110 109/109/109 89/89/89
f 110/110/110 87/87/87 88/88/88
f 109/109/109 110/110/110 88/88/88
f 81/81/81 109/109/109 67/67/67
f 59/59/59 81/81/81 67/67/67
f 67/67/67 65/65/65 64/64/64
f 66/66/66 67/67/67 64/64/64
f 67/67/67 109/109/109 88/88/88
f 65/65/65 67/67/67 88/88/88
f 88/88/88 84/84/84 63/63/63
f 65/65/65 88/88/88 63/63/63
f 76/76/76 71/71/71 75/75/75
f 14/14/14 44/44/44 13/13/13
f 25/25/25 107/107/107 105/105/105
f 24/24/24 25/25/25 105/105/105
f 38/38/38 52/52/52 46/46/46
f 45/45/45 38/38/38 46/46/46
f 1/1/1 13/13/13 45/45/45
f 46/46/46 1/1/1 45/45/45
f 3/3/3 4/4/4 111/111/111
f 112/112/112 3/3/3 111/111/111
f 25/25/25 26/26/26 113/113/113
f 114/114/114 25/25/25 113/113/113
f 26/26/26 27/27/27 115/115/115
f 113/113/113 26/26/26 115/115/115
f 55/55/55 54/54/54 116/116/116
f 117/117/117 55/55/55 116/116/116
f 68/68/68 69/69/69 118/118/118
f 119/119/119 68/68/68 118/118/118
f 120/120/120 73/73/73 70/70/70
f 77/77/77 78/78/78 121/121/121
f 80/80/80 73/73/73 120/120/120
f 122/122/122 80/80/80 120/120/120
f 20/20/20 82/82/82 123/123/123
f 124/124/124 20/20/20 123/123/123
f 85/85/85 86/86/86 125/125/125
f 126/126/126 85/85/85 125/125/125
f 86/86/86 87/87/87 127/127/127
f 125/125/125 86/86/86 127/127/127
f 89/89/89 80/80/80 122/122/122
f 128/128/128 89/89/89 122/122/122
f 93/93/93 130/130/130 129/129/129
f 131/131/131 93/93/93 129/129/129
f 31/31/31 90/90/90 132/132/132
f 133/133/133 31/31/31 132/132/132
f 90/90/90 93/93/93 131/131/131
f 132/132/132 90/90/90 131/131/131
f 91/91/91 37/37/37 134/134/134
f 135/135/135 91/91/91 134/134/134
f 92/92/92 91/91/91 135/135/135
f 136/136/136 92/92/92 135/135/135
f 130/130/130 92/92/92 136/136/136
f 129/129/129 130/130/130 136/136/136
f 78/78/78 68/68/68 119/119/119
f 121/121/121 78/78/78 119/119/119
f 69/69/69 94/94/94 137/137/137
f 118/118/118 69/69/69 137/137/137
f 94/94/94 95/95/95 138/138/138
f 137/137/137 94/94/94 138/138/138
f 95/95/95 96/96/96 139/139/139
f 138/138/138 95/95/95 139/139/139
f 96/96/96 97/97/97 140/140/140
f 139/139/139 96/96/96 140/140/140
f 97/97/97 11/11/11 141/141/141
f 140/140/140 97/97/97 141/141/141
f 11/11/11 98/98/98 142/142/142
f 141/141/141 11/11/11 142/142/142
f 98/98/98 18/18/18 143/143/143
f 142/142/142 98/98/98 143/143/143
f 18/18/18 99/99/99 144/144/144
f 143/143/143 18/18/18 144/144/144
f 99/99/99 100/100/100 145/145/145
f 144/144/144 99/99/99 145/145/145
f 100/100/100 101/101/101 146/146/146
f 145/145/145 100/100/100 146/146/146
f 101/101/101 102/102/102 147/147/147
f 146/146/146 101/101/101 147/147/147
f 147/147/147 102/102/102 103/103/103
f 104/104/104 3/3/3 112/112/112
f 25/25/25 114/114/114 148/148/148
f 107/107/107 25/25/25 148/148/148
f 37/37/37 55/55/55 117/117/117
f 134/134/134 37/37/37 117/117/117
f 27/27/27 31/31/31 133/133/133
f 115/115/115 27/27/27 133/133/133
f 106/106/106 107/107/107 148/148/148
f 149/149/149 106/106/106 148/148/148
f 4/4/4 108/108/108 150/150/150
f 111/111/111 4/4/4 150/150/150
f 108/108/108 106/106/106 149/149/149
f 150/150/150 108/108/108 149/149/149
f 54/54/54 20/20/20 124/124/124
f 116/116/116 54/54/54 124/124/124
f 110/110/110 89/89/89 128/128/128
f 151/151/151 110/110/110 128/128/128
f 87/87/87 110/110/110 151/151/151
f 127/127/127 87/87/87 151/151/151
f 82/82/82 85/85/85 126/126/126
f 123/123/123 82/82/82 126/126/126
f 1/1/1 47/47/47 4/4/4
f 74/74/74 78/78/78 76/76/76
f 93/93/93 92/92/92 130/130/130
