g SeparateMesh_NPC_Twiggy_Model_Twiggy_Headwear_LOD2
v -0.036138475 -0.07597835 1.4976842
v -0.058996994 -0.06638798 1.4863875
v -0.05628849 -0.055161208 1.5066454
v -0.034899876 -0.06291222 1.5162667
v -0.034899876 -0.06291222 1.5162667
v -0.012926013 -0.0671933 1.5217881
v -0.012925604 -0.08053009 1.5038114
v -0.036138475 -0.07597835 1.4976842
v 0.031402715 -0.061795346 1.5154697
v 0.048267778 -0.052510526 1.5051363
v 0.05509223 -0.063863985 1.4849459
v 0.054245852 -0.047984388 1.4992648
v 0.06325077 -0.055837706 1.4767804
v 0.045273244 -0.073686674 1.4956387
v 0.039296295 -0.06015821 1.5136762
v 0.022518476 -0.07142402 1.5253112
v 0.039296295 -0.06015821 1.5136762
v 0.045273244 -0.073686674 1.4956387
v 0.0266191 -0.08676887 1.509382
v 0.042235773 -0.048533935 1.5277789
v 0.051420562 -0.0626593 1.5027447
v 0.04962908 -0.072578736 1.5126137
v 0.04962908 -0.072578736 1.5126137
v 0.051420562 -0.0626593 1.5027447
v 0.044815693 -0.08830444 1.4882754
v 0.035630744 -0.07417877 1.51331
v 0.042235773 -0.048533935 1.5277789
v 0.04962908 -0.072578736 1.5126137
v 0.035630744 -0.07417877 1.51331
v 0.04962908 -0.072578736 1.5126137
v 0.044815693 -0.08830444 1.4882754
v 0.051420562 -0.0626593 1.5027447
v 0.042235773 -0.048533935 1.5277789
v 0.035630744 -0.07417877 1.51331
v 0.044815693 -0.08830444 1.4882754
v -0.05047489 -0.053141173 1.5278594
v -0.038950615 -0.07611374 1.5120445
v -0.052965887 -0.076762386 1.5105776
v -0.052965887 -0.076762386 1.5105776
v -0.038950615 -0.07611374 1.5120445
v -0.044362485 -0.089473724 1.4855331
v -0.055886593 -0.06650177 1.5013477
v -0.05047489 -0.053141173 1.5278594
v -0.052965887 -0.076762386 1.5105776
v -0.055886593 -0.06650177 1.5013477
v -0.052965887 -0.076762386 1.5105776
v -0.044362485 -0.089473724 1.4855331
v -0.038950615 -0.07611374 1.5120445
v -0.05047489 -0.053141173 1.5278594
v -0.055886593 -0.06650177 1.5013477
v -0.044362485 -0.089473724 1.4855331
v -0.05030581 -0.05986141 1.5117258
v -0.052728184 -0.07211565 1.4922003
v -0.061782483 -0.051101148 1.5019369
v -0.052728184 -0.07211565 1.4922003
v -0.05030581 -0.05986141 1.5117258
v -0.025181208 -0.07275322 1.5253068
v -0.02644667 -0.086473 1.5073171
v -0.0004292136 -0.06702454 1.5286636
v 0.031402715 -0.061795346 1.5154697
v 0.034230504 -0.075039744 1.497402
v 0.012925008 -0.079960935 1.5021381
v 0.011880101 -0.067288056 1.5202817
v 0.0061784815 -0.06961121 1.5179209
v 0.0014685681 -0.086349025 1.4959583
v 0.034230504 -0.075039744 1.497402
v -0.061782483 -0.051101148 1.5019369
v -0.052728184 -0.07211565 1.4922003
v -0.07170177 -0.054850537 1.4757303
vt 0.10168825 0.0053522196
vt 0.07043573 0.0053523215
vt 0.07722002 0.029690769
vt 0.10509452 0.029677674
vt 0.10509452 0.029677674
vt 0.12780154 0.029677674
vt 0.12669504 0.0053522196
vt 0.10168825 0.0053522196
vt 0.17988972 0.029677674
vt 0.20378207 0.029677674
vt 0.21173061 0.0053522196
vt 0.11564341 0.09270388
vt 0.12386055 0.06914689
vt 0.085903846 0.06914689
vt 0.084392734 0.09270388
vt 0.057206184 0.09270388
vt 0.084392734 0.09270388
vt 0.085903846 0.06914689
vt 0.057206184 0.06914689
vt 0.029667765 0.09432794
vt 0.049203485 0.053656247
vt 0.029667765 0.053656247
vt 0.029667765 0.050427172
vt 0.049203485 0.050427172
vt 0.029667765 0.009755494
vt 0.0069428384 0.053656247
vt 0.026478559 0.09432794
vt 0.026478559 0.053656247
vt 0.0069428384 0.050427172
vt 0.026478559 0.050427172
vt 0.026478559 0.009755494
vt 0.0468773 0.028172027
vt 0.05610157 0.051469304
vt 0.06532584 0.028172027
vt 0.05610157 0.0048747715
vt 0.029667765 0.09432794
vt 0.049203485 0.053656247
vt 0.029667765 0.053656247
vt 0.029667765 0.050427172
vt 0.049203485 0.050427172
vt 0.029667765 0.009755494
vt 0.0069428384 0.053656247
vt 0.026478559 0.09432794
vt 0.026478559 0.053656247
vt 0.0069428384 0.050427172
vt 0.026478559 0.050427172
vt 0.026478559 0.009755494
vt 0.0468773 0.028172027
vt 0.05610157 0.051469304
vt 0.06532584 0.028172027
vt 0.05610157 0.0048747715
vt 0.16665493 0.09270388
vt 0.16535456 0.06954046
vt 0.14564323 0.09270388
vt 0.16535456 0.06954046
vt 0.16665493 0.09270388
vt 0.20042138 0.09270388
vt 0.20042138 0.06954046
vt 0.14132366 0.029677674
vt 0.17988972 0.029677674
vt 0.18418404 0.0053522196
vt 0.15641049 0.0053522196
vt 0.15705812 0.029677674
vt 0.15131502 0.029677674
vt 0.14625567 0.0053522196
vt 0.18418404 0.0053522196
vt 0.14564323 0.09270388
vt 0.16535456 0.06954046
vt 0.12971017 0.06954046
vn -0.51941764 -0.6914685 0.50207233
vn -0.58809376 -0.65931386 0.4684559
vn -0.58809376 -0.65931386 0.4684559
vn -0.49794376 -0.70025665 0.5115591
vn -0.23337996 -0.77924985 0.58163863
vn -0.2493752 -0.77732635 0.57756025
vn -0.21221061 -0.78411525 0.5832065
vn -0.23776384 -0.7783104 0.5811206
vn 0.63674283 -0.54592264 0.5445429
vn 0.72053844 -0.47133413 0.5085946
vn 0.71910995 -0.47390437 0.50822777
vn 0.79153234 -0.2873798 0.5393417
vn 0.8270778 -0.38062388 0.41360325
vn 0.79619056 -0.34125182 0.4996277
vn 0.7833187 -0.30260757 0.54299206
vn 0.6549017 -0.46115017 0.59870225
vn 0.69701177 -0.42557108 0.5771167
vn 0.71156 -0.4124101 0.5688588
vn 0.6549017 -0.46115014 0.59870225
vn 0.95169055 0.11240835 0.28574377
vn 0.95169055 0.11240833 0.28574374
vn 0.95169055 0.11240833 0.28574374
vn 0.97349244 -0.22361633 -0.048043888
vn 0.97349244 -0.22361633 -0.048043884
vn 0.97349244 -0.22361638 -0.04804389
vn 0.100659005 -0.5084322 0.8551985
vn 0.100659005 -0.5084322 0.85519844
vn 0.100659005 -0.5084322 0.85519844
vn 0.12245365 -0.8444684 0.52141935
vn 0.122453645 -0.8444684 0.5214193
vn 0.12245365 -0.8444684 0.52141935
vn -0.7020118 0.4784379 -0.5275194
vn -0.70201224 0.47843885 -0.5275179
vn -0.7020118 0.4784378 -0.5275194
vn -0.70201147 0.47843686 -0.5275208
vn -0.057541616 -0.5855309 0.8086053
vn -0.057541616 -0.5855309 0.8086053
vn -0.057541627 -0.58553094 0.8086053
vn -0.00588522 -0.8925177 0.4509738
vn -0.00588522 -0.8925177 0.45097384
vn -0.005885221 -0.8925177 0.45097384
vn -0.97035766 -0.06745799 0.23206776
vn -0.97035766 -0.06745799 0.23206776
vn -0.97035766 -0.06745799 0.23206776
vn -0.9187088 -0.3744485 -0.12554857
vn -0.9187088 -0.3744485 -0.12554857
vn -0.9187088 -0.3744485 -0.12554857
vn 0.6380344 0.6273976 -0.44641286
vn 0.638035 0.6273963 -0.44641358
vn 0.6380344 0.62739754 -0.44641286
vn 0.6380337 0.62739885 -0.44641203
vn -0.7611918 -0.5077076 0.4035098
vn -0.8495304 -0.32752088 0.41355556
vn -0.7371219 -0.52564067 0.42468002
vn -0.5836952 -0.62633437 0.5167254
vn -0.5760577 -0.63059145 0.5201077
vn -0.53853464 -0.6503325 0.5357686
vn -0.53853464 -0.6503325 0.5357687
vn -0.30215493 -0.76558113 0.5679683
vn 0.23546487 -0.78122705 0.57813555
vn 0.23858756 -0.78021556 0.5782211
vn 0.14373994 -0.8027808 0.57868975
vn 0.15501058 -0.8011789 0.5780002
vn 0.12044604 -0.8057538 0.5798738
vn 0.12044605 -0.8057538 0.5798738
vn 0.6494458 -0.5447524 0.5305327
vn -0.7799744 -0.506414 0.36767504
vn -0.7799744 -0.506414 0.36767504
vn -0.7799744 -0.506414 0.36767504
g SeparateMesh_NPC_Twiggy_Model_Twiggy_Headwear_LOD2_0
f 3/3/3 2/2/2 1/1/1
f 4/4/4 3/3/3 1/1/1
f 7/7/7 6/6/6 5/5/5
f 8/8/8 7/7/7 5/5/5
f 11/11/11 10/10/10 9/9/9
f 14/14/14 13/13/13 12/12/12
f 15/15/15 14/14/14 12/12/12
f 18/18/18 17/17/17 16/16/16
f 19/19/19 18/18/18 16/16/16
f 22/22/22 21/21/21 20/20/20
f 25/25/25 24/24/24 23/23/23
f 28/28/28 27/27/27 26/26/26
f 31/31/31 30/30/30 29/29/29
f 34/34/34 33/33/33 32/32/32
f 34/34/34 32/32/32 35/35/35
f 38/38/38 37/37/37 36/36/36
f 41/41/41 40/40/40 39/39/39
f 44/44/44 43/43/43 42/42/42
f 47/47/47 46/46/46 45/45/45
f 50/50/50 49/49/49 48/48/48
f 50/50/50 48/48/48 51/51/51
f 54/54/54 53/53/53 52/52/52
f 57/57/57 56/56/56 55/55/55
f 58/58/58 57/57/57 55/55/55
f 59/59/59 6/6/6 7/7/7
f 62/62/62 61/61/61 60/60/60
f 63/63/63 62/62/62 60/60/60
f 62/62/62 63/63/63 64/64/64
f 65/65/65 62/62/62 64/64/64
f 11/11/11 9/9/9 66/66/66
f 69/69/69 68/68/68 67/67/67
