g SeparateMesh_NPC_Twiggy_Model_Twiggy_Headwear_LOD1
v -0.05832579 -0.06468994 1.4838291
v -0.054968648 -0.054509275 1.5038136
v -0.043564003 -0.060553588 1.5113093
v -0.04526144 -0.073460385 1.4925914
v -0.025061218 -0.06661972 1.5184911
v -0.02587693 -0.07995361 1.5002933
v -0.025061218 -0.06661972 1.5184911
v -0.013573227 -0.068858184 1.5209537
v -0.013572819 -0.08219498 1.502977
v -0.02587693 -0.07995361 1.5002933
v 0.023252334 -0.06450164 1.5171157
v 0.038057934 -0.058469694 1.5106277
v 0.04131825 -0.071466215 1.4921919
v 0.048286356 -0.051203154 1.5021183
v 0.054225434 -0.062039334 1.4843603
v -0.00028145194 -0.06550217 1.527498
v 0.023252334 -0.06450164 1.5171157
v 0.025090382 -0.07752609 1.4989636
v 0.012752152 -0.07954269 1.5014735
v 0.011707244 -0.06686981 1.519617
v 0.0061784815 -0.06961121 1.5179209
v 0.0014685681 -0.086349025 1.4959583
v 0.025090382 -0.07752609 1.4989636
v -0.048718914 -0.052654725 1.5255302
v -0.051148605 -0.07615341 1.5082814
v -0.05398931 -0.06592666 1.4991189
v -0.051148605 -0.07615341 1.5082814
v -0.04282413 -0.0887677 1.4834197
v -0.05398931 -0.06592666 1.4991189
v -0.037557274 -0.07550857 1.5097451
v -0.051148605 -0.07615341 1.5082814
v -0.048718914 -0.052654725 1.5255302
v -0.037557274 -0.07550857 1.5097451
v -0.04282413 -0.0887677 1.4834197
v -0.051148605 -0.07615341 1.5082814
v -0.05398931 -0.06592666 1.4991189
v -0.037557274 -0.07550857 1.5097451
v -0.048718914 -0.052654725 1.5255302
v -0.04282413 -0.0887677 1.4834197
v 0.041236408 -0.04806961 1.5254496
v 0.05017899 -0.062105253 1.5005057
v 0.04843007 -0.07199081 1.5103133
v 0.04843007 -0.07199081 1.5103133
v 0.05017899 -0.062105253 1.5005057
v 0.043771118 -0.08760773 1.4861419
v 0.03482907 -0.07358337 1.5110081
v 0.041236408 -0.04806961 1.5254496
v 0.04843007 -0.07199081 1.5103133
v 0.03482907 -0.07358337 1.5110081
v 0.04843007 -0.07199081 1.5103133
v 0.043771118 -0.08760773 1.4861419
v 0.05017899 -0.062105253 1.5005057
v 0.041236408 -0.04806961 1.5254496
v 0.03482907 -0.07358337 1.5110081
v 0.043771118 -0.08760773 1.4861419
v 0.037043497 -0.07807495 1.4988786
v 0.038457196 -0.07900192 1.5001041
v 0.04824864 -0.07192703 1.4925888
v 0.04672862 -0.07107315 1.4914455
v 0.039318185 -0.057097014 1.5085808
v 0.040826462 -0.057957914 1.5097387
v 0.033036698 -0.06415161 1.5163652
v 0.0316252 -0.06322449 1.515132
v 0.05628562 -0.064052425 1.4840013
v 0.05471404 -0.063123934 1.4829928
v 0.046219163 -0.050690155 1.5014465
v 0.047724966 -0.051582947 1.5024164
v 0.06300645 -0.055562895 1.4749937
v 0.061426915 -0.054547574 1.4740738
v 0.05088877 -0.045578156 1.4958236
v 0.052462373 -0.046593476 1.4967433
v 0.038457196 -0.07900192 1.5001041
v 0.033036698 -0.06415161 1.5163652
v 0.040826462 -0.057957914 1.5097387
v 0.04824864 -0.07192703 1.4925888
v 0.047724966 -0.051582947 1.5024164
v 0.05628562 -0.064052425 1.4840013
v 0.052462373 -0.046593476 1.4967433
v 0.06300645 -0.055562895 1.4749937
v 0.04672862 -0.07107315 1.4914455
v 0.039318185 -0.057097014 1.5085808
v 0.0316252 -0.06322449 1.515132
v 0.037043497 -0.07807495 1.4988786
v 0.05471404 -0.063123934 1.4829928
v 0.046219163 -0.050690155 1.5014465
v 0.061426915 -0.054547574 1.4740738
v 0.05088877 -0.045578156 1.4958236
v 0.025410887 -0.085613705 1.5064572
v 0.021421041 -0.070349574 1.5223459
v 0.022749841 -0.07134521 1.5236278
v 0.026739951 -0.086611174 1.5077319
v 0.022749841 -0.07134521 1.5236278
v 0.026739951 -0.086611174 1.5077319
v 0.025410887 -0.085613705 1.5064572
v 0.026739951 -0.086611174 1.5077319
v 0.025410887 -0.085613705 1.5064572
v 0.021421041 -0.070349574 1.5223459
v 0.021421041 -0.070349574 1.5223459
v 0.022749841 -0.07134521 1.5236278
v -0.07056608 -0.05549728 1.4747486
v -0.059232764 -0.06630829 1.4848312
v -0.057732634 -0.065486446 1.483913
v -0.06928658 -0.054882962 1.4742099
v -0.05963994 -0.050560758 1.4996684
v -0.0547742 -0.054253384 1.5039431
v -0.056372665 -0.055239562 1.504816
v -0.06104223 -0.05123413 1.5002592
v -0.04977892 -0.074291684 1.4927648
v -0.048432246 -0.073091276 1.4917177
v -0.04587813 -0.060312804 1.5108016
v -0.047224525 -0.061511688 1.5118542
v -0.03818112 -0.081009366 1.4997708
v -0.037011247 -0.07968002 1.498654
v -0.03549795 -0.065951996 1.5168283
v -0.036675397 -0.06727417 1.517949
v -0.036675397 -0.06727417 1.517949
v -0.03818112 -0.081009366 1.4997708
v -0.04977892 -0.074291684 1.4927648
v -0.047224525 -0.061511688 1.5118542
v -0.023662288 -0.071474 1.5224061
v -0.024896797 -0.08511749 1.5044715
v -0.025972812 -0.08651169 1.5056177
v -0.024738008 -0.07286621 1.5235585
v -0.024896797 -0.08511749 1.5044715
v -0.025972812 -0.08651169 1.5056177
v -0.024738008 -0.07286621 1.5235585
v -0.023662288 -0.071474 1.5224061
v -0.059232764 -0.06630829 1.4848312
v -0.056372665 -0.055239562 1.504816
v -0.07056608 -0.05549728 1.4747486
v -0.06104223 -0.05123413 1.5002592
v -0.057732634 -0.065486446 1.483913
v -0.0547742 -0.054253384 1.5039431
v -0.05963994 -0.050560758 1.4996684
v -0.06928658 -0.054882962 1.4742099
v -0.048432246 -0.073091276 1.4917177
v -0.04587813 -0.060312804 1.5108016
v -0.037011247 -0.07968002 1.498654
v -0.03549795 -0.065951996 1.5168283
v -0.023662288 -0.071474 1.5224061
v -0.024896797 -0.08511749 1.5044715
v -0.024738008 -0.07286621 1.5235585
v -0.025972812 -0.08651169 1.5056177
vt 0.06944753 0.0053522196
vt 0.07634623 0.029677674
vt 0.094001405 0.029677674
vt 0.08964387 0.0053522196
vt 0.11618763 0.029677674
vt 0.11373262 0.0053522196
vt 0.11618763 0.029677674
vt 0.12780154 0.029677674
vt 0.12669504 0.0053522196
vt 0.11373262 0.0053522196
vt 0.16993165 0.029677674
vt 0.1898478 0.029677674
vt 0.19514915 0.0053522196
vt 0.20378207 0.029677674
vt 0.21173061 0.0053522196
vt 0.14132366 0.029677674
vt 0.16993165 0.029677674
vt 0.17321894 0.0053522196
vt 0.15641049 0.0053522196
vt 0.15705812 0.029677674
vt 0.15131502 0.029677674
vt 0.14625567 0.0053522196
vt 0.17321894 0.0053522196
vt 0.029667765 0.09432794
vt 0.029667765 0.053656247
vt 0.049203485 0.053656247
vt 0.029667765 0.050427172
vt 0.029667765 0.009755494
vt 0.049203485 0.050427172
vt 0.0069428384 0.053656247
vt 0.026478559 0.053656247
vt 0.026478559 0.09432794
vt 0.0069428384 0.050427172
vt 0.026478559 0.009755494
vt 0.026478559 0.050427172
vt 0.0468773 0.028172027
vt 0.06532584 0.028172027
vt 0.05610157 0.051469304
vt 0.05610157 0.0048747715
vt 0.029667765 0.09432794
vt 0.049203485 0.053656247
vt 0.029667765 0.053656247
vt 0.029667765 0.050427172
vt 0.049203485 0.050427172
vt 0.029667765 0.009755494
vt 0.0069428384 0.053656247
vt 0.026478559 0.09432794
vt 0.026478559 0.053656247
vt 0.0069428384 0.050427172
vt 0.026478559 0.050427172
vt 0.026478559 0.009755494
vt 0.0468773 0.028172027
vt 0.05610157 0.051469304
vt 0.06532584 0.028172027
vt 0.05610157 0.0048747715
vt 0.16345406 0.035516642
vt 0.16345406 0.03797184
vt 0.17617537 0.03797184
vt 0.17617537 0.035516642
vt 0.17754675 0.06377334
vt 0.17754675 0.061200146
vt 0.16590007 0.061200146
vt 0.16590007 0.06377334
vt 0.18876494 0.03797184
vt 0.18876494 0.035516642
vt 0.1897309 0.06377334
vt 0.1897309 0.061200146
vt 0.20154591 0.03797184
vt 0.20154591 0.035516642
vt 0.19970237 0.06377334
vt 0.19970237 0.061200146
vt 0.074420765 0.06914689
vt 0.07372789 0.09270388
vt 0.08794674 0.09270388
vt 0.08968021 0.06914689
vt 0.10216841 0.09270388
vt 0.10509364 0.06914689
vt 0.11564341 0.09270388
vt 0.12386055 0.06914689
vt 0.17850904 0.042006064
vt 0.17915593 0.05722511
vt 0.18779604 0.05722511
vt 0.18761964 0.042006064
vt 0.16953008 0.042006064
vt 0.17205884 0.05722511
vt 0.15786025 0.042006064
vt 0.16646709 0.05722511
vt 0.04955022 0.06903906
vt 0.04955022 0.09259605
vt 0.052303955 0.09259605
vt 0.052303955 0.06903906
vt 0.057206184 0.09270388
vt 0.057206184 0.06914689
vt 0.14925656 0.035516642
vt 0.14925656 0.03797184
vt 0.19786926 0.042006064
vt 0.19786926 0.05722511
vt 0.15175138 0.06377334
vt 0.15175138 0.061200146
vt 0.080439195 0.06377334
vt 0.096924886 0.06377334
vt 0.096924886 0.061200146
vt 0.080439195 0.061200146
vt 0.08320333 0.03797184
vt 0.09180437 0.03797184
vt 0.09180437 0.035516642
vt 0.08320333 0.035516642
vt 0.11016123 0.06377334
vt 0.11016123 0.061200146
vt 0.10486422 0.03797184
vt 0.10486422 0.035516642
vt 0.12374939 0.06377334
vt 0.12374939 0.061200146
vt 0.11836369 0.03797184
vt 0.11836369 0.035516642
vt 0.18513665 0.09270388
vt 0.18513665 0.06954046
vt 0.17059614 0.06954046
vt 0.17059614 0.09270388
vt 0.20434955 0.06928247
vt 0.20434955 0.09283946
vt 0.2072303 0.09283946
vt 0.2072303 0.06928247
vt 0.13663442 0.061200146
vt 0.13663442 0.06377334
vt 0.13270086 0.035516642
vt 0.13270086 0.03797184
vt 0.15284273 0.06954046
vt 0.15544346 0.09270388
vt 0.12971017 0.06954046
vt 0.14564323 0.09270388
vt 0.11646338 0.042006064
vt 0.11162187 0.05722511
vt 0.11779793 0.05722511
vt 0.12964384 0.042006064
vt 0.10604991 0.042006064
vt 0.10230438 0.05722511
vt 0.09516774 0.042006064
vt 0.092617884 0.05722511
vt 0.08222176 0.05722511
vt 0.08454795 0.042006064
vt 0.20042138 0.09270388
vt 0.20042138 0.06954046
vn -0.58809376 -0.65931386 0.4684559
vn -0.58809376 -0.65931386 0.4684559
vn -0.49794376 -0.70025665 0.5115591
vn -0.51941764 -0.6914685 0.50207233
vn -0.35505185 -0.7492209 0.55911195
vn -0.37064734 -0.7444873 0.555301
vn -0.23337996 -0.77924985 0.58163863
vn -0.2493752 -0.77732635 0.57756025
vn -0.21221061 -0.78411525 0.5832065
vn -0.23776384 -0.7783104 0.5811206
vn 0.36821118 -0.72770673 0.57867384
vn 0.63674283 -0.54592264 0.5445429
vn 0.6494458 -0.5447524 0.5305327
vn 0.72053844 -0.47133413 0.5085946
vn 0.71910995 -0.47390437 0.50822777
vn -0.30215493 -0.76558113 0.5679683
vn 0.23546487 -0.78122705 0.57813555
vn 0.23858756 -0.78021556 0.5782211
vn 0.14373994 -0.8027808 0.57868975
vn 0.15501058 -0.8011789 0.5780002
vn 0.12044604 -0.8057538 0.5798738
vn 0.12044605 -0.8057538 0.5798738
vn 0.3793862 -0.72975415 0.5687926
vn -0.9715859 -0.06631851 0.2272062
vn -0.9715859 -0.0663185 0.22720622
vn -0.9715859 -0.06631851 0.22720619
vn -0.9223232 -0.3663395 -0.12294383
vn -0.9223232 -0.3663395 -0.12294383
vn -0.9223232 -0.3663395 -0.12294383
vn -0.059134018 -0.58671415 0.80763215
vn -0.059134014 -0.58671415 0.80763215
vn -0.059134018 -0.58671415 0.80763215
vn -0.0061935624 -0.8925996 0.45080778
vn -0.006193563 -0.8925996 0.45080784
vn -0.006193563 -0.8925996 0.45080778
vn 0.64766645 0.6208087 -0.4417292
vn 0.64766616 0.62081057 -0.4417272
vn 0.64761114 0.6211314 -0.44135654
vn 0.64772147 0.6204867 -0.44210103
vn 0.9536496 0.10940151 0.280328
vn 0.9536496 0.10940149 0.280328
vn 0.9536496 0.10940151 0.280328
vn 0.9746868 -0.21866566 -0.046592414
vn 0.9746868 -0.21866561 -0.046592418
vn 0.9746868 -0.21866566 -0.04659242
vn 0.1033019 -0.5094781 0.8542604
vn 0.1033019 -0.5094781 0.8542604
vn 0.103301905 -0.5094781 0.8542604
vn 0.12548628 -0.8441494 0.52121484
vn 0.1254863 -0.8441495 0.52121484
vn 0.1254863 -0.8441495 0.52121484
vn -0.71032304 0.4728353 -0.5214097
vn -0.7103525 0.4732755 -0.5209699
vn -0.710323 0.47283417 -0.52141064
vn -0.7102932 0.47239238 -0.52185154
vn 0.06115264 -0.7588003 -0.64844614
vn 0.061303657 -0.7586528 -0.6486044
vn 0.04491841 -0.7554453 -0.6536703
vn 0.04378685 -0.75474524 -0.65455496
vn -0.038521696 0.76064634 0.6480226
vn -0.04099092 0.76095665 0.6475065
vn -0.06429743 0.75884587 0.6480885
vn -0.063905776 0.7592108 0.6476997
vn 0.010162985 -0.73452294 -0.67850775
vn 0.0050183404 -0.7314193 -0.6819095
vn 0.005889467 0.7456183 0.6663473
vn 0.0015361476 0.7478305 0.6638878
vn -0.016856423 -0.7178354 -0.6960088
vn -0.016856423 -0.7178354 -0.6960088
vn 0.034319468 0.7306196 0.6819217
vn 0.034319468 0.7306196 0.6819217
vn 0.7113206 -0.38332185 0.58914125
vn 0.70487094 -0.3928498 0.59061486
vn 0.7637419 -0.30701742 0.5678368
vn 0.7782452 -0.2853037 0.55940694
vn 0.82103026 -0.21949364 0.52700275
vn 0.83164704 -0.20396923 0.51648796
vn 0.84834236 -0.17811167 0.49858952
vn 0.84834236 -0.17811163 0.49858946
vn -0.7770763 0.2880796 -0.5596092
vn -0.76328766 0.30830416 -0.5677503
vn -0.70488095 0.39273342 -0.5906803
vn -0.7113692 0.38316596 -0.58918387
vn -0.8314711 0.20622243 -0.5158761
vn -0.82046324 0.22249366 -0.52662766
vn -0.8492666 0.17825979 -0.49696043
vn -0.8492666 0.17825979 -0.49696043
vn -0.7531427 -0.5586034 0.3474743
vn -0.7531427 -0.5586033 0.34747425
vn -0.7531427 -0.5586033 0.3474743
vn -0.7531427 -0.5586033 0.3474743
vn 0.6852939 -0.42064685 0.5944986
vn 0.68529385 -0.4206468 0.5944986
vn 0.06496731 -0.75505716 -0.65243226
vn 0.06496731 -0.75505716 -0.65243226
vn -0.6852331 0.42057714 -0.5946179
vn -0.6852331 0.42057714 -0.5946179
vn -0.06773355 0.755629 0.6514883
vn -0.06773355 0.75562906 0.65148824
vn -0.02176685 -0.69092906 -0.7225948
vn -0.0064404765 -0.6974581 -0.7165967
vn -0.006486837 -0.69743854 -0.7166152
vn -0.021766853 -0.69092906 -0.72259486
vn -0.06019956 0.71933585 0.6920491
vn -0.061205115 0.71002376 0.70151275
vn -0.061169602 0.7103566 0.7011789
vn -0.06019956 0.71933585 0.6920491
vn 0.032927845 -0.6904024 -0.7226758
vn 0.030831382 -0.6917147 -0.72151244
vn -0.056723565 0.69346017 0.71825856
vn -0.056522243 0.6929718 0.7187456
vn 0.05464735 -0.67193365 -0.7385925
vn 0.054489907 -0.67228484 -0.7382845
vn -0.047128167 0.67156297 0.73944724
vn -0.046957232 0.6712003 0.7397872
vn -0.58612204 -0.6252637 0.51527315
vn -0.59376 -0.6208551 0.5118475
vn -0.6938148 -0.5580239 0.4552257
vn -0.67736423 -0.569225 0.46600506
vn 0.8571894 -0.436615 0.27311847
vn 0.8571894 -0.43661496 0.27311847
vn 0.8571894 -0.436615 0.27311847
vn 0.8571894 -0.436615 0.2731185
vn 0.05745927 -0.6656296 -0.7440669
vn 0.05745927 -0.66562957 -0.74406695
vn -0.04265197 0.66201407 0.7482768
vn -0.04265197 0.66201407 0.7482768
vn -0.76987714 -0.49972758 0.39694032
vn -0.75985503 -0.50796854 0.40569487
vn -0.79104453 -0.48136184 0.37754372
vn -0.79104453 -0.48136187 0.37754372
vn 0.756562 0.5145211 -0.4035864
vn 0.7499529 0.5180487 -0.4113347
vn 0.7704624 0.50674117 -0.38678297
vn 0.7704624 0.50674117 -0.38678297
vn 0.69178486 0.55872804 -0.45744592
vn 0.67549133 0.56993634 -0.46785045
vn 0.59350765 0.62095755 -0.51201606
vn 0.58568853 0.6254686 -0.51551723
vn 0.5483134 0.6458276 -0.5312807
vn 0.54831344 0.64582753 -0.5312807
vn -0.5486663 -0.64567745 0.53109866
vn -0.5486663 -0.64567757 0.5310987
g SeparateMesh_NPC_Twiggy_Model_Twiggy_Headwear_LOD1_0
f 3/3/3 2/2/2 1/1/1
f 4/4/4 3/3/3 1/1/1
f 5/5/5 3/3/3 4/4/4
f 6/6/6 5/5/5 4/4/4
f 9/9/9 8/8/8 7/7/7
f 10/10/10 9/9/9 7/7/7
f 13/13/13 12/12/12 11/11/11
f 15/15/15 14/14/14 12/12/12
f 16/16/16 8/8/8 9/9/9
f 19/19/19 18/18/18 17/17/17
f 20/20/20 19/19/19 17/17/17
f 19/19/19 20/20/20 21/21/21
f 22/22/22 19/19/19 21/21/21
f 15/15/15 12/12/12 13/13/13
f 13/13/13 11/11/11 23/23/23
f 26/26/26 25/25/25 24/24/24
f 29/29/29 28/28/28 27/27/27
f 32/32/32 31/31/31 30/30/30
f 35/35/35 34/34/34 33/33/33
f 38/38/38 37/37/37 36/36/36
f 36/36/36 37/37/37 39/39/39
f 42/42/42 41/41/41 40/40/40
f 45/45/45 44/44/44 43/43/43
f 48/48/48 47/47/47 46/46/46
f 51/51/51 50/50/50 49/49/49
f 54/54/54 53/53/53 52/52/52
f 54/54/54 52/52/52 55/55/55
f 58/58/58 57/57/57 56/56/56
f 59/59/59 58/58/58 56/56/56
f 62/62/62 61/61/61 60/60/60
f 63/63/63 62/62/62 60/60/60
f 64/64/64 58/58/58 59/59/59
f 65/65/65 64/64/64 59/59/59
f 61/61/61 67/67/67 66/66/66
f 60/60/60 61/61/61 66/66/66
f 69/69/69 68/68/68 64/64/64
f 65/65/65 69/69/69 64/64/64
f 71/71/71 70/70/70 66/66/66
f 67/67/67 71/71/71 66/66/66
f 74/74/74 73/73/73 72/72/72
f 75/75/75 74/74/74 72/72/72
f 76/76/76 74/74/74 75/75/75
f 77/77/77 76/76/76 75/75/75
f 77/77/77 79/79/79 78/78/78
f 76/76/76 77/77/77 78/78/78
f 82/82/82 81/81/81 80/80/80
f 83/83/83 82/82/82 80/80/80
f 81/81/81 85/85/85 84/84/84
f 80/80/80 81/81/81 84/84/84
f 87/87/87 86/86/86 84/84/84
f 85/85/85 87/87/87 84/84/84
f 90/90/90 89/89/89 88/88/88
f 91/91/91 90/90/90 88/88/88
f 72/72/72 73/73/73 92/92/92
f 93/93/93 72/72/72 92/92/92
f 94/94/94 56/56/56 57/57/57
f 95/95/95 94/94/94 57/57/57
f 82/82/82 83/83/83 96/96/96
f 97/97/97 82/82/82 96/96/96
f 62/62/62 63/63/63 98/98/98
f 99/99/99 62/62/62 98/98/98
f 102/102/102 101/101/101 100/100/100
f 103/103/103 102/102/102 100/100/100
f 106/106/106 105/105/105 104/104/104
f 107/107/107 106/106/106 104/104/104
f 108/108/108 101/101/101 102/102/102
f 109/109/109 108/108/108 102/102/102
f 106/106/106 111/111/111 110/110/110
f 105/105/105 106/106/106 110/110/110
f 112/112/112 108/108/108 109/109/109
f 113/113/113 112/112/112 109/109/109
f 111/111/111 115/115/115 114/114/114
f 110/110/110 111/111/111 114/114/114
f 118/118/118 117/117/117 116/116/116
f 119/119/119 118/118/118 116/116/116
f 122/122/122 121/121/121 120/120/120
f 123/123/123 122/122/122 120/120/120
f 112/112/112 113/113/113 124/124/124
f 125/125/125 112/112/112 124/124/124
f 114/114/114 115/115/115 126/126/126
f 127/127/127 114/114/114 126/126/126
f 128/128/128 118/118/118 119/119/119
f 129/129/129 128/128/128 119/119/119
f 130/130/130 128/128/128 129/129/129
f 131/131/131 130/130/130 129/129/129
f 134/134/134 133/133/133 132/132/132
f 135/135/135 134/134/134 132/132/132
f 136/136/136 132/132/132 133/133/133
f 137/137/137 136/136/136 133/133/133
f 138/138/138 136/136/136 137/137/137
f 139/139/139 138/138/138 137/137/137
f 138/138/138 139/139/139 140/140/140
f 141/141/141 138/138/138 140/140/140
f 142/142/142 116/116/116 117/117/117
f 143/143/143 142/142/142 117/117/117
