g Bangboo_Butler_Weapon_04_LOD0
v -0.023824258 -0.077517405 -0.015233302
v 0.0073984438 -0.080857106 -0.004596163
v 0.0078037838 -0.081491105 -0.015340573
v 0.0391975 -0.07281145 -0.0151284505
v -0.023607947 -0.07662996 -0.0043832725
v -0.052351058 -0.06288453 -0.014848889
v 0.03818092 -0.07258753 -0.0041954657
v 0.06384842 -0.050724044 -0.014917721
v 0.0063370042 -0.0704304 -4.795158E-05
v 0.06283883 -0.051139012 -0.0042373156
v 0.07773448 -0.021460282 -0.014608789
v -0.05167132 -0.061944604 -0.0034816277
v -0.020180957 -0.06622378 -0.00034233904
v -0.07316428 -0.03810122 -0.0023617437
v -0.07427739 -0.03885927 -0.013670715
v -0.08556402 -0.0075877607 -0.0012173136
v -0.08675047 -0.007835558 -0.012088495
v -0.08727985 0.026357329 -0.0110118855
v 0.032448385 -0.06371035 0.00044338978
v 0.0537278 -0.04550135 0.00055465987
v 0.076532565 -0.022073234 -0.003333324
v 0.006810451 -0.03742594 -0.0057112286
v 0.028218936 -0.026105901 -0.0052894223
v -0.00032418667 0.0010490223 -0.0075405464
v -0.015824994 -0.032416556 -0.005864872
v 0.034488533 -0.003603155 -0.005015639
v 0.06569157 -0.01994532 0.000802543
v 0.081149764 0.010633064 -0.0023250966
v 0.082323246 0.011356261 -0.0132451225
v 0.074221455 0.04479437 -0.012253538
v 0.07025252 0.008700994 0.0024111636
v -0.044418186 -0.052684654 0.00010473159
v 0.073294714 0.04392568 -0.00069201185
v 0.051375903 0.06993009 -0.012285723
v 0.03135532 0.019359337 -0.0033573012
v 0.06428716 0.038188525 0.0050050113
v 0.050789468 0.06909108 0.00042782023
v 0.020306453 0.0832707 -0.011680839
v -0.032200508 -0.013889332 -0.0053367442
v -0.06299183 -0.03181132 0.00132268
v -0.07384585 -0.0056513464 0.0034719375
v 0.0137537215 0.033750284 -0.0025324181
v 0.044860516 0.060587816 0.0066266083
v 0.017245203 0.072216995 0.007245096
v -0.035516575 0.007471292 -0.0040209554
v -0.08601387 0.026015371 0.00085702224
v 0.019945092 0.08225392 0.0011120504
v -0.012850145 0.08480847 0.0015352971
v -0.012900118 0.08586447 -0.010814498
v -0.011910056 0.073942386 0.0078889225
v -0.045083005 0.07653409 0.0024209844
v -0.04569839 0.07759878 -0.010664044
v -0.007153058 0.036380745 -0.0021245063
v -0.027173748 0.026969582 -0.0024140656
v -0.07202656 0.056385014 0.002217388
v -0.073038556 0.05718153 -0.010419965
v -0.040149607 0.066816226 0.008371382
v -0.063278146 0.049226657 0.007606021
v -0.07497472 0.023056766 0.00586712
v -0.06654092 0.05183348 -0.021048699
v -0.04569839 0.07759878 -0.010664044
v -0.073038556 0.05718153 -0.010419965
v -0.08727985 0.026357329 -0.0110118855
v -0.042266417 0.071019195 -0.021669086
v -0.012900118 0.08586447 -0.010814498
v -0.07854107 0.023861606 -0.021141894
v -0.08675047 -0.007835558 -0.012088495
v -0.012134426 0.07889792 -0.022341864
v -0.027774937 0.04362769 -0.030287504
v 0.018533712 0.07619384 -0.022629168
v 0.020306453 0.0832707 -0.011680839
v -0.04490057 0.02364898 -0.030214936
v -0.00079955516 0.0026921046 -0.037375525
v -0.047560837 -0.0023381875 -0.030763494
v 0.0013984543 0.04918319 -0.031038085
v -0.077039815 -0.0065052914 -0.021983214
v 0.046990983 0.063812934 -0.022061685
v 0.051375903 0.06993009 -0.012285723
v 0.030731954 0.04129096 -0.03023082
v 0.066892624 0.040619876 -0.021797797
v 0.074221455 0.04479437 -0.012253538
v 0.082323246 0.011356261 -0.0132451225
v -0.065303795 -0.033665247 -0.022812419
v -0.07427739 -0.03885927 -0.013670715
v -0.034119107 -0.026791465 -0.031738244
v -0.045811657 -0.05492814 -0.023265611
v -0.052351058 -0.06288453 -0.014848889
v -0.023824258 -0.077517405 -0.015233302
v 0.04457447 0.017512504 -0.030767674
v 0.073747 0.010814502 -0.02213396
v 0.07773448 -0.021460282 -0.014608789
v -0.011933997 -0.042840045 -0.0314793
v -0.020613667 -0.068116695 -0.023355957
v 0.06911413 -0.018208325 -0.022789404
v 0.014245923 -0.042831045 -0.03126147
v 0.007449594 -0.071719676 -0.023168769
v 0.0078037838 -0.081491105 -0.015340573
v 0.0391975 -0.07281145 -0.0151284505
v 0.04067331 -0.019055411 -0.031250197
v 0.056984957 -0.044493113 -0.022730727
v 0.06384842 -0.050724044 -0.014917721
v 0.035008784 -0.063561484 -0.023022447
vt 0.6154568 0.93747395
vt 0.61424166 0.89795417
vt 0.60193187 0.8991073
vt 0.60428673 0.8576025
vt 0.6265248 0.9315768
vt 0.6414994 0.968965
vt 0.61608666 0.8618379
vt 0.6241677 0.8204531
vt 0.62821877 0.8964258
vt 0.63303846 0.8289129
vt 0.65588415 0.79422724
vt 0.6502247 0.9591034
vt 0.6391123 0.9243633
vt 0.6824599 0.97688717
vt 0.6777468 0.9892336
vt 0.7198192 0.98270553
vt 0.71996915 0.9953464
vt 0.762708 0.98596233
vt 0.62931955 0.86649764
vt 0.64358324 0.8388978
vt 0.66162366 0.8059906
vt 0.6641518 0.8879293
vt 0.6710809 0.8618879
vt 0.7074683 0.886041
vt 0.67510533 0.91120046
vt 0.69371 0.8495803
vt 0.6680818 0.8193579
vt 0.6969058 0.79266
vt 0.6954284 0.78004134
vt 0.738977 0.78105104
vt 0.6980088 0.8075835
vt 0.65995854 0.9474645
vt 0.7357135 0.7934797
vt 0.77797586 0.7999146
vt 0.7191983 0.847451
vt 0.7312426 0.80731577
vt 0.76926386 0.81145126
vt 0.80536026 0.8339737
vt 0.6992384 0.92420894
vt 0.687534 0.962318
vt 0.7188461 0.9672478
vt 0.7391803 0.86270654
vt 0.76010764 0.82257915
vt 0.77990085 0.84889054
vt 0.7231638 0.9221973
vt 0.7571152 0.97359365
vt 0.79279053 0.84149814
vt 0.8045238 0.8774401
vt 0.81893635 0.8752819
vt 0.7891193 0.8796939
vt 0.802731 0.9155337
vt 0.817148 0.9194792
vt 0.747298 0.8843225
vt 0.7420995 0.9081269
vt 0.7867023 0.95008594
vt 0.7976402 0.9593933
vt 0.788454 0.911758
vt 0.7752089 0.9409552
vt 0.75014824 0.9605307
vt 0.7753648 0.832273
vt 0.8042323 0.85906744
vt 0.7864255 0.8233646
vt 0.75452316 0.79979545
vt 0.79065657 0.8630069
vt 0.8070607 0.8986898
vt 0.747771 0.8125282
vt 0.71533924 0.79208523
vt 0.7926341 0.8974759
vt 0.7571653 0.87264913
vt 0.7830692 0.9302866
vt 0.79598635 0.93633467
vt 0.73920983 0.84931415
vt 0.7059686 0.8930327
vt 0.7113124 0.84028476
vt 0.75684595 0.9057495
vt 0.7141292 0.8067918
vt 0.7635149 0.9587434
vt 0.7724172 0.96835583
vt 0.741854 0.93616015
vt 0.7338879 0.9758083
vt 0.73818827 0.98846763
vt 0.6980759 0.9903719
vt 0.68127286 0.8132502
vt 0.6769188 0.7992797
vt 0.68126297 0.849443
vt 0.65308386 0.8299145
vt 0.64436597 0.81885195
vt 0.6209278 0.84800494
vt 0.71268314 0.9463677
vt 0.69948816 0.97733754
vt 0.6615162 0.97745675
vt 0.65844953 0.87038
vt 0.6326092 0.8549435
vt 0.66808784 0.96608275
vt 0.6525761 0.89950114
vt 0.622235 0.8854057
vt 0.60914713 0.8832833
vt 0.61191225 0.9211878
vt 0.67307466 0.9341864
vt 0.64145607 0.9467446
vt 0.63130796 0.9546035
vt 0.62514895 0.91795856
vn -0.27414995 -0.8683519 -0.41328803
vn 0.057001837 -0.8796071 0.47227323
vn 0.064306214 -0.90313524 -0.42451325
vn 0.4372256 -0.79322195 -0.42383084
vn -0.2559688 -0.83169013 0.49271858
vn -0.5626 -0.72324044 -0.40050542
vn 0.41174442 -0.7827677 0.46662742
vn 0.7342852 -0.5408563 -0.4102436
vn 0.022096947 -0.38988912 0.9205967
vn 0.6978598 -0.5431828 0.46684486
vn 0.88636076 -0.25708732 -0.38505927
vn -0.51488805 -0.685119 0.5152692
vn -0.10014603 -0.36090773 0.92720896
vn -0.7144525 -0.46237722 0.5251333
vn -0.7885696 -0.48677 -0.37578323
vn -0.83685154 -0.18539508 0.5150808
vn -0.92117465 -0.18234645 -0.34378353
vn -0.9273371 0.19759811 -0.31780645
vn 0.17141286 -0.3562722 0.9185248
vn 0.29663518 -0.25939536 0.9190874
vn 0.8325012 -0.26701096 0.48543483
vn 0.017768003 -0.13122503 0.99119335
vn 0.07405543 -0.10452694 0.99176097
vn 0.003641847 -0.05722104 0.99835485
vn -0.038625482 -0.12207614 0.99176884
vn 0.096319765 -0.0602719 0.99352396
vn 0.35479787 -0.14342637 0.9238763
vn 0.875289 0.025176937 0.48294437
vn 0.9381824 0.052640628 -0.3421152
vn 0.83948463 0.44480067 -0.3121183
vn 0.38815147 -0.022889027 0.9213113
vn -0.19900447 -0.29147315 0.9356499
vn 0.7880989 0.39593256 0.47131473
vn 0.55674225 0.7772845 -0.29303062
vn 0.09222009 -0.010681656 0.9956813
vn 0.3710825 0.14190924 0.91769254
vn 0.5282215 0.71408576 0.4594167
vn 0.2297006 0.937394 -0.26178238
vn -0.0758647 -0.08773846 0.9932505
vn -0.27474988 -0.2037026 0.93969023
vn -0.32959312 -0.10528719 0.93823403
vn 0.04769563 0.025176466 0.9985446
vn 0.26097587 0.30060104 0.9173498
vn 0.11057056 0.37389347 0.92085713
vn -0.083375685 -0.04806612 0.9953583
vn -0.846107 0.16098133 0.508122
vn 0.21969229 0.86203367 0.45676395
vn -0.07470351 0.88418806 0.46111915
vn -0.0836833 0.96600026 -0.24462318
vn -0.033556234 0.37382668 0.9268914
vn -0.38287938 0.7882696 0.48169968
vn -0.41839552 0.86969066 -0.26188412
vn -0.00850558 0.030517034 0.999498
vn -0.059747834 0.0007624095 0.9982132
vn -0.6834564 0.5356625 0.4959366
vn -0.7455783 0.6004684 -0.28905135
vn -0.17375274 0.3196588 0.9314656
vn -0.29689837 0.19074695 0.93566394
vn -0.34914425 0.025939746 0.9367099
vn -0.38022378 0.2968163 -0.8759737
vn -0.41839552 0.86969066 -0.26188412
vn -0.7455783 0.6004684 -0.28905135
vn -0.9273371 0.19759811 -0.31780645
vn -0.22480369 0.45857325 -0.85975224
vn -0.0836833 0.96600026 -0.24462318
vn -0.43811357 0.08621177 -0.89477587
vn -0.92117465 -0.18234645 -0.34378353
vn -0.047507815 0.5211202 -0.85216004
vn -0.020933123 0.020599872 -0.99956864
vn 0.12046784 0.49355265 -0.8613323
vn 0.2297006 0.937394 -0.26178238
vn -0.03333102 0.0053411257 -0.99943
vn -0.00020712418 -0.0045770607 -0.9999895
vn -0.032425083 -0.0061030127 -0.9994555
vn 0.002209865 0.02441485 -0.9996995
vn -0.39835462 -0.07705735 -0.9139888
vn 0.28759536 0.39286947 -0.8734658
vn 0.55674225 0.7772845 -0.29303062
vn 0.028538499 0.019836817 -0.99939585
vn 0.40875834 0.20752689 -0.88873464
vn 0.83948463 0.44480067 -0.3121183
vn 0.9381824 0.052640628 -0.3421152
vn -0.3185253 -0.18691854 -0.92930245
vn -0.7885696 -0.48677 -0.37578323
vn -0.023412779 -0.014495363 -0.9996208
vn -0.218193 -0.27083346 -0.93757194
vn -0.5626 -0.72324044 -0.40050542
vn -0.27414995 -0.8683519 -0.41328803
vn 0.03981551 0.00305226 -0.99920243
vn 0.42004132 0.02365135 -0.90719676
vn 0.88636076 -0.25708732 -0.38505927
vn -0.009238834 -0.02365088 -0.99967754
vn -0.104343444 -0.3249732 -0.93994945
vn 0.3666898 -0.09689335 -0.9252839
vn 0.012564426 -0.024413077 -0.99962294
vn 0.026808802 -0.3394903 -0.94022745
vn 0.064306214 -0.90313524 -0.42451325
vn 0.4372256 -0.79322195 -0.42383084
vn 0.03395059 -0.01220642 -0.99934894
vn 0.29630443 -0.20599166 -0.9326152
vn 0.7342852 -0.5408563 -0.4102436
vn 0.17355451 -0.29447 -0.93976927
g Bangboo_Butler_Weapon_04_LOD0_0
f 3/3/3 2/2/2 1/1/1
f 3/3/3 4/4/4 2/2/2
f 2/2/2 5/5/5 1/1/1
f 6/6/6 1/1/1 5/5/5
f 4/4/4 7/7/7 2/2/2
f 7/7/7 4/4/4 8/8/8
f 2/2/2 9/9/9 5/5/5
f 9/9/9 2/2/2 7/7/7
f 10/10/10 7/7/7 8/8/8
f 10/10/10 8/8/8 11/11/11
f 12/12/12 6/6/6 5/5/5
f 9/9/9 13/13/13 5/5/5
f 12/12/12 5/5/5 13/13/13
f 6/6/6 12/12/12 14/14/14
f 15/15/15 6/6/6 14/14/14
f 15/15/15 14/14/14 16/16/16
f 17/17/17 15/15/15 16/16/16
f 17/17/17 16/16/16 18/18/18
f 19/19/19 9/9/9 7/7/7
f 10/10/10 20/20/20 7/7/7
f 20/20/20 19/19/19 7/7/7
f 21/21/21 10/10/10 11/11/11
f 20/20/20 10/10/10 21/21/21
f 9/9/9 19/19/19 22/22/22
f 13/13/13 9/9/9 22/22/22
f 20/20/20 23/23/23 19/19/19
f 22/22/22 19/19/19 23/23/23
f 23/23/23 24/24/24 22/22/22
f 22/22/22 24/24/24 25/25/25
f 25/25/25 13/13/13 22/22/22
f 26/26/26 24/24/24 23/23/23
f 23/23/23 20/20/20 27/27/27
f 27/27/27 20/20/20 21/21/21
f 26/26/26 23/23/23 27/27/27
f 21/21/21 11/11/11 28/28/28
f 11/11/11 29/29/29 28/28/28
f 28/28/28 29/29/29 30/30/30
f 31/31/31 27/27/27 21/21/21
f 27/27/27 31/31/31 26/26/26
f 28/28/28 31/31/31 21/21/21
f 13/13/13 25/25/25 32/32/32
f 32/32/32 12/12/12 13/13/13
f 33/33/33 28/28/28 30/30/30
f 30/30/30 34/34/34 33/33/33
f 35/35/35 26/26/26 31/31/31
f 35/35/35 24/24/24 26/26/26
f 31/31/31 28/28/28 36/36/36
f 28/28/28 33/33/33 36/36/36
f 36/36/36 35/35/35 31/31/31
f 34/34/34 37/37/37 33/33/33
f 33/33/33 37/37/37 36/36/36
f 37/37/37 34/34/34 38/38/38
f 32/32/32 25/25/25 39/39/39
f 25/25/25 24/24/24 39/39/39
f 12/12/12 32/32/32 40/40/40
f 40/40/40 32/32/32 39/39/39
f 14/14/14 12/12/12 40/40/40
f 14/14/14 40/40/40 41/41/41
f 40/40/40 39/39/39 41/41/41
f 16/16/16 14/14/14 41/41/41
f 35/35/35 36/36/36 42/42/42
f 42/42/42 24/24/24 35/35/35
f 37/37/37 43/43/43 36/36/36
f 36/36/36 43/43/43 42/42/42
f 44/44/44 43/43/43 37/37/37
f 42/42/42 43/43/43 44/44/44
f 39/39/39 45/45/45 41/41/41
f 39/39/39 24/24/24 45/45/45
f 16/16/16 41/41/41 46/46/46
f 16/16/16 46/46/46 18/18/18
f 47/47/47 44/44/44 37/37/37
f 47/47/47 37/37/37 38/38/38
f 48/48/48 47/47/47 38/38/38
f 47/47/47 48/48/48 44/44/44
f 49/49/49 48/48/48 38/38/38
f 44/44/44 50/50/50 42/42/42
f 48/48/48 50/50/50 44/44/44
f 48/48/48 49/49/49 51/51/51
f 50/50/50 48/48/48 51/51/51
f 49/49/49 52/52/52 51/51/51
f 53/53/53 24/24/24 42/42/42
f 50/50/50 53/53/53 42/42/42
f 54/54/54 24/24/24 53/53/53
f 54/54/54 53/53/53 50/50/50
f 45/45/45 24/24/24 54/54/54
f 55/55/55 51/51/51 52/52/52
f 56/56/56 55/55/55 52/52/52
f 56/56/56 18/18/18 55/55/55
f 18/18/18 46/46/46 55/55/55
f 57/57/57 50/50/50 51/51/51
f 57/57/57 54/54/54 50/50/50
f 51/51/51 55/55/55 57/57/57
f 58/58/58 54/54/54 57/57/57
f 55/55/55 58/58/58 57/57/57
f 54/54/54 58/58/58 45/45/45
f 55/55/55 46/46/46 58/58/58
f 58/58/58 59/59/59 45/45/45
f 46/46/46 59/59/59 58/58/58
f 45/45/45 59/59/59 41/41/41
f 41/41/41 59/59/59 46/46/46
f 62/62/62 61/61/61 60/60/60
f 63/63/63 62/62/62 60/60/60
f 61/61/61 64/64/64 60/60/60
f 61/61/61 65/65/65 64/64/64
f 66/66/66 63/63/63 60/60/60
f 67/67/67 63/63/63 66/66/66
f 65/65/65 68/68/68 64/64/64
f 64/64/64 69/69/69 60/60/60
f 69/69/69 64/64/64 68/68/68
f 70/70/70 68/68/68 65/65/65
f 71/71/71 70/70/70 65/65/65
f 60/60/60 72/72/72 66/66/66
f 69/69/69 72/72/72 60/60/60
f 69/69/69 73/73/73 72/72/72
f 72/72/72 73/73/73 74/74/74
f 72/72/72 74/74/74 66/66/66
f 75/75/75 73/73/73 69/69/69
f 75/75/75 69/69/69 68/68/68
f 70/70/70 75/75/75 68/68/68
f 76/76/76 67/67/67 66/66/66
f 74/74/74 76/76/76 66/66/66
f 70/70/70 71/71/71 77/77/77
f 71/71/71 78/78/78 77/77/77
f 75/75/75 70/70/70 79/79/79
f 70/70/70 77/77/77 79/79/79
f 79/79/79 73/73/73 75/75/75
f 77/77/77 78/78/78 80/80/80
f 79/79/79 77/77/77 80/80/80
f 78/78/78 81/81/81 80/80/80
f 80/80/80 81/81/81 82/82/82
f 67/67/67 76/76/76 83/83/83
f 84/84/84 67/67/67 83/83/83
f 76/76/76 74/74/74 85/85/85
f 83/83/83 76/76/76 85/85/85
f 74/74/74 73/73/73 85/85/85
f 83/83/83 86/86/86 84/84/84
f 86/86/86 83/83/83 85/85/85
f 86/86/86 87/87/87 84/84/84
f 88/88/88 87/87/87 86/86/86
f 89/89/89 79/79/79 80/80/80
f 89/89/89 73/73/73 79/79/79
f 90/90/90 80/80/80 82/82/82
f 89/89/89 80/80/80 90/90/90
f 82/82/82 91/91/91 90/90/90
f 86/86/86 85/85/85 92/92/92
f 85/85/85 73/73/73 92/92/92
f 93/93/93 88/88/88 86/86/86
f 93/93/93 86/86/86 92/92/92
f 89/89/89 90/90/90 94/94/94
f 91/91/91 94/94/94 90/90/90
f 92/92/92 73/73/73 95/95/95
f 92/92/92 95/95/95 93/93/93
f 93/93/93 96/96/96 88/88/88
f 95/95/95 96/96/96 93/93/93
f 96/96/96 97/97/97 88/88/88
f 97/97/97 96/96/96 98/98/98
f 99/99/99 73/73/73 89/89/89
f 99/99/99 89/89/89 94/94/94
f 95/95/95 73/73/73 99/99/99
f 100/100/100 94/94/94 91/91/91
f 100/100/100 99/99/99 94/94/94
f 95/95/95 99/99/99 100/100/100
f 101/101/101 100/100/100 91/91/91
f 96/96/96 102/102/102 98/98/98
f 96/96/96 95/95/95 102/102/102
f 102/102/102 95/95/95 100/100/100
f 101/101/101 98/98/98 102/102/102
f 100/100/100 101/101/101 102/102/102
