g SeparateMesh_Avatar_Female_Size02_Vivian_Model_Vivian_Gem_LOD2
v -6.246138E-07 0.14984788 1.4045308
v -0.014506925 0.14013982 1.4052099
v -0.003976576 0.14978404 1.3882947
v -6.2352467E-07 0.14263484 1.418875
v -0.0094329575 0.14130174 1.4123226
v 0.003975326 0.14978404 1.3882947
v 0.014505678 0.14013982 1.4052099
v 0.009431711 0.14130174 1.4123226
v 1.8495215E-06 -0.044822186 1.2804377
v 0.01241635 -0.036739927 1.2784276
v 0.003404472 -0.049056754 1.2672038
v 1.8474011E-06 -0.0351633 1.2902104
v 0.008074045 -0.03580794 1.2845247
v -0.0034007712 -0.049056754 1.2672038
v -0.012412654 -0.036739927 1.2784276
v -0.008070352 -0.03580794 1.2845247
vt 0.22896609 0.589132
vt 0.2749185 0.60282034
vt 0.2415609 0.54774874
vt 0.22896609 0.6396536
vt 0.2588454 0.622094
vt 0.21637122 0.54774874
vt 0.18301366 0.60282034
vt 0.19908674 0.622094
vt 0.22896609 0.6024127
vt 0.2749185 0.60282034
vt 0.2415609 0.54774874
vt 0.22896609 0.6396536
vt 0.2588454 0.622094
vt 0.21637122 0.54774874
vt 0.18301366 0.60282034
vt 0.19908674 0.622094
vn -0 0.9689474 0.24726698
vn -0.5392368 0.8193679 0.19457659
vn -0.22947046 0.97190565 0.052372016
vn -0 0.89340436 0.4492533
vn -0.47580048 0.81856114 0.32182547
vn 0.22947043 0.97190565 0.052371997
vn 0.5392367 0.8193679 0.19457652
vn 0.47580037 0.8185612 0.32182539
vn -0 -0.8454062 0.53412396
vn 0.5392382 -0.7193781 0.43785518
vn 0.22947142 -0.90834355 0.34964973
vn -0 -0.7112341 0.7029553
vn 0.47579798 -0.6793571 0.5586503
vn -0.22947136 -0.90834355 0.34964967
vn -0.5392382 -0.71937823 0.43785506
vn -0.47579795 -0.67935723 0.5586502
g SeparateMesh_Avatar_Female_Size02_Vivian_Model_Vivian_Gem_LOD2_0
f 3/3/3 2/2/2 1/1/1
f 5/5/5 4/4/4 1/1/1
f 1/1/1 6/6/6 3/3/3
f 6/6/6 1/1/1 7/7/7
f 8/8/8 1/1/1 4/4/4
f 2/2/2 5/5/5 1/1/1
f 1/1/1 8/8/8 7/7/7
f 11/11/11 10/10/10 9/9/9
f 13/13/13 12/12/12 9/9/9
f 9/9/9 14/14/14 11/11/11
f 14/14/14 9/9/9 15/15/15
f 16/16/16 9/9/9 12/12/12
f 10/10/10 13/13/13 9/9/9
f 9/9/9 16/16/16 15/15/15
