g SeparateMesh_Avatar_Female_Size02_Vivian_Model_Vivian_Weapon_05_LOD2
v -0 -0.008178229 2.5855408
v -0.0017713332 3.0233512E-05 2.585882
v -0 -3.6014615E-06 2.6358876
v -0 0.00811622 2.5853512
v -0 -0.008178229 2.5855408
v -0 -3.6014615E-06 2.6358876
v 0.00177133 3.0233512E-05 2.585882
v -0 0.00811622 2.5853512
v -0.005181052 0.008974207 1.7431628
v -0.008205338 0.014888521 1.7060515
v 0.008205348 0.014888521 1.7060515
v 0.005181064 0.008974207 1.7431628
v -0.010362122 3.3976818E-07 1.7431628
v -0.016410682 3.3311545E-07 1.7060515
v -0.00518107 -0.008973526 1.7431628
v -0.008205349 -0.014099281 1.7060515
v 0.005181064 -0.008973526 1.7431628
v 0.008205348 -0.014099281 1.7060515
v -0.008205349 -0.014099281 1.7060515
v -0.00518107 -0.008973526 1.7431628
v 0.010362116 3.3976818E-07 1.7431628
v 0.016410682 3.3296644E-07 1.7060515
v 0.010771304 3.720455E-07 1.908927
v 0.0053856485 0.0093286075 1.908927
v 0.0053856485 -0.0093278615 1.908927
v -0.005385655 -0.0093278615 1.908927
v -0.010771304 3.720455E-07 1.908927
v -0.005385655 -0.0093278615 1.908927
v -0.005385655 0.0093286075 1.908927
v -0.007189356 0.012452713 1.921168
v -0.003069949 0.0053176717 1.9384689
v -0.006139884 3.7780242E-07 1.9384689
v -0.014378725 3.7434404E-07 1.921168
v -0.014378725 3.7434404E-07 1.921168
v -0.006139884 3.7780242E-07 1.9384689
v -0.003069949 -0.005316916 1.9384689
v -0.007189356 -0.012451964 1.921168
v -0.007189356 -0.012451964 1.921168
v -0.003069949 -0.005316916 1.9384689
v 0.0030699458 -0.005316916 1.9384689
v 0.007189356 -0.012451964 1.921168
v 0.007189356 -0.012451964 1.921168
v 0.0030699458 -0.005316916 1.9384689
v 0.0061398786 3.7780242E-07 1.9384689
v 0.014378718 3.7434404E-07 1.921168
v 0.007189356 0.0124527 1.921168
v 0.014378718 3.7434404E-07 1.921168
v 0.0061398786 3.7780242E-07 1.9384689
v 0.0030699458 0.0053176717 1.9384689
v 0.007189356 0.0124527 1.921168
v 0.0030699458 0.0053176717 1.9384689
v -0.003069949 0.0053176717 1.9384689
v -0.007189356 0.012452713 1.921168
v 0.014378718 3.7434404E-07 1.921168
v 0.007189356 0.0124527 1.921168
v 0.007189356 -0.012451964 1.921168
v -0.007189356 -0.012451964 1.921168
v -0.014378725 3.7434404E-07 1.921168
v -0.007189356 -0.012451964 1.921168
v -0.007189356 0.012452713 1.921168
v -0.008205349 -0.014099281 1.7060515
v 0.008205348 -0.014099281 1.7060515
v 0.014898586 -0.016099717 1.6862721
v -0.014898562 -0.016099717 1.6862721
v 1.2661695E-08 0.022868851 1.7025378
v 0.011866307 0.0147112915 1.6978781
v 0.008205348 0.014888521 1.7060515
v 0.01569714 -0.002818055 1.6905878
v 0.011866307 0.0147112915 1.6978781
v 0.008553472 -0.0033890235 1.6720581
v 0.01569714 -0.002818055 1.6905878
v 0.014898586 -0.016099717 1.6862721
v 0.016410682 3.3296644E-07 1.7060515
v 0.009709934 -0.017046964 1.6718115
v 1.2814998E-08 -0.003812847 1.6563443
v 0.004513594 0.008829816 1.6728768
v 1.2516975E-08 0.0110030435 1.6669842
v 7.3869404E-09 0.024865305 1.6907437
v 1.2661695E-08 0.022868851 1.7025378
v -0 0.0050936425 1.6774751
v -0.008205338 0.014888521 1.7060515
v -0.016410682 3.3311545E-07 1.7060515
v -0.011866288 0.0147112915 1.6978781
v -0.015697116 -0.002818055 1.6905878
v -0.008553475 -0.0034003495 1.6720554
v -0.011866288 0.0147112915 1.6978781
v -0.014898562 -0.016099717 1.6862721
v -0.009709912 -0.016704481 1.6718115
v 1.2814998E-08 -0.003812847 1.6563443
v 1.2516975E-08 0.0110030435 1.6669842
v -0.004521059 0.008855671 1.6728764
v -0 0.0050936425 1.6774751
v 1.2661695E-08 0.022868851 1.7025378
v 0.0047649983 -0.015208599 1.6608812
v -0.0047649746 -0.015208599 1.6608812
v -0.009709912 -0.016704481 1.6718115
v 0.009709934 -0.017046964 1.6718115
v 7.3869404E-09 0.024865305 1.6907437
v -0.016410682 3.3311545E-07 1.7060515
v -0.006139884 3.7780242E-07 1.9384689
v -0.003069949 0.0053176717 1.9384689
v -0.003069949 -0.005316916 1.9384689
v 0.0061398786 3.7780242E-07 1.9384689
v 0.0030699458 0.0053176717 1.9384689
v 0.009709934 -0.017046964 1.6718115
v 0.0042837933 -0.00012121983 1.9655992
v -0 -0.011003656 1.9657364
v -0.0042838 -0.00012121983 1.9655992
v -0 -0.011003656 1.9657364
v -0 0.010966284 1.9658493
v -0 0.010966284 1.9658493
v -0.0033573753 8.5211E-05 1.9376564
v -1.9438863E-05 -0.0050195977 1.937529
v 0.0033573685 8.5211E-05 1.9376564
v -1.9438863E-05 -0.0050195977 1.937529
v 1.2814998E-08 -0.003812847 1.6563443
v 4.0280074E-06 0.0050709117 1.9375027
v 4.0280074E-06 0.0050709117 1.9375027
v -0.014898562 -0.016099717 1.6862721
v 0.014898586 -0.016099717 1.6862721
v 0.0030699458 -0.005316916 1.9384689
v 1.2661695E-08 0.022868851 1.7025378
v 0.008205348 0.014888521 1.7060515
v -0.008205338 0.014888521 1.7060515
v 0.0047649983 -0.015208599 1.6608812
v -0.0047649746 -0.015208599 1.6608812
v -0.014898562 -0.016099717 1.6862721
v -0.015697116 -0.002818055 1.6905878
v 0.014898586 -0.016099717 1.6862721
v 0.008205348 -0.014099281 1.7060515
v 0.016410682 3.3296644E-07 1.7060515
v 1.2661695E-08 0.022868851 1.7025378
v -0.008205338 0.014888521 1.7060515
v -0.011866288 0.0147112915 1.6978781
vt 1.969647 0.349955
vt 1.981768 0.349955
vt 1.981768 0.376731
vt 1.993872 0.349955
vt 0.969647 0.349955
vt 0.981768 0.376731
vt 0.981768 0.349955
vt 0.993872 0.349955
vt 0.926457 0.181919
vt 0.926457 0.209909
vt 0.935712 0.209909
vt 0.935712 0.181919
vt 0.917262 0.181919
vt 0.917262 0.209909
vt 0.908005 0.181919
vt 0.908005 0.209909
vt 0.954246 0.181919
vt 0.954246 0.209909
vt 0.963458 0.209909
vt 0.963458 0.181919
vt 0.945028 0.181919
vt 0.945028 0.209909
vt 0.94503 0.04877542
vt 0.9357133 0.048775416
vt 0.9542473 0.048775416
vt 0.9635956 0.048778288
vt 0.91726387 0.048775416
vt 0.9079188 0.048772044
vt 0.9264582 0.048775416
vt 0.92645794 0.034749694
vt 0.92687374 0.01866446
vt 0.9197539 0.01866446
vt 0.9172624 0.034749575
vt 0.9172624 0.034749575
vt 0.9176816 0.018664464
vt 0.9105137 0.018664464
vt 0.90813774 0.034741424
vt 0.9633742 0.034757704
vt 0.96392566 0.01866446
vt 0.9567555 0.01866446
vt 0.95424664 0.03474967
vt 0.95424664 0.03474967
vt 0.9546638 0.01866446
vt 0.94752616 0.01866446
vt 0.9450278 0.03474963
vt 0.93571293 0.0347498
vt 0.9450278 0.03474963
vt 0.94545025 0.018664464
vt 0.9382367 0.018664462
vt 0.93571293 0.0347498
vt 0.9361315 0.018664459
vt 0.92896515 0.018664459
vt 0.92645794 0.034749694
vt 0.94503254 0.038540144
vt 0.93571764 0.03854014
vt 0.9542513 0.038540162
vt 0.9633848 0.03855282
vt 0.917267 0.03854014
vt 0.9081368 0.038527835
vt 0.9264626 0.03854014
vt 0.92701983 0.23107573
vt 0.931258 0.22889757
vt 0.91924566 0.22587945
vt 0.91157395 0.22958446
vt 0.962056 0.304648
vt 0.95806384 0.29279363
vt 0.95900774 0.29798982
vt 0.9022389 0.30785033
vt 0.90241313 0.31699544
vt 0.91253865 0.30092117
vt 0.9524846 0.28479096
vt 0.9398529 0.28309104
vt 0.9502879 0.28967106
vt 0.9040206 0.29494363
vt 0.9200905 0.293943
vt 0.922341 0.306477
vt 0.925502 0.304689
vt 0.930953 0.31826597
vt 0.907681 0.328357
vt 0.91830707 0.30995435
vt 0.9559303 0.23065816
vt 0.9504061 0.24490078
vt 0.95566297 0.23732144
vt 0.9567672 0.30333656
vt 0.9432687 0.3043182
vt 0.9612242 0.31007537
vt 0.9546803 0.29756823
vt 0.9458676 0.2944599
vt 0.932962 0.304063
vt 0.935845 0.315747
vt 0.939396 0.315061
vt 0.9446398 0.31513643
vt 0.964778 0.322125
vt 0.9487539 0.2703023
vt 0.9560407 0.26684514
vt 0.95477176 0.26118365
vt 0.94589865 0.2654585
vt 0.940542 0.32960302
vt 0.9233757 0.24055797
vt 0.922216 0.333703
vt 0.929357 0.328931
vt 0.914513 0.329906
vt 0.921091 0.316564
vt 0.928795 0.320361
vt 0.9376298 0.2751925
vt 0.981768 0.019775
vt 0.969647 0.019775
vt 1.981768 0.019775
vt 1.969647 0.019775
vt 0.993872 0.019775
vt 1.993872 0.019775
vt 1.981768 0.004782
vt 1.975019 0.004782
vt 0.981768 0.004782
vt 0.975019 0.004782
vt 0.9580557 0.27852067
vt 0.988602 0.004782
vt 1.988602 0.004782
vt 0.95248467 0.25474727
vt 0.9421126 0.25689968
vt 0.91395 0.321336
vt 0.952065 0.225348
vt 0.94407827 0.22518303
vt 0.9559303 0.23065816
vt 0.90894526 0.2920227
vt 0.9400604 0.29525667
vt 0.95248467 0.25474727
vt 0.95471156 0.24823682
vt 0.915941 0.2863617
vt 0.9273348 0.27945837
vt 0.9235397 0.27135256
vt 0.952065 0.225348
vt 0.9559303 0.23065816
vt 0.95566297 0.23732144
vn -0.9651169 -0.26124805 0.017282521
vn -0.9998043 0.00046064102 0.01977851
vn -0.99937326 1.1838523E-05 0.03540037
vn -0.9646457 0.26299363 0.017120557
vn 0.96511704 -0.26124763 0.017282488
vn 0.99937326 1.18268945E-05 0.035400305
vn 0.9998043 0.0004606311 0.019778471
vn 0.9646458 0.26299322 0.017120525
vn -0.50222343 0.8601995 0.08847885
vn -0.4950239 0.8512691 0.17404635
vn 0.4950243 0.851269 0.1740464
vn 0.50222373 0.8601993 0.088478886
vn -0.9965796 -0.0037848044 0.08255174
vn -0.9866952 -0.0067224964 0.1624426
vn -0.49767622 -0.8636228 0.080461174
vn -0.4931969 -0.8553262 0.15866338
vn 0.49767622 -0.86362284 0.08046121
vn 0.49319685 -0.8553262 0.15866347
vn -0.4931969 -0.8553262 0.15866338
vn -0.49767622 -0.8636228 0.080461174
vn 0.9965796 -0.0037852414 0.08255177
vn 0.98669505 -0.0067229304 0.16244261
vn 0.9885488 0 -0.15090129
vn 0.49427444 0.85610837 -0.15090114
vn 0.49427444 -0.85610837 -0.15090111
vn -0.4942747 -0.8561083 -0.15090114
vn -0.9885488 1.3696062E-07 -0.15090139
vn -0.4942747 -0.8561083 -0.15090114
vn -0.49427435 0.8561085 -0.15090126
vn -0.49873197 0.86382973 0.071166806
vn -0.31884062 0.5522485 0.7703001
vn -0.6376812 0 0.77030045
vn -0.9974644 0 0.07116667
vn -0.9974644 0 0.07116667
vn -0.6376812 0 0.77030045
vn -0.31884083 -0.5522482 0.7703002
vn -0.49873212 -0.86382955 0.07116696
vn -0.49873212 -0.86382955 0.07116696
vn -0.31884083 -0.5522482 0.7703002
vn 0.3188409 -0.5522481 0.7703002
vn 0.49873233 -0.86382955 0.071167
vn 0.49873233 -0.86382955 0.071167
vn 0.3188409 -0.5522481 0.7703002
vn 0.6376811 1.5935869E-07 0.77030045
vn 0.9974644 1.17176235E-07 0.07116672
vn 0.49873254 0.8638294 0.07116684
vn 0.9974644 1.17176235E-07 0.07116672
vn 0.6376811 1.5935869E-07 0.77030045
vn 0.31884107 0.55224836 0.77030003
vn 0.49873254 0.8638294 0.07116684
vn 0.31884107 0.55224836 0.77030003
vn -0.31884062 0.5522485 0.7703001
vn -0.49873197 0.86382973 0.071166806
vn 0.9974644 1.17176235E-07 0.07116672
vn 0.49873254 0.8638294 0.07116684
vn 0.49873233 -0.86382955 0.071167
vn -0.49873212 -0.86382955 0.07116696
vn -0.9974644 0 0.07116667
vn -0.49873212 -0.86382955 0.07116696
vn -0.49873197 0.86382973 0.071166806
vn -0.41405022 -0.88092387 0.22920655
vn 0.4140499 -0.88092387 0.22920696
vn 0.734688 -0.6751021 -0.066863775
vn -0.7372464 -0.6718939 -0.0708961
vn -6.495766E-05 0.979151 0.20313399
vn 0.7433296 0.6511032 -0.15338139
vn 0.61332345 0.6253311 0.48248866
vn 0.9675029 0.14432985 -0.20762275
vn 0.7433296 0.6511032 -0.15338139
vn 0.87933457 0.29790908 -0.3715118
vn 0.9675029 0.14432985 -0.20762275
vn 0.734688 -0.6751021 -0.066863775
vn 0.9918542 0.022253703 0.1254193
vn 0.6588432 -0.68680584 -0.3069581
vn 0.0004093392 0.24924648 -0.96844
vn 0.95662487 0.2905814 0.020767447
vn 0.00050472823 0.70284104 -0.7113467
vn 0.00014622524 0.6790595 0.7340831
vn -6.495766E-05 0.979151 0.20313399
vn -9.759152E-05 0.9677917 0.25175253
vn -0.61332357 0.6253317 0.48248786
vn -0.9918543 0.022253968 0.12541783
vn -0.7433699 0.6510489 -0.15341632
vn -0.96733063 0.14509094 -0.20789452
vn -0.88106155 0.29499322 -0.3697426
vn -0.7433699 0.6510489 -0.15341632
vn -0.7372464 -0.6718939 -0.0708961
vn -0.67152363 -0.67467785 -0.30637515
vn 0.0004093392 0.24924648 -0.96844
vn 0.00050472823 0.70284104 -0.7113467
vn -0.95649767 0.29104903 0.020064602
vn -9.759152E-05 0.9677917 0.25175253
vn -6.495766E-05 0.979151 0.20313399
vn 0.5171994 -0.56767064 -0.64051145
vn -0.5218635 -0.5673308 -0.6370199
vn -0.67152363 -0.67467785 -0.30637515
vn 0.6588432 -0.68680584 -0.3069581
vn 0.00014622524 0.6790595 0.7340831
vn -0.9918543 0.022253968 0.12541783
vn -0.6376812 0 0.77030045
vn -0.31884062 0.5522485 0.7703001
vn -0.31884083 -0.5522482 0.7703002
vn 0.6376811 1.5935869E-07 0.77030045
vn 0.31884107 0.55224836 0.77030003
vn 0.6588432 -0.68680584 -0.3069581
vn 0.9995053 -0.0018367224 -0.031398296
vn 0.931286 -0.36323097 -0.027741227
vn -0.99951184 -0.0012586524 -0.03121838
vn -0.9316323 -0.36237106 -0.027359638
vn 0.93221176 0.3610158 -0.025472034
vn -0.93214077 0.3611936 -0.025548957
vn -0.9977824 0.002308664 -0.0665198
vn -0.9009222 -0.42954215 -0.061908934
vn 0.99775934 0.0011207305 -0.06689592
vn 0.90002507 -0.43130293 -0.06271172
vn 0.0004093392 0.24924648 -0.96844
vn 0.9015649 0.42872447 -0.058103133
vn -0.9013805 0.42909026 -0.05826609
vn -0.7372464 -0.6718939 -0.0708961
vn 0.734688 -0.6751021 -0.066863775
vn 0.3188409 -0.5522481 0.7703002
vn -6.495766E-05 0.979151 0.20313399
vn 0.61332345 0.6253311 0.48248866
vn -0.61332357 0.6253317 0.48248786
vn 0.5171994 -0.56767064 -0.64051145
vn -0.5218635 -0.5673308 -0.6370199
vn -0.7372464 -0.6718939 -0.0708961
vn -0.96733063 0.14509094 -0.20789452
vn 0.734688 -0.6751021 -0.066863775
vn 0.4140499 -0.88092387 0.22920696
vn 0.9918542 0.022253703 0.1254193
vn -6.495766E-05 0.979151 0.20313399
vn -0.61332357 0.6253317 0.48248786
vn -0.7433699 0.6510489 -0.15341632
g SeparateMesh_Avatar_Female_Size02_Vivian_Model_Vivian_Weapon_05_LOD2_0
f 3/3/3 2/2/2 1/1/1
f 2/2/2 3/3/3 4/4/4
f 7/7/7 6/6/6 5/5/5
f 6/6/6 7/7/7 8/8/8
f 11/11/11 10/10/10 9/9/9
f 12/12/12 11/11/11 9/9/9
f 10/10/10 14/14/14 13/13/13
f 9/9/9 10/10/10 13/13/13
f 14/14/14 16/16/16 15/15/15
f 13/13/13 14/14/14 15/15/15
f 19/19/19 18/18/18 17/17/17
f 20/20/20 19/19/19 17/17/17
f 18/18/18 22/22/22 21/21/21
f 17/17/17 18/18/18 21/21/21
f 22/22/22 11/11/11 12/12/12
f 21/21/21 22/22/22 12/12/12
f 24/24/24 23/23/23 21/21/21
f 12/12/12 24/24/24 21/21/21
f 23/23/23 25/25/25 17/17/17
f 21/21/21 23/23/23 17/17/17
f 25/25/25 26/26/26 20/20/20
f 17/17/17 25/25/25 20/20/20
f 28/28/28 27/27/27 13/13/13
f 15/15/15 28/28/28 13/13/13
f 27/27/27 29/29/29 9/9/9
f 13/13/13 27/27/27 9/9/9
f 29/29/29 24/24/24 12/12/12
f 9/9/9 29/29/29 12/12/12
f 32/32/32 31/31/31 30/30/30
f 33/33/33 32/32/32 30/30/30
f 36/36/36 35/35/35 34/34/34
f 37/37/37 36/36/36 34/34/34
f 40/40/40 39/39/39 38/38/38
f 41/41/41 40/40/40 38/38/38
f 44/44/44 43/43/43 42/42/42
f 45/45/45 44/44/44 42/42/42
f 48/48/48 47/47/47 46/46/46
f 49/49/49 48/48/48 46/46/46
f 52/52/52 51/51/51 50/50/50
f 53/53/53 52/52/52 50/50/50
f 54/54/54 23/23/23 24/24/24
f 55/55/55 54/54/54 24/24/24
f 56/56/56 25/25/25 23/23/23
f 54/54/54 56/56/56 23/23/23
f 57/57/57 26/26/26 25/25/25
f 56/56/56 57/57/57 25/25/25
f 58/58/58 27/27/27 28/28/28
f 59/59/59 58/58/58 28/28/28
f 60/60/60 29/29/29 27/27/27
f 58/58/58 60/60/60 27/27/27
f 55/55/55 24/24/24 29/29/29
f 60/60/60 55/55/55 29/29/29
f 63/63/63 62/62/62 61/61/61
f 64/64/64 63/63/63 61/61/61
f 67/67/67 66/66/66 65/65/65
f 70/70/70 69/69/69 68/68/68
f 73/73/73 72/72/72 71/71/71
f 74/74/74 70/70/70 68/68/68
f 76/76/76 70/70/70 75/75/75
f 77/77/77 76/76/76 75/75/75
f 77/77/77 78/78/78 76/76/76
f 80/80/80 79/79/79 69/69/69
f 70/70/70 80/80/80 69/69/69
f 76/76/76 78/78/78 80/80/80
f 83/83/83 82/82/82 81/81/81
f 86/86/86 85/85/85 84/84/84
f 88/88/88 87/87/87 84/84/84
f 85/85/85 88/88/88 84/84/84
f 91/91/91 90/90/90 89/89/89
f 85/85/85 91/91/91 89/89/89
f 92/92/92 85/85/85 86/86/86
f 93/93/93 92/92/92 86/86/86
f 96/96/96 95/95/95 94/94/94
f 97/97/97 96/96/96 94/94/94
f 90/90/90 91/91/91 98/98/98
f 64/64/64 61/61/61 99/99/99
f 91/91/91 92/92/92 98/98/98
f 102/102/102 101/101/101 100/100/100
f 104/104/104 101/101/101 103/103/103
f 105/105/105 71/71/71 72/72/72
f 70/70/70 76/76/76 80/80/80
f 91/91/91 85/85/85 92/92/92
f 5/5/5 107/107/107 106/106/106
f 7/7/7 5/5/5 106/106/106
f 1/1/1 2/2/2 108/108/108
f 109/109/109 1/1/1 108/108/108
f 106/106/106 110/110/110 8/8/8
f 7/7/7 106/106/106 8/8/8
f 4/4/4 111/111/111 108/108/108
f 2/2/2 4/4/4 108/108/108
f 109/109/109 108/108/108 112/112/112
f 113/113/113 109/109/109 112/112/112
f 114/114/114 106/106/106 107/107/107
f 115/115/115 114/114/114 107/107/107
f 95/95/95 116/116/116 94/94/94
f 114/114/114 117/117/117 110/110/110
f 106/106/106 114/114/114 110/110/110
f 112/112/112 108/108/108 111/111/111
f 118/118/118 112/112/112 111/111/111
f 119/119/119 96/96/96 97/97/97
f 120/120/120 119/119/119 97/97/97
f 101/101/101 102/102/102 121/121/121
f 103/103/103 101/101/101 121/121/121
f 124/124/124 123/123/123 122/122/122
f 125/125/125 75/75/75 70/70/70
f 74/74/74 125/125/125 70/70/70
f 85/85/85 89/89/89 126/126/126
f 88/88/88 85/85/85 126/126/126
f 82/82/82 128/128/128 127/127/127
f 131/131/131 130/130/130 129/129/129
f 134/134/134 133/133/133 132/132/132
f 67/67/67 73/73/73 66/66/66
f 66/66/66 73/73/73 71/71/71
f 128/128/128 82/82/82 83/83/83
