g SeparateMesh_Bangboo_Phantomboo_Model_Bangboo_Phantomboo_Weapon_04_LOD0
v 0.015706291 -0.0006175602 1.1932327
v 0.014768628 0.00061755563 1.1311888
v 0.014768628 0.0006175559 1.1946477
v 0.015706291 -0.0006175605 1.132604
v 0.06416416 -0.0006175605 1.132604
v 0.016096944 -0.00061756064 1.1298693
v 0.014768628 0.00061755563 1.1311888
v 0.015159292 0.00061755563 1.1284542
v 0.06416416 -0.0006175602 1.1932327
v 0.06510181 0.00061755563 1.1311888
v 0.06510181 0.0006175559 1.1946477
v 0.016096944 -0.0006175601 1.1959673
v 0.015159292 0.0006175559 1.1973823
v 0.014768628 0.0006175559 1.1946477
v 0.0637735 -0.0006175601 1.1959673
v 0.06510181 0.0006175559 1.1946477
v 0.064711146 0.0006175559 1.1973823
v 0.06260151 -0.0006175601 1.1979206
v 0.064711146 0.0006175559 1.1973823
v 0.06353916 0.0006175559 1.1993356
v 0.0637735 -0.00061756064 1.1298693
v 0.064711146 0.00061755563 1.1284542
v 0.06510181 0.00061755563 1.1311888
v 0.06260151 -0.00061756064 1.127916
v 0.06353916 0.00061755563 1.126501
v 0.064711146 0.00061755563 1.1284542
v 0.017268933 -0.00061756064 1.127916
v 0.015159292 0.00061755563 1.1284542
v 0.016331272 0.00061755563 1.126501
v 0.01922224 -0.00061756064 1.126744
v 0.016331272 0.00061755563 1.126501
v 0.018284587 0.00061755563 1.1253289
v 0.06064819 -0.00061756064 1.126744
v 0.061585862 0.00061755563 1.1253289
v 0.06353916 0.00061755563 1.126501
v 0.057913568 -0.00061756064 1.1263534
v 0.058851223 0.00061755563 1.1249382
v 0.061585862 0.00061755563 1.1253289
v 0.021956872 -0.00061756064 1.1263534
v 0.018284587 0.00061755563 1.1253289
v 0.02101922 0.00061755563 1.1249382
v 0.058851223 0.00061755563 1.1249382
v 0.02101922 0.00061755563 1.1249382
v 0.02101922 0.0006175559 1.2008983
v 0.058851223 0.0006175559 1.2008983
v 0.057913568 -0.0006175601 1.1994833
v 0.021956872 -0.0006175601 1.1994833
v 0.06064819 -0.0006175601 1.1990926
v 0.061585862 0.0006175559 1.2005076
v 0.058851223 0.0006175559 1.2008983
v 0.01922224 -0.0006175601 1.1990926
v 0.02101922 0.0006175559 1.2008983
v 0.018284587 0.0006175559 1.2005076
v 0.06353916 0.0006175559 1.1993356
v 0.061585862 0.0006175559 1.2005076
v 0.017268933 -0.0006175601 1.1979206
v 0.018284587 0.0006175559 1.2005076
v 0.016331272 0.0006175559 1.1993356
v 0.016331272 0.0006175559 1.1993356
v 0.015159292 0.0006175559 1.1973823
v 0.018284587 0.0006175559 1.2005076
v 0.058851223 0.0006175559 1.2008983
v 0.02101922 0.0006175559 1.2008983
v 0.061585862 0.0006175559 1.2005076
v 0.016331272 0.0006175559 1.1993356
v 0.06353916 0.0006175559 1.1993356
v 0.064711146 0.0006175559 1.1973823
v 0.015159292 0.0006175559 1.1973823
v 0.014768628 0.0006175559 1.1946477
v 0.06510181 0.0006175559 1.1946477
v 0.06510181 0.00061755563 1.1311888
v 0.014768628 0.00061755563 1.1311888
v 0.015159292 0.00061755563 1.1284542
v 0.064711146 0.00061755563 1.1284542
v 0.06353916 0.00061755563 1.126501
v 0.016331272 0.00061755563 1.126501
v 0.018284587 0.00061755563 1.1253289
v 0.061585862 0.00061755563 1.1253289
v 0.02101922 0.00061755563 1.1249382
v 0.058851223 0.00061755563 1.1249382
vt 0.011000633 0.7266738
vt 0.008870482 0.626414
vt 0.008870482 0.72862583
vt 0.011000633 0.6283664
vt 0.08745122 0.6283571
vt 0.011592984 0.6241289
vt 0.008870482 0.626414
vt 0.00946784 0.6221699
vt 0.08745122 0.72668
vt 0.08958125 0.6264047
vt 0.08958125 0.7286321
vt 0.011594176 0.73091036
vt 0.009468675 0.73286873
vt 0.008870482 0.72862583
vt 0.086858094 0.7309162
vt 0.08958125 0.7286321
vt 0.088983536 0.73287463
vt 0.085078 0.7339416
vt 0.088983536 0.73287463
vt 0.08720422 0.73589915
vt 0.08685696 0.6241197
vt 0.088981986 0.6221608
vt 0.08958125 0.6264047
vt 0.08507645 0.62109315
vt 0.087201715 0.6191345
vt 0.088981986 0.6221608
vt 0.01337266 0.621102
vt 0.00946784 0.6221699
vt 0.011247396 0.6191433
vt 0.016339302 0.61928535
vt 0.011247396 0.6191433
vt 0.014213562 0.61732703
vt 0.082109034 0.6192772
vt 0.084234715 0.6173188
vt 0.087201715 0.6191345
vt 0.077955484 0.61867255
vt 0.080081224 0.61671424
vt 0.084234715 0.6173188
vt 0.020492792 0.61867964
vt 0.014213562 0.61732703
vt 0.018366933 0.6167213
vt 0.080081224 0.61671424
vt 0.018366933 0.6167213
vt 0.018367767 0.7383139
vt 0.08008456 0.7383183
vt 0.07795745 0.7363615
vt 0.020494819 0.73635715
vt 0.082111 0.73575675
vt 0.084237695 0.7377138
vt 0.08008456 0.7383183
vt 0.01634121 0.73575187
vt 0.018367767 0.7383139
vt 0.014214396 0.73770887
vt 0.08720422 0.73589915
vt 0.084237695 0.7377138
vt 0.013374329 0.733936
vt 0.014214396 0.73770887
vt 0.011248112 0.73589355
vt 0.011248112 0.73589355
vt 0.009468675 0.73286873
vt 0.44888878 0.9886255
vt 0.4163872 0.98893845
vt 0.44669783 0.98893845
vt 0.41419625 0.9886255
vt 0.45045376 0.9876865
vt 0.41263127 0.9876865
vt 0.41169226 0.98612165
vt 0.45139277 0.98612165
vt 0.4517057 0.98393047
vt 0.41137934 0.98393047
vt 0.41137934 0.93308794
vt 0.4517057 0.93308794
vt 0.45139265 0.9308969
vt 0.41169226 0.9308969
vt 0.41263127 0.929332
vt 0.45045376 0.929332
vt 0.44888878 0.928393
vt 0.41419625 0.928393
vt 0.4466977 0.9280801
vt 0.4163872 0.9280801
vn -0.44784075 -0.89394885 0.017150458
vn -0.75023925 -0.6567703 -0.07611729
vn -0.75024724 -0.65676147 0.07611443
vn -0.4478402 -0.89394915 -0.01714898
vn 0.44784227 -0.893948 -0.017149223
vn -0.3994658 -0.9101812 -0.10953179
vn -0.75023925 -0.6567703 -0.07611729
vn -0.60694057 -0.75277483 -0.25485906
vn 0.44784287 -0.8939477 0.0171507
vn 0.75024045 -0.65676874 -0.076118365
vn 0.7502485 -0.6567599 0.076115504
vn -0.39947164 -0.910178 0.1095371
vn -0.60695314 -0.75276333 0.2548631
vn -0.75024724 -0.65676147 0.07611443
vn 0.39947164 -0.9101779 0.109537914
vn 0.7502485 -0.6567599 0.076115504
vn 0.60695344 -0.7527627 0.2548644
vn 0.26096934 -0.9336038 0.24551757
vn 0.60695344 -0.7527627 0.2548644
vn 0.4114375 -0.8040595 0.42919394
vn 0.39946583 -0.91018116 -0.109532565
vn 0.6069409 -0.7527742 -0.25486034
vn 0.75024045 -0.65676874 -0.076118365
vn 0.2609646 -0.9336067 -0.24551177
vn 0.4114216 -0.8040738 -0.42918235
vn 0.6069409 -0.7527742 -0.25486034
vn -0.2609642 -0.93360686 -0.2455114
vn -0.60694057 -0.75277483 -0.25485906
vn -0.4114218 -0.8040739 -0.4291821
vn -0.10845154 -0.935543 -0.33615106
vn -0.4114218 -0.8040739 -0.4291821
vn -0.21217765 -0.80155814 -0.5590038
vn 0.10845114 -0.9355432 -0.3361505
vn 0.21217829 -0.8015586 -0.55900294
vn 0.4114216 -0.8040738 -0.42918235
vn 0.018396748 -0.93402123 -0.35674345
vn 0.056370273 -0.7704057 -0.635057
vn 0.21217829 -0.8015586 -0.55900294
vn -0.018396752 -0.93402123 -0.35674345
vn -0.21217765 -0.80155814 -0.5590038
vn -0.0563703 -0.7704056 -0.6350573
vn 0.056370273 -0.7704057 -0.635057
vn -0.0563703 -0.7704056 -0.6350573
vn -0.056368012 -0.7703834 0.6350843
vn 0.056368 -0.77038366 0.63508403
vn 0.018395439 -0.93401635 0.35675633
vn -0.018395437 -0.93401635 0.35675627
vn 0.10845563 -0.9355351 0.33617193
vn 0.21219003 -0.80154043 0.55902445
vn 0.056368 -0.77038366 0.63508403
vn -0.10845594 -0.93553483 0.3361722
vn -0.056368012 -0.7703834 0.6350843
vn -0.21218939 -0.80153996 0.5590254
vn 0.4114375 -0.8040595 0.42919394
vn 0.21219003 -0.80154043 0.55902445
vn -0.26096916 -0.93360394 0.24551742
vn -0.21218939 -0.80153996 0.5590254
vn -0.41143775 -0.80405957 0.42919368
vn -0.41143775 -0.80405957 0.42919368
vn -0.60695314 -0.75276333 0.2548631
vn -0 1 0
vn -0 1 0
vn -0 1 0
vn -0 1 0
vn -0 1 0
vn -0 1 0
vn -0 1 0
vn -0 1 0
vn -0 1 0
vn -0 1 0
vn -0 1 0
vn -0 1 0
vn -0 1 0
vn -0 1 0
vn -0 1 0
vn -0 1 0
vn -0 1 0
vn -0 1 0
vn -0 1 0
vn -0 1 0
g SeparateMesh_Bangboo_Phantomboo_Model_Bangboo_Phantomboo_Weapon_04_LOD0_0
f 3/3/3 2/2/2 1/1/1
f 2/2/2 4/4/4 1/1/1
f 4/4/4 5/5/5 1/1/1
f 6/6/6 5/5/5 4/4/4
f 6/6/6 4/4/4 7/7/7
f 8/8/8 6/6/6 7/7/7
f 1/1/1 5/5/5 9/9/9
f 5/5/5 10/10/10 9/9/9
f 10/10/10 11/11/11 9/9/9
f 12/12/12 1/1/1 9/9/9
f 12/12/12 13/13/13 1/1/1
f 13/13/13 14/14/14 1/1/1
f 15/15/15 12/12/12 9/9/9
f 15/15/15 9/9/9 16/16/16
f 17/17/17 15/15/15 16/16/16
f 18/18/18 12/12/12 15/15/15
f 18/18/18 15/15/15 19/19/19
f 20/20/20 18/18/18 19/19/19
f 21/21/21 5/5/5 6/6/6
f 21/21/21 22/22/22 5/5/5
f 22/22/22 23/23/23 5/5/5
f 24/24/24 21/21/21 6/6/6
f 24/24/24 25/25/25 21/21/21
f 25/25/25 26/26/26 21/21/21
f 27/27/27 24/24/24 6/6/6
f 27/27/27 6/6/6 28/28/28
f 29/29/29 27/27/27 28/28/28
f 30/30/30 24/24/24 27/27/27
f 30/30/30 27/27/27 31/31/31
f 32/32/32 30/30/30 31/31/31
f 33/33/33 24/24/24 30/30/30
f 33/33/33 34/34/34 24/24/24
f 34/34/34 35/35/35 24/24/24
f 36/36/36 33/33/33 30/30/30
f 36/36/36 37/37/37 33/33/33
f 37/37/37 38/38/38 33/33/33
f 39/39/39 36/36/36 30/30/30
f 39/39/39 30/30/30 40/40/40
f 41/41/41 39/39/39 40/40/40
f 36/36/36 39/39/39 42/42/42
f 39/39/39 43/43/43 42/42/42
f 46/46/46 45/45/45 44/44/44
f 47/47/47 46/46/46 44/44/44
f 46/46/46 47/47/47 48/48/48
f 46/46/46 48/48/48 49/49/49
f 50/50/50 46/46/46 49/49/49
f 47/47/47 51/51/51 48/48/48
f 47/47/47 52/52/52 51/51/51
f 52/52/52 53/53/53 51/51/51
f 48/48/48 51/51/51 18/18/18
f 48/48/48 18/18/18 54/54/54
f 55/55/55 48/48/48 54/54/54
f 51/51/51 56/56/56 18/18/18
f 51/51/51 57/57/57 56/56/56
f 57/57/57 58/58/58 56/56/56
f 56/56/56 12/12/12 18/18/18
f 56/56/56 59/59/59 12/12/12
f 59/59/59 60/60/60 12/12/12
f 63/63/63 62/62/62 61/61/61
f 62/62/62 64/64/64 61/61/61
f 61/61/61 64/64/64 65/65/65
f 64/64/64 66/66/66 65/65/65
f 66/66/66 67/67/67 65/65/65
f 65/65/65 67/67/67 68/68/68
f 68/68/68 67/67/67 69/69/69
f 67/67/67 70/70/70 69/69/69
f 69/69/69 70/70/70 71/71/71
f 72/72/72 69/69/69 71/71/71
f 73/73/73 72/72/72 71/71/71
f 74/74/74 73/73/73 71/71/71
f 75/75/75 73/73/73 74/74/74
f 76/76/76 73/73/73 75/75/75
f 77/77/77 76/76/76 75/75/75
f 78/78/78 77/77/77 75/75/75
f 79/79/79 77/77/77 78/78/78
f 80/80/80 79/79/79 78/78/78
