g SeparateMesh_Bangboo_Phantomboo_Model_Bangboo_Phantomboo_Weapon_02_LOD0
v -0.12897944 -0.0006175602 1.1932327
v -0.1299171 0.00061755563 1.1311888
v -0.1299171 0.0006175559 1.1946477
v -0.12897944 -0.0006175605 1.132604
v -0.08052158 -0.0006175605 1.132604
v -0.08091223 -0.00061756064 1.1298693
v -0.12858878 -0.00061756064 1.1298693
v -0.1299171 0.00061755563 1.1311888
v -0.12952644 0.00061755563 1.1284542
v -0.079974584 0.00061755563 1.1284542
v -0.07958392 0.00061755563 1.1311888
v -0.08052158 -0.0006175602 1.1932327
v -0.07958392 0.00061755563 1.1311888
v -0.07958392 0.0006175559 1.1946477
v -0.1274168 -0.00061756064 1.127916
v -0.12952644 0.00061755563 1.1284542
v -0.12835445 0.00061755563 1.126501
v -0.12858878 -0.0006175601 1.1959673
v -0.12952644 0.0006175559 1.1973823
v -0.1299171 0.0006175559 1.1946477
v -0.08091225 -0.0006175601 1.1959673
v -0.07958392 0.0006175559 1.1946477
v -0.079974584 0.0006175559 1.1973823
v -0.08208422 -0.0006175601 1.1979206
v -0.079974584 0.0006175559 1.1973823
v -0.081146576 0.0006175559 1.1993356
v -0.08208422 -0.00061756064 1.127916
v -0.08114656 0.00061755563 1.126501
v -0.079974584 0.00061755563 1.1284542
v -0.08403753 -0.00061756064 1.126744
v -0.08309988 0.00061755563 1.1253289
v -0.08114656 0.00061755563 1.126501
v -0.12546349 -0.00061756064 1.126744
v -0.12835445 0.00061755563 1.126501
v -0.12640114 0.00061755563 1.1253289
v -0.086772166 -0.00061756064 1.1263534
v -0.0858345 0.00061755563 1.1249382
v -0.08309988 0.00061755563 1.1253289
v -0.12272886 -0.00061756064 1.1263534
v -0.12640114 0.00061755563 1.1253289
v -0.12366651 0.00061755563 1.1249382
v -0.0858345 0.00061755563 1.1249382
v -0.12366651 0.00061755563 1.1249382
v -0.12366651 0.0006175559 1.2008983
v -0.08583451 0.0006175559 1.2008983
v -0.086772166 -0.0006175601 1.1994833
v -0.12272886 -0.0006175601 1.1994833
v -0.08403753 -0.0006175601 1.1990926
v -0.08309988 0.0006175559 1.2005076
v -0.08583451 0.0006175559 1.2008983
v -0.12546349 -0.0006175601 1.1990926
v -0.12366651 0.0006175559 1.2008983
v -0.12640114 0.0006175559 1.2005076
v -0.081146576 0.0006175559 1.1993356
v -0.08309988 0.0006175559 1.2005076
v -0.1274168 -0.0006175601 1.1979206
v -0.12640114 0.0006175559 1.2005076
v -0.12835445 0.0006175559 1.1993356
v -0.12835445 0.0006175559 1.1993356
v -0.12952644 0.0006175559 1.1973823
v -0.12640114 0.0006175559 1.2005076
v -0.08583451 0.0006175559 1.2008983
v -0.12366651 0.0006175559 1.2008983
v -0.08309988 0.0006175559 1.2005076
v -0.12835445 0.0006175559 1.1993356
v -0.081146576 0.0006175559 1.1993356
v -0.079974584 0.0006175559 1.1973823
v -0.12952644 0.0006175559 1.1973823
v -0.1299171 0.0006175559 1.1946477
v -0.07958392 0.0006175559 1.1946477
v -0.07958392 0.00061755563 1.1311888
v -0.1299171 0.00061755563 1.1311888
v -0.12952644 0.00061755563 1.1284542
v -0.079974584 0.00061755563 1.1284542
v -0.08114656 0.00061755563 1.126501
v -0.12835445 0.00061755563 1.126501
v -0.12640114 0.00061755563 1.1253289
v -0.08309988 0.00061755563 1.1253289
v -0.12366651 0.00061755563 1.1249382
v -0.0858345 0.00061755563 1.1249382
vt 0.011000633 0.9806484
vt 0.008870497 0.8803886
vt 0.008870497 0.98260045
vt 0.011000633 0.882341
vt 0.08745122 0.8823317
vt 0.08685696 0.8780943
vt 0.011592984 0.8781035
vt 0.008870497 0.8803886
vt 0.009467825 0.8761445
vt 0.088981934 0.8761354
vt 0.08958124 0.8803793
vt 0.08745122 0.9806546
vt 0.08958124 0.8803793
vt 0.08958124 0.9826067
vt 0.013372719 0.87507665
vt 0.009467825 0.8761445
vt 0.011247337 0.8731179
vt 0.011594176 0.984885
vt 0.00946866 0.98684335
vt 0.008870497 0.98260045
vt 0.086858094 0.9848908
vt 0.08958124 0.9826067
vt 0.08898358 0.98684925
vt 0.085078 0.98791623
vt 0.08898358 0.98684925
vt 0.08720419 0.98987377
vt 0.08507645 0.87506783
vt 0.08720166 0.8731091
vt 0.088981934 0.8761354
vt 0.08210909 0.8732518
vt 0.084234774 0.8712934
vt 0.08720166 0.8731091
vt 0.016339242 0.87326
vt 0.011247337 0.8731179
vt 0.014213502 0.87130165
vt 0.077955484 0.87264717
vt 0.08008117 0.8706889
vt 0.084234774 0.8712934
vt 0.020492852 0.8726542
vt 0.014213502 0.87130165
vt 0.018366978 0.87069595
vt 0.08008117 0.8706889
vt 0.018366978 0.87069595
vt 0.018367734 0.9922886
vt 0.080084614 0.99229294
vt 0.07795745 0.9903362
vt 0.02049476 0.99033177
vt 0.082111 0.98973143
vt 0.08423769 0.99168843
vt 0.080084614 0.99229294
vt 0.016341269 0.98972654
vt 0.018367734 0.9922886
vt 0.014214441 0.9916835
vt 0.08720419 0.98987377
vt 0.08423769 0.99168843
vt 0.013374329 0.9879106
vt 0.014214441 0.9916835
vt 0.011248082 0.98986816
vt 0.011248082 0.98986816
vt 0.00946866 0.98684335
vt 0.4488888 0.9886255
vt 0.41638723 0.98893845
vt 0.4466978 0.98893845
vt 0.41419628 0.9886255
vt 0.45045373 0.9876865
vt 0.4126313 0.9876865
vt 0.4116923 0.98612165
vt 0.45139274 0.98612165
vt 0.45170572 0.98393047
vt 0.4113793 0.98393047
vt 0.4113793 0.93308794
vt 0.45170566 0.93308794
vt 0.45139268 0.9308969
vt 0.4116923 0.9308969
vt 0.4126313 0.929332
vt 0.45045373 0.929332
vt 0.44888875 0.928393
vt 0.41419628 0.928393
vt 0.44669774 0.9280801
vt 0.41638717 0.9280801
vn -0.44784075 -0.89394885 0.017150655
vn -0.75023764 -0.6567721 -0.07611801
vn -0.75024575 -0.6567632 0.076115124
vn -0.44784012 -0.89394915 -0.017149184
vn 0.4478402 -0.89394915 -0.017148985
vn 0.3994658 -0.9101812 -0.1095318
vn -0.39946407 -0.91018194 -0.10953202
vn -0.75023764 -0.6567721 -0.07611801
vn -0.60694003 -0.7527754 -0.25485906
vn 0.60694057 -0.75277483 -0.25485906
vn 0.75023925 -0.6567703 -0.07611731
vn 0.44784072 -0.89394885 0.017150655
vn 0.75023925 -0.6567703 -0.07611731
vn 0.7502457 -0.65676326 0.07611513
vn -0.26096493 -0.9336067 -0.2455118
vn -0.60694003 -0.7527754 -0.25485906
vn -0.41142157 -0.8040739 -0.42918226
vn -0.39946994 -0.91017866 0.10953733
vn -0.60695255 -0.75276387 0.2548631
vn -0.75024575 -0.6567632 0.076115124
vn 0.39946994 -0.9101788 0.10953735
vn 0.7502457 -0.65676326 0.07611513
vn 0.60695255 -0.75276387 0.2548631
vn 0.26096976 -0.93360376 0.24551752
vn 0.60695255 -0.75276387 0.2548631
vn 0.41143796 -0.80405927 0.42919394
vn 0.2609642 -0.93360686 -0.2455114
vn 0.41142184 -0.8040739 -0.4291821
vn 0.60694057 -0.75277483 -0.25485906
vn 0.1084516 -0.9355431 -0.33615103
vn 0.2121777 -0.80155814 -0.5590037
vn 0.41142184 -0.8040739 -0.4291821
vn -0.108451284 -0.9355431 -0.33615077
vn -0.41142157 -0.8040739 -0.42918226
vn -0.21217795 -0.8015582 -0.55900353
vn 0.018396713 -0.93402123 -0.35674343
vn 0.05637048 -0.7704057 -0.6350571
vn 0.2121777 -0.80155814 -0.5590037
vn -0.01839678 -0.93402123 -0.35674345
vn -0.21217795 -0.8015582 -0.55900353
vn -0.05637037 -0.7704056 -0.63505715
vn 0.05637048 -0.7704057 -0.6350571
vn -0.05637037 -0.7704056 -0.63505715
vn -0.056368098 -0.7703835 0.63508415
vn 0.056368012 -0.7703834 0.6350843
vn 0.018395437 -0.93401635 0.35675627
vn -0.018395474 -0.93401635 0.35675633
vn 0.1084562 -0.9355348 0.33617237
vn 0.21218982 -0.8015397 0.5590255
vn 0.056368012 -0.7703834 0.6350843
vn -0.10845574 -0.9355351 0.33617195
vn -0.056368098 -0.7703835 0.63508415
vn -0.2121897 -0.8015401 0.5590251
vn 0.41143796 -0.80405927 0.42919394
vn 0.21218982 -0.8015397 0.5590255
vn -0.2609697 -0.93360376 0.24551766
vn -0.2121897 -0.8015401 0.5590251
vn -0.4114375 -0.80405957 0.42919385
vn -0.4114375 -0.80405957 0.42919385
vn -0.60695255 -0.75276387 0.2548631
vn -0 1 0
vn -0 1 0
vn -0 1 0
vn -0 1 0
vn -0 1 0
vn -0 1 0
vn -0 1 0
vn -0 1 0
vn -0 1 0
vn -0 1 0
vn -0 1 0
vn -0 1 0
vn -0 1 0
vn -0 1 0
vn -0 1 0
vn -0 1 0
vn -0 1 0
vn -0 1 0
vn -0 1 0
vn -0 1 0
g SeparateMesh_Bangboo_Phantomboo_Model_Bangboo_Phantomboo_Weapon_02_LOD0_0
f 3/3/3 2/2/2 1/1/1
f 2/2/2 4/4/4 1/1/1
f 4/4/4 5/5/5 1/1/1
f 6/6/6 5/5/5 4/4/4
f 7/7/7 6/6/6 4/4/4
f 7/7/7 4/4/4 8/8/8
f 9/9/9 7/7/7 8/8/8
f 6/6/6 10/10/10 5/5/5
f 10/10/10 11/11/11 5/5/5
f 1/1/1 5/5/5 12/12/12
f 5/5/5 13/13/13 12/12/12
f 13/13/13 14/14/14 12/12/12
f 15/15/15 6/6/6 7/7/7
f 15/15/15 7/7/7 16/16/16
f 17/17/17 15/15/15 16/16/16
f 18/18/18 1/1/1 12/12/12
f 18/18/18 19/19/19 1/1/1
f 19/19/19 20/20/20 1/1/1
f 21/21/21 18/18/18 12/12/12
f 21/21/21 12/12/12 22/22/22
f 23/23/23 21/21/21 22/22/22
f 24/24/24 18/18/18 21/21/21
f 24/24/24 21/21/21 25/25/25
f 26/26/26 24/24/24 25/25/25
f 27/27/27 6/6/6 15/15/15
f 27/27/27 28/28/28 6/6/6
f 28/28/28 29/29/29 6/6/6
f 30/30/30 27/27/27 15/15/15
f 30/30/30 31/31/31 27/27/27
f 31/31/31 32/32/32 27/27/27
f 33/33/33 30/30/30 15/15/15
f 33/33/33 15/15/15 34/34/34
f 35/35/35 33/33/33 34/34/34
f 36/36/36 30/30/30 33/33/33
f 36/36/36 37/37/37 30/30/30
f 37/37/37 38/38/38 30/30/30
f 39/39/39 36/36/36 33/33/33
f 39/39/39 33/33/33 40/40/40
f 41/41/41 39/39/39 40/40/40
f 36/36/36 39/39/39 42/42/42
f 39/39/39 43/43/43 42/42/42
f 46/46/46 45/45/45 44/44/44
f 47/47/47 46/46/46 44/44/44
f 46/46/46 47/47/47 48/48/48
f 46/46/46 48/48/48 49/49/49
f 50/50/50 46/46/46 49/49/49
f 47/47/47 51/51/51 48/48/48
f 47/47/47 52/52/52 51/51/51
f 52/52/52 53/53/53 51/51/51
f 48/48/48 51/51/51 24/24/24
f 48/48/48 24/24/24 54/54/54
f 55/55/55 48/48/48 54/54/54
f 51/51/51 56/56/56 24/24/24
f 51/51/51 57/57/57 56/56/56
f 57/57/57 58/58/58 56/56/56
f 56/56/56 18/18/18 24/24/24
f 56/56/56 59/59/59 18/18/18
f 59/59/59 60/60/60 18/18/18
f 63/63/63 62/62/62 61/61/61
f 62/62/62 64/64/64 61/61/61
f 61/61/61 64/64/64 65/65/65
f 64/64/64 66/66/66 65/65/65
f 66/66/66 67/67/67 65/65/65
f 65/65/65 67/67/67 68/68/68
f 68/68/68 67/67/67 69/69/69
f 67/67/67 70/70/70 69/69/69
f 69/69/69 70/70/70 71/71/71
f 72/72/72 69/69/69 71/71/71
f 73/73/73 72/72/72 71/71/71
f 74/74/74 73/73/73 71/71/71
f 75/75/75 73/73/73 74/74/74
f 76/76/76 73/73/73 75/75/75
f 77/77/77 76/76/76 75/75/75
f 78/78/78 77/77/77 75/75/75
f 79/79/79 77/77/77 78/78/78
f 80/80/80 79/79/79 78/78/78
