g SeparateMesh_Bangboo_Phantomboo_Model_Bangboo_Phantomboo_Weapon_05_LOD0
v 0.08908449 -0.0006175602 1.1932327
v 0.088146836 0.00061755563 1.1311888
v 0.088146836 0.0006175559 1.1946477
v 0.08908449 -0.0006175605 1.132604
v 0.13754235 -0.0006175605 1.132604
v 0.1371517 -0.00061756064 1.1298693
v 0.089475155 -0.00061756064 1.1298693
v 0.088146836 0.00061755563 1.1311888
v 0.088537484 0.00061755563 1.1284542
v 0.13808934 0.00061755563 1.1284542
v 0.13848001 0.00061755563 1.1311888
v 0.13754234 -0.0006175602 1.1932327
v 0.13848001 0.00061755563 1.1311888
v 0.13848001 0.0006175559 1.1946477
v 0.090647124 -0.00061756064 1.127916
v 0.088537484 0.00061755563 1.1284542
v 0.08970947 0.00061755563 1.126501
v 0.089475155 -0.0006175601 1.1959673
v 0.088537484 0.0006175559 1.1973823
v 0.088146836 0.0006175559 1.1946477
v 0.13715167 -0.0006175601 1.1959673
v 0.13848001 0.0006175559 1.1946477
v 0.13808934 0.0006175559 1.1973823
v 0.13597968 -0.0006175601 1.1979206
v 0.13808934 0.0006175559 1.1973823
v 0.13691735 0.0006175559 1.1993356
v 0.13597971 -0.00061756064 1.127916
v 0.13691735 0.00061755563 1.126501
v 0.13808934 0.00061755563 1.1284542
v 0.13402641 -0.00061756064 1.126744
v 0.13496405 0.00061755563 1.1253289
v 0.13691735 0.00061755563 1.126501
v 0.09260044 -0.00061756064 1.126744
v 0.08970947 0.00061755563 1.126501
v 0.09166279 0.00061755563 1.1253289
v 0.13129176 -0.00061756064 1.1263534
v 0.13222942 0.00061755563 1.1249382
v 0.13496405 0.00061755563 1.1253289
v 0.09533508 -0.00061756064 1.1263534
v 0.09166279 0.00061755563 1.1253289
v 0.09439741 0.00061755563 1.1249382
v 0.13222942 0.00061755563 1.1249382
v 0.09439741 0.00061755563 1.1249382
v 0.09439741 0.0006175559 1.2008983
v 0.13222942 0.0006175559 1.2008983
v 0.13129175 -0.0006175601 1.1994833
v 0.09533508 -0.0006175601 1.1994833
v 0.1340264 -0.0006175601 1.1990926
v 0.13496405 0.0006175559 1.2005076
v 0.13222942 0.0006175559 1.2008983
v 0.09260044 -0.0006175601 1.1990926
v 0.09439741 0.0006175559 1.2008983
v 0.09166279 0.0006175559 1.2005076
v 0.13691735 0.0006175559 1.1993356
v 0.13496405 0.0006175559 1.2005076
v 0.090647124 -0.0006175601 1.1979206
v 0.09166279 0.0006175559 1.2005076
v 0.08970947 0.0006175559 1.1993356
v 0.08970947 0.0006175559 1.1993356
v 0.088537484 0.0006175559 1.1973823
v 0.09166279 0.0006175559 1.2005076
v 0.13222942 0.0006175559 1.2008983
v 0.09439741 0.0006175559 1.2008983
v 0.13496405 0.0006175559 1.2005076
v 0.08970947 0.0006175559 1.1993356
v 0.13691735 0.0006175559 1.1993356
v 0.13808934 0.0006175559 1.1973823
v 0.088537484 0.0006175559 1.1973823
v 0.088146836 0.0006175559 1.1946477
v 0.13848001 0.0006175559 1.1946477
v 0.13848001 0.00061755563 1.1311888
v 0.088146836 0.00061755563 1.1311888
v 0.088537484 0.00061755563 1.1284542
v 0.13808934 0.00061755563 1.1284542
v 0.13691735 0.00061755563 1.126501
v 0.08970947 0.00061755563 1.126501
v 0.09166279 0.00061755563 1.1253289
v 0.13496405 0.00061755563 1.1253289
v 0.09439741 0.00061755563 1.1249382
v 0.13222942 0.00061755563 1.1249382
vt 0.011000693 0.59857714
vt 0.008870602 0.49831736
vt 0.008870602 0.6005292
vt 0.011000693 0.5002698
vt 0.08745128 0.5002605
vt 0.08685702 0.49602306
vt 0.011593044 0.49603224
vt 0.008870602 0.49831736
vt 0.009467959 0.49407327
vt 0.088982105 0.49406415
vt 0.08958137 0.49830806
vt 0.08745128 0.59858334
vt 0.08958137 0.49830806
vt 0.08958137 0.60053545
vt 0.013372719 0.4930054
vt 0.009467959 0.49407327
vt 0.011247516 0.49104667
vt 0.011594236 0.6028137
vt 0.009468794 0.6047721
vt 0.008870602 0.6005292
vt 0.08685815 0.60281956
vt 0.08958137 0.60053545
vt 0.088983655 0.604778
vt 0.08507806 0.605845
vt 0.088983655 0.604778
vt 0.08720434 0.6078025
vt 0.08507651 0.49299657
vt 0.08720183 0.49103785
vt 0.088982105 0.49406415
vt 0.08210909 0.49118054
vt 0.08423483 0.48922217
vt 0.08720183 0.49103785
vt 0.016339362 0.49118876
vt 0.011247516 0.49104667
vt 0.014213681 0.4892304
vt 0.077955544 0.49057597
vt 0.08008134 0.48861763
vt 0.08423483 0.48922217
vt 0.020492852 0.49058294
vt 0.014213681 0.4892304
vt 0.018367052 0.48862466
vt 0.08008134 0.48861763
vt 0.018367052 0.48862466
vt 0.018367887 0.61021733
vt 0.08008468 0.6102217
vt 0.07795751 0.6082649
vt 0.020494878 0.6082605
vt 0.08211106 0.6076602
vt 0.084237814 0.6096172
vt 0.08008468 0.6102217
vt 0.016341269 0.6076553
vt 0.018367887 0.61021733
vt 0.014214516 0.6096122
vt 0.08720434 0.6078025
vt 0.084237814 0.6096172
vt 0.013374388 0.6058394
vt 0.014214516 0.6096122
vt 0.011248231 0.6077969
vt 0.011248231 0.6077969
vt 0.009468794 0.6047721
vt 0.44888878 0.9886255
vt 0.4163872 0.98893845
vt 0.44669783 0.98893845
vt 0.41419625 0.9886255
vt 0.45045376 0.9876865
vt 0.41263127 0.9876865
vt 0.41169226 0.98612165
vt 0.45139277 0.98612165
vt 0.4517057 0.98393047
vt 0.41137934 0.98393047
vt 0.41137934 0.93308794
vt 0.4517057 0.93308794
vt 0.45139265 0.9308969
vt 0.41169226 0.9308969
vt 0.41263127 0.929332
vt 0.45045376 0.929332
vt 0.44888878 0.928393
vt 0.41419625 0.928393
vt 0.4466977 0.9280801
vt 0.4163872 0.9280801
vn -0.44784263 -0.8939479 0.01715025
vn -0.75023955 -0.65676993 -0.07611642
vn -0.7502476 -0.65676105 0.07611354
vn -0.44784203 -0.8939482 -0.017148774
vn 0.44784075 -0.89394885 -0.017149162
vn 0.3994658 -0.91018116 -0.10953256
vn -0.39946446 -0.91018194 -0.109530814
vn -0.75023955 -0.65676993 -0.07611642
vn -0.6069406 -0.7527753 -0.25485748
vn 0.6069409 -0.7527742 -0.25486034
vn 0.75023955 -0.65676975 -0.07611832
vn 0.44784 -0.8939493 0.017150678
vn 0.75023955 -0.65676975 -0.07611832
vn 0.7502437 -0.6567654 0.076114796
vn -0.26096466 -0.93360674 -0.24551132
vn -0.6069406 -0.7527753 -0.25485748
vn -0.4114216 -0.804074 -0.42918217
vn -0.39947018 -0.9101788 0.10953609
vn -0.6069531 -0.75276387 0.2548615
vn -0.7502476 -0.65676105 0.07611354
vn 0.39946803 -0.91017956 0.10953722
vn 0.7502437 -0.6567654 0.076114796
vn 0.60694945 -0.75276667 0.25486228
vn 0.26096776 -0.9336045 0.24551679
vn 0.60694945 -0.75276667 0.25486228
vn 0.4114367 -0.80406076 0.42919248
vn 0.2609647 -0.9336067 -0.24551192
vn 0.41142243 -0.8040729 -0.42918345
vn 0.6069409 -0.7527742 -0.25486034
vn 0.10845222 -0.9355429 -0.33615127
vn 0.21217787 -0.8015573 -0.5590049
vn 0.41142243 -0.8040729 -0.42918345
vn -0.10845131 -0.9355431 -0.3361509
vn -0.4114216 -0.804074 -0.42918217
vn -0.21217746 -0.8015579 -0.5590042
vn 0.018396756 -0.93402123 -0.35674348
vn 0.05637032 -0.77040535 -0.6350575
vn 0.21217787 -0.8015573 -0.5590049
vn -0.018396609 -0.9340213 -0.35674337
vn -0.21217746 -0.8015579 -0.5590042
vn -0.056370493 -0.7704057 -0.635057
vn 0.05637032 -0.77040535 -0.6350575
vn -0.056370493 -0.7704057 -0.635057
vn -0.05636822 -0.77038366 0.635084
vn 0.05636822 -0.77038366 0.635084
vn 0.018395301 -0.9340164 0.35675624
vn -0.018395301 -0.9340164 0.35675624
vn 0.108456105 -0.93553483 0.3361721
vn 0.21218954 -0.8015404 0.5590249
vn 0.05636822 -0.77038366 0.635084
vn -0.10845579 -0.93553483 0.3361722
vn -0.05636822 -0.77038366 0.635084
vn -0.21218921 -0.80153984 0.55902565
vn 0.4114367 -0.80406076 0.42919248
vn 0.21218954 -0.8015404 0.5590249
vn -0.2609699 -0.93360364 0.2455176
vn -0.21218921 -0.80153984 0.55902565
vn -0.41143748 -0.8040596 0.42919376
vn -0.41143748 -0.8040596 0.42919376
vn -0.6069531 -0.75276387 0.2548615
vn -0 1 0
vn -0 1 0
vn -0 1 0
vn -0 1 0
vn -0 1 0
vn -0 1 0
vn -0 1 0
vn -0 1 0
vn -0 1 0
vn -0 1 0
vn -0 1 0
vn -0 1 0
vn -0 1 0
vn -0 1 0
vn -0 1 0
vn -0 1 0
vn -0 1 0
vn -0 1 0
vn -0 1 0
vn -0 1 0
g SeparateMesh_Bangboo_Phantomboo_Model_Bangboo_Phantomboo_Weapon_05_LOD0_0
f 3/3/3 2/2/2 1/1/1
f 2/2/2 4/4/4 1/1/1
f 4/4/4 5/5/5 1/1/1
f 6/6/6 5/5/5 4/4/4
f 7/7/7 6/6/6 4/4/4
f 7/7/7 4/4/4 8/8/8
f 9/9/9 7/7/7 8/8/8
f 6/6/6 10/10/10 5/5/5
f 10/10/10 11/11/11 5/5/5
f 1/1/1 5/5/5 12/12/12
f 5/5/5 13/13/13 12/12/12
f 13/13/13 14/14/14 12/12/12
f 15/15/15 6/6/6 7/7/7
f 15/15/15 7/7/7 16/16/16
f 17/17/17 15/15/15 16/16/16
f 18/18/18 1/1/1 12/12/12
f 18/18/18 19/19/19 1/1/1
f 19/19/19 20/20/20 1/1/1
f 21/21/21 18/18/18 12/12/12
f 21/21/21 12/12/12 22/22/22
f 23/23/23 21/21/21 22/22/22
f 24/24/24 18/18/18 21/21/21
f 24/24/24 21/21/21 25/25/25
f 26/26/26 24/24/24 25/25/25
f 27/27/27 6/6/6 15/15/15
f 27/27/27 28/28/28 6/6/6
f 28/28/28 29/29/29 6/6/6
f 30/30/30 27/27/27 15/15/15
f 30/30/30 31/31/31 27/27/27
f 31/31/31 32/32/32 27/27/27
f 33/33/33 30/30/30 15/15/15
f 33/33/33 15/15/15 34/34/34
f 35/35/35 33/33/33 34/34/34
f 36/36/36 30/30/30 33/33/33
f 36/36/36 37/37/37 30/30/30
f 37/37/37 38/38/38 30/30/30
f 39/39/39 36/36/36 33/33/33
f 39/39/39 33/33/33 40/40/40
f 41/41/41 39/39/39 40/40/40
f 36/36/36 39/39/39 42/42/42
f 39/39/39 43/43/43 42/42/42
f 46/46/46 45/45/45 44/44/44
f 47/47/47 46/46/46 44/44/44
f 46/46/46 47/47/47 48/48/48
f 46/46/46 48/48/48 49/49/49
f 50/50/50 46/46/46 49/49/49
f 47/47/47 51/51/51 48/48/48
f 47/47/47 52/52/52 51/51/51
f 52/52/52 53/53/53 51/51/51
f 48/48/48 51/51/51 24/24/24
f 48/48/48 24/24/24 54/54/54
f 55/55/55 48/48/48 54/54/54
f 51/51/51 56/56/56 24/24/24
f 51/51/51 57/57/57 56/56/56
f 57/57/57 58/58/58 56/56/56
f 56/56/56 18/18/18 24/24/24
f 56/56/56 59/59/59 18/18/18
f 59/59/59 60/60/60 18/18/18
f 63/63/63 62/62/62 61/61/61
f 62/62/62 64/64/64 61/61/61
f 61/61/61 64/64/64 65/65/65
f 64/64/64 66/66/66 65/65/65
f 66/66/66 67/67/67 65/65/65
f 65/65/65 67/67/67 68/68/68
f 68/68/68 67/67/67 69/69/69
f 67/67/67 70/70/70 69/69/69
f 69/69/69 70/70/70 71/71/71
f 72/72/72 69/69/69 71/71/71
f 73/73/73 72/72/72 71/71/71
f 74/74/74 73/73/73 71/71/71
f 75/75/75 73/73/73 74/74/74
f 76/76/76 73/73/73 75/75/75
f 77/77/77 76/76/76 75/75/75
f 78/78/78 77/77/77 75/75/75
f 79/79/79 77/77/77 78/78/78
f 80/80/80 79/79/79 78/78/78
